<?xml version="1.0" standalone="no"?>
<!DOCTYPE svg PUBLIC "-//W3C//DTD SVG 1.1//EN" "http://www.w3.org/Graphics/SVG/1.1/DTD/svg11.dtd" >
<svg>
<metadata>
Created by FontForge 20120731 at Tue Nov  1 13:30:59 2016
 By ,,,
Copyright (c) 2003-2009 Typotheque.com All rights reserved.
</metadata>
<defs>
<font id="FedraSerifAStdMedium" horiz-adv-x="600" >
  <font-face 
    font-family="Fedra Serif A Std Medium"
    font-weight="500"
    font-stretch="normal"
    units-per-em="1000"
    panose-1="2 3 7 5 0 0 0 2 0 4"
    ascent="780"
    descent="-220"
    x-height="546"
    cap-height="707"
    bbox="-570 -473 2311 1028"
    underline-thickness="50"
    underline-position="-50"
    unicode-range="U+0020-FB06"
  />
<missing-glyph horiz-adv-x="712" 
d="M305 375v27h27v-27h-27zM380 525v27h27v-27h-27zM305 525v27h27v-27h-27zM230 525v27h27v-27h-27zM80 0v27h27v-27h-27zM155 0v27h27v-27h-27zM230 0v27h27v-27h-27zM305 0v27h27v-27h-27zM380 0v27h27v-27h-27zM80 75v27h27v-27h-27zM80 150v27h27v-27h-27zM80 225v27
h27v-27h-27zM80 300v27h27v-27h-27zM80 375v27h27v-27h-27zM80 450v27h27v-27h-27zM80 525v27h27v-27h-27zM80 600v27h27v-27h-27zM80 675v27h27v-27h-27zM155 675v27h27v-27h-27zM230 675v27h27v-27h-27zM305 675v27h27v-27h-27zM380 675v27h27v-27h-27zM455 675v27h27v-27
h-27zM530 675v27h27v-27h-27zM530 0v27h27v-27h-27zM455 0v27h27v-27h-27zM605 0v27h27v-27h-27zM605 675v27h27v-27h-27zM305 300v27h27v-27h-27zM305 150v27h27v-27h-27zM380 375v27h27v-27h-27zM455 375v27h27v-27h-27zM455 450v27h27v-27h-27zM455 525v27h27v-27h-27z
M605 600v27h27v-27h-27zM605 525v27h27v-27h-27zM605 375v27h27v-27h-27zM605 300v27h27v-27h-27zM605 150v27h27v-27h-27zM605 75v27h27v-27h-27zM605 225v27h27v-27h-27zM605 450v27h27v-27h-27z" />
    <glyph glyph-name="f_f" unicode="ff" horiz-adv-x="792" 
d="M34 0q-6 36 -4 54l51 18q30 10 30 60l3 148v191h-80v58l80 16v22q0 81 83 142.5t177 61.5q134 0 192 -53q71 63 156 63q170 0 170 -72q0 -54 -59 -85q-63 77 -97 77q-103 0 -103 -106v-51h119v-73h-119v-191l5 -164q0 -30 32 -36q104 -20 108 -21q0 -40 -7 -59h-355
q-4 27 -4 54l46 15q34 11 36 63l2 148v191h-245v-191l4 -159q0 -21 7.5 -30.5t28.5 -14.5l68 -17q0 -40 -8 -59h-317zM251 544h245v32q0 23 8 47q-66 69 -129 68q-124 -2 -124 -98v-49z" />
    <glyph glyph-name="fi" unicode="fi" horiz-adv-x="751" 
d="M35 0q-6 24 -4 54l51 18q28 9 30 60l2 148v191h-79v58l79 15v20q0 84 85 153.5t174 69.5q99 0 153.5 -22.5t54.5 -64.5q0 -53 -70 -86q-22 31 -56.5 62t-52.5 32h-14q-61 0 -99 -28.5t-38 -86.5v-49h205q78 14 144 14q25 0 36 -9t11 -34v-242l3 -161q0 -32 16 -36l74 -18
q0 -38 -5 -58h-304q-5 23 -5 56l55 19q27 9 27 44l3 154v198h-260v-191l5 -159q0 -21 6 -29.5t23 -12.5q81 -18 85 -20q0 -40 -8 -59h-327z" />
    <glyph glyph-name="fl" unicode="fl" horiz-adv-x="746" 
d="M734 58q0 -39 -6 -58h-308q-6 24 -4 53l57 17q28 9 28 46l4 158v382q-64 46 -117 46q-136 0 -136 -99v-59h119v-73h-119v-191l4 -159q0 -39 37 -45q62 -15 67 -17q0 -40 -8 -59h-317q-5 38 -4 54l51 18q30 10 30 60l3 148v191h-80v58l80 16v28q0 81 83 143t177 62
q75 0 130 -20q48 6 89 6q24 0 35.5 -10t11.5 -34v-446l3 -163q0 -32 14 -35z" />
    <glyph glyph-name="f_f_i" unicode="ffi" horiz-adv-x="1125" 
d="M35 0q-5 29 -4 54l51 18q30 10 30 60l3 148v191h-80v58l80 16v22q0 81 83 142.5t177 61.5q148 0 198 -60q86 76 182 76q99 0 153.5 -22.5t54.5 -64.5q0 -53 -70 -86q-22 31 -56.5 62t-52.5 32h-14q-61 0 -99 -28.5t-38 -86.5v-49h196q78 14 144 14q25 0 36.5 -9t11.5 -34
v-242l2 -161q1 -32 17 -36l74 -18q0 -39 -6 -58h-304q-5 25 -4 56l55 19q25 9 27 44l3 154v198h-252v-191l5 -159q0 -21 6 -29.5t23 -12.5l79 -20q0 -42 -7 -59h-318q-7 31 -4 54l47 18q28 9 30 60l2 148v191h-244v-191l4 -159q0 -37 36 -45l68 -17q0 -40 -8 -59h-317z
M252 544h244v20q0 28 11 56q-67 72 -131 71q-124 -2 -124 -98v-49z" />
    <glyph glyph-name="f_f_l" unicode="ffl" horiz-adv-x="1130" 
d="M35 0q-5 29 -4 54l51 18q30 10 30 60l3 148v191h-80v58l80 16v22q0 81 83 142.5t177 61.5q143 0 195 -57q83 70 186 70q89 0 145 -25q50 5 77 5q24 0 35.5 -10t11.5 -34v-446l3 -163q0 -32 14 -35l76 -18q0 -39 -6 -58h-308q-4 16 -4 53l57 17q28 9 28 46l4 158v386
q-63 48 -122 48q-71 -1 -102.5 -25.5t-31.5 -73.5v-65h119v-73h-119v-191l5 -159q0 -37 35 -45l68 -17q0 -42 -7 -59h-317q-5 39 -4 54l51 18q28 9 30 60l2 148v191h-244v-191l4 -159q0 -37 36 -45l68 -17q0 -40 -8 -59h-317zM252 544h244v36q0 21 8 43q-64 69 -128 68
q-124 -2 -124 -98v-49z" />
    <glyph glyph-name="f_h" unicode="fh" horiz-adv-x="1102" 
d="M35 0q-4 18 -4 54l47 16q34 11 34 62l3 148v191h-80v58l80 16v28q0 81 83 143t177 62q72 0 130 -20q49 7 94 7q21 0 30 -8.5t9 -26.5v-240q93 69 190 69q42 0 73 -5.5t50 -18.5t31 -26.5t17 -37.5t6.5 -43t1.5 -50v-104l3 -173q0 -24 16 -28l62 -15q0 -41 -6 -58h-271
q-5 32 -4 56l39 17q22 10 22 45l3 156v65q0 32 -2.5 50t-10.5 36t-26.5 25.5t-49.5 7.5q-80 0 -141 -27v-157l2 -158q0 -35 25 -42l63 -16q0 -38 -5 -58h-289q-5 35 -4 53l40 15q29 11 29 53l3 153v382q-64 46 -119 46q-71 -1 -102.5 -25.5t-31.5 -73.5v-59h116v-73h-116
v-191l4 -159q0 -38 36 -44l68 -18q0 -40 -8 -59h-317z" />
    <glyph glyph-name="f_b" unicode="fb" horiz-adv-x="1049" 
d="M1013 290q0 -129 -84 -213t-211 -84q-132 0 -218 26l6 261v375q-63 47 -120 47q-71 -1 -102.5 -25.5t-31.5 -73.5v-59h119v-73h-119v-191l4 -159q0 -20 8.5 -29t27.5 -13q63 -18 68 -20q0 -40 -8 -59h-317q-4 22 -4 54l51 18q30 10 30 60l3 148v191h-80v58l80 16v28
q0 81 83 143t177 62q78 0 135 -21q49 7 81 7q29 0 39.5 -10t10.5 -40v-435l4 -187q44 -7 76 -7q71 0 108 55t37 143q0 87 -28.5 134.5t-95.5 47.5q-28 0 -60 -4l-13 66q15 9 46.5 18t56.5 9q123 0 182 -58.5t59 -205.5z" />
    <glyph glyph-name="f_j" unicode="fj" horiz-adv-x="723" 
d="M430 -220q-53 0 -89 17l33 107q34 -18 76 -18q35 0 50.5 23t15.5 77v485h-265v-191l5 -159q0 -19 8 -27.5t27 -14.5q73 -18 77 -20q0 -42 -7 -59h-326q-5 30 -4 54l51 18q28 9 30 60l2 148v191h-79v58l79 15v20q0 84 85 153t174 69q99 0 153.5 -22.5t54.5 -64.5
q0 -52 -70 -85q-22 30 -56.5 61t-52.5 33h-14q-61 0 -99 -29t-38 -87v-48h211q78 14 143 14q25 0 36 -9t11 -34v-242l1 -224q0 -104 -73.5 -186.5t-149.5 -82.5z" />
    <glyph glyph-name="f_k" unicode="fk" horiz-adv-x="1029" 
d="M1029 49l-15 -70q-82 6 -142.5 35t-107.5 92l-122 166v-11l2 -135q2 -40 21 -52l30 -20q0 -35 -6 -54h-262q-4 23 -4 53l51 18q28 9 28 49l3 154v381q-63 47 -119 47q-71 -1 -102.5 -25.5t-31.5 -73.5v-59h119v-73h-119v-191l4 -159q1 -37 36 -45l68 -17q0 -40 -8 -59
h-317q-5 28 -4 54l51 18q30 10 30 60l3 148v191h-80v58l80 16v28q0 81 83 143t177 62q74 0 131 -20q48 6 88 6q48 0 48 -44v-430l156 143q14 11 14 26q0 20 -16 25l-36 17q0 34 3 45h219v-47l-211 -180l113 -146q80 -100 145 -124z" />
    <glyph glyph-name="f_idieresis" unicode="f&#xef;" horiz-adv-x="790" 
d="M558 628q-11 0 -39.5 28.5t-28.5 38.5q0 11 28.5 39.5t39.5 28.5q10 0 39.5 -29t29.5 -39q0 -9 -29 -38t-40 -29zM734 628q-10 0 -39 28.5t-29 38.5q0 11 28.5 39.5t39.5 28.5q10 0 39.5 -29t29.5 -39q0 -9 -29 -38t-40 -29zM470 689q0 -55 -59 -80q-52 78 -81 78
q-38 0 -58 -29t-20 -77v-37h119v-73h-119v-191l5 -164q0 -30 32 -36l108 -21q0 -31 -7 -59h-354q-5 25 -5 54l46 15q35 13 35 63l3 148v191h-80v58l80 16v17q0 80 66 142t141 62q148 0 148 -77zM778 58q0 -38 -5 -58h-310q-4 19 -4 56l60 19q26 7 28 44l3 154v199h-93v65
q96 21 181 21q25 0 36.5 -9t11.5 -34v-242l2 -161q0 -31 16 -36z" />
    <glyph glyph-name="f_igrave" unicode="f&#xec;" horiz-adv-x="790" 
d="M482 800l96 47q44 -120 102 -216l-51 -35q-70 74 -147 204zM470 689q0 -55 -59 -80q-52 78 -81 78q-38 0 -58 -29t-20 -77v-37h119v-73h-119v-191l5 -164q0 -30 32 -36l108 -21q0 -31 -7 -59h-354q-5 25 -5 54l46 15q35 13 35 63l3 148v191h-80v58l80 16v17q0 80 66 142
t141 62q148 0 148 -77zM778 58q0 -38 -5 -58h-310q-4 19 -4 56l60 19q26 7 28 44l3 154v199h-93v65q96 21 181 21q25 0 36.5 -9t11.5 -34v-242l2 -161q0 -31 16 -36z" />
    <glyph glyph-name="f_f_j" unicode="ffj" horiz-adv-x="1083" 
d="M790 -220q-53 0 -89 17l33 107q34 -18 76 -18q35 0 50.5 23t15.5 77v485h-243v-191l5 -159q0 -21 6 -29.5t23 -12.5q81 -18 85 -20q0 -40 -8 -59h-323q-6 24 -4 54l47 18q28 9 30 60l2 148v191h-244v-191l4 -159q0 -37 36 -45l68 -17q0 -40 -8 -59h-317q-5 29 -4 54
l51 18q30 10 30 60l3 148v191h-80v58l80 16v22q0 81 83 142.5t177 61.5q148 0 198 -60q86 76 182 76q99 0 153.5 -22.5t54.5 -64.5q0 -53 -70 -86q-22 31 -56.5 62t-52.5 32h-14q-61 0 -99 -28.5t-38 -86.5v-49h189q78 14 143 14q25 0 36 -9t11 -34v-242l1 -224
q0 -104 -73.5 -186.5t-149.5 -82.5zM252 544h244v20q0 28 11 56q-67 72 -131 71q-124 -2 -124 -98v-49z" />
    <glyph glyph-name="f_f_b" unicode="ffb" horiz-adv-x="1427" 
d="M1095 -7q-132 0 -218 26l6 261v379q-63 49 -117 49q-71 -1 -102.5 -25.5t-31.5 -73.5v-65h116v-73h-116v-191l5 -159q0 -20 8.5 -29t26.5 -13l79 -20q0 -42 -7 -59h-328q-7 25 -4 54l51 18q28 9 30 60l2 148v191h-244v-191l4 -159q0 -19 8 -27t28 -15l67 -19
q-6 -50 -10 -60h-314q-8 36 -4 54l51 18q30 10 30 60l3 148v191h-80v58l80 16v22q0 81 83 142.5t177 61.5q143 0 195 -57q83 70 186 70q82 0 142 -26q39 6 71 6q29 0 39 -10t10 -40v-435l5 -187q44 -7 76 -7q71 0 108 55t37 143q0 87 -28.5 134.5t-95.5 47.5q-28 0 -60 -4
l-14 66q16 9 47.5 18t56.5 9q123 0 181.5 -58t58.5 -206q0 -129 -83.5 -213t-210.5 -84zM251 544h244v36q0 21 8 43q-64 69 -128 68q-124 -2 -124 -98v-49z" />
    <glyph glyph-name="f_f_h" unicode="ffh" horiz-adv-x="1491" 
d="M35 0q-5 29 -4 54l51 18q30 10 30 60l3 148v191h-80v58l80 16v22q0 81 83 142.5t177 61.5q143 0 195 -57q83 70 186 70q85 0 145 -25q50 6 87 6q21 0 30 -8.5t9 -26.5v-240q93 69 190 69q42 0 73 -5.5t50 -18.5t31 -26.5t17 -37.5t6.5 -43t1.5 -50v-104l3 -173
q0 -24 16 -28l63 -15q-1 -5 -2 -17.5t-2 -23t-3 -17.5h-271q-5 33 -3 56l38 17q23 11 23 45l2 156v65q0 32 -2.5 50t-10.5 36t-26.5 25.5t-49.5 7.5q-80 0 -141 -27v-157l2 -158q0 -33 18 -40l58 -18q0 -38 -5 -58h-284q-5 22 -3 53l47 18q28 9 28 50l3 153v383
q-68 51 -127 51q-71 -1 -102.5 -25.5t-31.5 -73.5v-65h120v-73h-120v-191l5 -159q0 -41 38 -47q61 -13 65 -15q0 -42 -7 -59h-317q-5 31 -4 54l51 18q28 9 30 60l2 148v191h-244v-191l4 -159q0 -37 36 -45l68 -17q0 -40 -8 -59h-317zM252 544h244v36q0 21 8 43
q-64 69 -128 68q-124 -2 -124 -98v-49z" />
    <glyph glyph-name="f_f_k" unicode="ffk" horiz-adv-x="1410" 
d="M1410 49l-14 -70q-166 11 -250 127l-122 166v-10l2 -136q2 -40 21 -52l30 -20q0 -27 -5 -54h-263q-6 25 -4 53l51 18q28 9 28 49l4 154v382q-65 52 -121 52q-71 -1 -102.5 -25.5t-31.5 -73.5v-65h119v-73h-119v-191l5 -159q0 -39 36 -45q63 -15 67 -17q0 -42 -7 -59h-317
q-5 32 -4 54l51 18q28 9 30 60l2 148v191h-244v-191l4 -159q0 -37 36 -45l68 -17q0 -40 -8 -59h-317q-5 29 -4 54l51 18q30 10 30 60l3 148v191h-80v58l80 16v22q0 81 83 142.5t177 61.5q143 0 195 -57q83 70 186 70q84 0 140 -25q50 5 80 5q48 0 48 -44v-430l156 143
q14 11 14 26q0 20 -16 25l-37 17q0 30 4 45h218v-47l-210 -180l113 -146q80 -100 144 -124zM252 544h244v36q0 21 8 43q-64 69 -128 68q-124 -2 -124 -98v-49z" />
    <glyph glyph-name="aogonek_j" unicode="&#x105;j" horiz-adv-x="918" 
d="M532 -249q-90 0 -138.5 33.5t-48.5 91.5q0 68 65 119q-67 12 -70 84q-85 -88 -174 -88q-65 0 -104 32.5t-39 94.5q0 146 209 176q16 2 105 13v69q0 43 -22.5 58.5t-90.5 15.5q-60 0 -142 -21l-24 95q90 34 193 34q32 0 56 -1.5t57 -10t55 -24.5t37.5 -46.5t15.5 -72.5
v-129l7 -183h84l7 -44q-61 -37 -92 -68t-31 -75q0 -41 26 -59.5t65 -18.5q82 0 127.5 45t45.5 134v466h-90v66q96 21 179 21q25 0 36 -9t11 -34v-242l1 -213q0 -137 -96 -223t-220 -86zM222 99q38 0 115 29v112q-2 0 -32 -4t-49 -8q-95 -18 -95 -78q0 -23 15.5 -37t45.5 -14
zM778 636q-14 0 -51 37.5t-37 51.5q0 15 37 51.5t51 36.5q13 0 51 -37.5t38 -50.5q0 -11 -37.5 -50t-51.5 -39z" />
    <glyph glyph-name=".notdef" horiz-adv-x="712" 
d="M305 375v27h27v-27h-27zM380 525v27h27v-27h-27zM305 525v27h27v-27h-27zM230 525v27h27v-27h-27zM80 0v27h27v-27h-27zM155 0v27h27v-27h-27zM230 0v27h27v-27h-27zM305 0v27h27v-27h-27zM380 0v27h27v-27h-27zM80 75v27h27v-27h-27zM80 150v27h27v-27h-27zM80 225v27
h27v-27h-27zM80 300v27h27v-27h-27zM80 375v27h27v-27h-27zM80 450v27h27v-27h-27zM80 525v27h27v-27h-27zM80 600v27h27v-27h-27zM80 675v27h27v-27h-27zM155 675v27h27v-27h-27zM230 675v27h27v-27h-27zM305 675v27h27v-27h-27zM380 675v27h27v-27h-27zM455 675v27h27v-27
h-27zM530 675v27h27v-27h-27zM530 0v27h27v-27h-27zM455 0v27h27v-27h-27zM605 0v27h27v-27h-27zM605 675v27h27v-27h-27zM305 300v27h27v-27h-27zM305 150v27h27v-27h-27zM380 375v27h27v-27h-27zM455 375v27h27v-27h-27zM455 450v27h27v-27h-27zM455 525v27h27v-27h-27z
M605 600v27h27v-27h-27zM605 525v27h27v-27h-27zM605 375v27h27v-27h-27zM605 300v27h27v-27h-27zM605 150v27h27v-27h-27zM605 75v27h27v-27h-27zM605 225v27h27v-27h-27zM605 450v27h27v-27h-27z" />
    <glyph glyph-name=".null" horiz-adv-x="0" 
 />
    <glyph glyph-name="nonmarkingreturn" horiz-adv-x="333" 
 />
    <glyph glyph-name="space" unicode=" " horiz-adv-x="239" 
 />
    <glyph glyph-name="exclam" unicode="!" horiz-adv-x="284" 
d="M223 705l-31 -494h-98l-32 494l80 41zM231 41q0 -14 -38.5 -52.5t-53.5 -38.5q-14 0 -51.5 38t-37.5 53t38 52.5t51 37.5q15 0 53.5 -37.5t38.5 -52.5z" />
    <glyph glyph-name="quotedbl" unicode="&#x22;" horiz-adv-x="443" 
d="M48 503v252h134l-32 -252h-102zM281 503v252h135l-33 -252h-102z" />
    <glyph glyph-name="numbersign" unicode="#" horiz-adv-x="584" 
d="M548 134h-108l-9 -166h-83l8 166h-146l-8 -166h-83l8 166h-90v83h95l7 130h-102v82h105l9 154h83l-8 -154h146l8 154h84l-9 -154h93v-82h-97l-7 -130h104v-83zM367 347h-145l-6 -130h144z" />
    <glyph glyph-name="dollar" unicode="$" horiz-adv-x="446" 
d="M434 171q0 -71 -53 -121t-135 -61v-156h-59v152q-75 2 -125 26t-50 63q0 45 38 79q109 -88 152 -88q113 0 113 66q0 22 -29.5 37.5t-72 30t-85 34.5t-72 61t-29.5 99q0 57 47 104.5t113 62.5v144h59v-139q72 -2 120 -23t48 -59q0 -46 -40 -73q-8 5 -28.5 18.5t-32 20.5
t-29 16t-31.5 13t-27 4q-90 0 -90 -57q0 -18 20.5 -30.5t61.5 -25.5q6 -2 29.5 -10.5t33 -12.5t31.5 -13t32 -16.5t27.5 -19t26 -24t18.5 -28t14 -34.5t4 -40z" />
    <glyph glyph-name="percent" unicode="%" horiz-adv-x="617" 
d="M173 368q-55 0 -91.5 28.5t-36.5 89.5q0 57 38.5 91t91.5 34q56 0 93.5 -28.5t37.5 -91.5q0 -58 -38.5 -90.5t-94.5 -32.5zM174 427q25 0 38.5 18t13.5 47q0 60 -52 60q-49 0 -49 -67q0 -58 49 -58zM448 -19q-55 0 -91.5 28.5t-36.5 89.5q0 57 38.5 91t91.5 34
q57 0 94.5 -28.5t37.5 -91.5q0 -58 -39 -90.5t-95 -32.5zM449 40q25 0 38.5 18t13.5 46q0 60 -51 60q-49 0 -49 -66q0 -58 48 -58zM78 57l-46 62l501 405l46 -60z" />
    <glyph glyph-name="ampersand" unicode="&#x26;" horiz-adv-x="759" 
d="M785 36q-42 -52 -117 -52q-107 0 -236 84q-33 -34 -85 -55.5t-102 -21.5q-85 0 -144.5 41t-59.5 126q0 56 39 103.5t96 78.5q-46 71 -46 159q0 87 65 152.5t146 65.5q83 0 128 -35.5t45 -98.5q0 -69 -59 -123t-137 -88q69 -106 173 -185q17 30 17 56q0 50 -54 85
q0 28 5 43h188v-27q-13 -40 -51 -92.5t-74 -86.5q96 -68 177 -78q41 -11 71 -5zM392 572q0 34 -18.5 54.5t-51.5 20.5q-35 0 -56.5 -24.5t-21.5 -66.5q0 -33 14 -74.5t36 -72.5q98 72 98 163zM384 104q-96 72 -178 189q-38 -33 -38 -88q0 -63 37.5 -92.5t91.5 -29.5
q45 0 87 21z" />
    <glyph glyph-name="quotesingle" unicode="'" horiz-adv-x="210" 
d="M48 503v252h135l-33 -252h-102z" />
    <glyph glyph-name="parenleft" unicode="(" horiz-adv-x="298" 
d="M237 -222q-14 12 -36 39t-53.5 79t-58 112t-45.5 144.5t-19 169.5q0 106 27.5 204t66.5 162t70.5 102.5t50.5 51.5l49 -50q-18 -15 -45 -51.5t-60.5 -95.5t-56.5 -145.5t-23 -176.5q0 -91 23.5 -181t57 -153.5t60.5 -103.5t44 -56z" />
    <glyph glyph-name="parenright" unicode=")" horiz-adv-x="298" 
d="M61 -222l-52 51q17 16 44 56t60.5 103.5t57 153.5t23.5 181q0 90 -23 176.5t-56.5 145.5t-60.5 95.5t-45 51.5l50 50q14 -10 36.5 -34.5t54.5 -72.5t59 -105.5t46 -139.5t19 -168q0 -105 -27.5 -206t-67 -170t-69.5 -110t-49 -58z" />
    <glyph glyph-name="asterisk" unicode="*" horiz-adv-x="399" 
d="M370 527l-7 -34l-28 -27l-95 52l-7 -110l-34 -10l-35 10v112l-102 -54l-24 24l-9 36l95 57l-95 60l7 36l27 24l102 -55v114l34 10l35 -10l8 -111l94 52l28 -23l6 -36l-99 -58z" />
    <glyph glyph-name="plus" unicode="+" horiz-adv-x="509" 
d="M494 257l-193 2l2 -224h-98l2 224l-193 -2v86l193 -2l-2 224h98l-2 -224l193 2v-86z" />
    <glyph glyph-name="comma" unicode="," horiz-adv-x="257" 
d="M227 25q0 -53 -52 -123.5t-111 -109.5l-42 38q70 75 80 120q-22 17 -47.5 46.5t-25.5 39.5q0 17 41.5 57t56.5 40q19 0 59.5 -41t40.5 -67z" />
    <glyph glyph-name="hyphen" unicode="-" horiz-adv-x="439" 
d="M360 254h-281v74l281 14v-88z" />
    <glyph glyph-name="period" unicode="." horiz-adv-x="252" 
d="M223 35q0 -15 -41 -56.5t-56 -41.5t-56 41t-41 57t41 56t56 40t56 -40t41 -56z" />
    <glyph glyph-name="slash" unicode="/" horiz-adv-x="315" 
d="M320 769l-236 -831h-90l238 831h88z" />
    <glyph glyph-name="zero" unicode="0" horiz-adv-x="693" 
d="M645 276q0 -129 -93 -207.5t-223 -78.5q-129 0 -205 67.5t-76 201.5q0 131 92.5 215t220.5 84q129 0 206.5 -73t77.5 -209zM491 269q0 88 -39.5 143.5t-109.5 55.5q-143 0 -143 -189q0 -85 41.5 -141t112.5 -56q138 0 138 187z" />
    <glyph glyph-name="one" unicode="1" horiz-adv-x="490" 
d="M469 65q0 -45 -6 -65h-400q-7 29 -5 63l91 28q15 4 25.5 18t11.5 34l5 136v178h-140v76l280 40v-295l2 -151q1 -33 38 -40z" />
    <glyph glyph-name="two" unicode="2" horiz-adv-x="554" 
d="M501 0h-434l-22 75q6 4 47 34.5t75.5 58t74.5 64t63.5 72.5t23.5 64q0 77 -98 77q-79 0 -148 -28l-30 84q101 59 211 59t164.5 -41t54.5 -128q0 -40 -21.5 -79.5t-62.5 -75t-78.5 -62t-91.5 -58.5l272 17v-133z" />
    <glyph glyph-name="three" unicode="3" horiz-adv-x="507" 
d="M466 65q0 -102 -84 -167.5t-190 -65.5q-94 0 -181 33l27 100q84 -33 153 -33q124 0 124 106q0 115 -163 131l-11 63q59 11 101 47t42 90q0 87 -101 87q-56 0 -125 -25l-27 77q85 53 196 53q90 0 146.5 -39.5t56.5 -124.5q0 -50 -42 -96t-84 -62q57 -8 109.5 -58
t52.5 -116z" />
    <glyph glyph-name="four" unicode="4" horiz-adv-x="605" 
d="M564 24h-100l5 -185h-147l4 185h-257l-42 81l211 441h78l-181 -398h191v398h138v-398h100v-124z" />
    <glyph glyph-name="five" unicode="5" horiz-adv-x="529" 
d="M484 77q0 -98 -85 -173.5t-197 -75.5q-104 0 -197 33l29 100q105 -35 174 -35q61 0 91 23.5t30 78.5q0 26 -10.5 47.5t-25 35.5t-41 25t-46.5 17t-54 10.5t-51 6.5t-50 4l37 372h378l-9 -131l-286 23l-12 -131q66 -6 117 -17.5t101.5 -36t78.5 -69.5t28 -107z" />
    <glyph glyph-name="six" unicode="6" horiz-adv-x="597" 
d="M566 252q0 -105 -74.5 -183.5t-178.5 -78.5q-147 0 -205.5 77.5t-58.5 231.5q0 79 26 155t72.5 135.5t116.5 96t152 36.5q63 0 101 -13l-26 -99q-50 13 -92 13q-52 0 -90.5 -20t-59.5 -49.5t-33.5 -75t-16 -84.5t-3.5 -89q0 -36 5 -71t17.5 -73.5t39.5 -62t65 -23.5
q54 0 77 42.5t23 101.5t-30.5 101t-85.5 42q-26 0 -49 -4l-12 77q59 19 112 19q100 0 154 -51t54 -151z" />
    <glyph glyph-name="seven" unicode="7" horiz-adv-x="525" 
d="M514 488l-365 -694l-106 48l326 586l-332 -12l-1 130h448z" />
    <glyph glyph-name="eight" unicode="8" horiz-adv-x="607" 
d="M561 207q0 -95 -77 -156.5t-189 -61.5q-109 0 -178.5 50t-69.5 141q0 104 121 171q-96 70 -96 166q0 71 65.5 136t161.5 65q106 0 172 -46t66 -125q0 -104 -123 -166q66 -35 106.5 -76.5t40.5 -97.5zM411 535q0 37 -28 71.5t-83 34.5q-47 0 -74 -26t-27 -68q0 -22 13 -41
t42.5 -38.5t48 -29.5t59.5 -30q49 48 49 127zM420 167q0 18 -10 34t-32.5 31.5t-42 26t-55.5 28.5t-55 28q-50 -62 -50 -127q0 -46 36.5 -83t92.5 -37q58 0 87 26t29 73z" />
    <glyph glyph-name="nine" unicode="9" horiz-adv-x="595" 
d="M550 247q0 -80 -26 -155t-72.5 -134t-117 -95t-152.5 -36q-62 0 -101 13l26 99q52 -13 93 -13q52 0 90.5 20t59.5 49.5t33.5 75t16 84.5t3.5 89q0 36 -5 71t-17.5 73.5t-40 62t-65.5 23.5q-54 0 -77 -42t-23 -102q0 -58 31 -100.5t86 -42.5q25 0 48 4l12 -77
q-54 -18 -111 -18q-100 0 -154 52t-54 152q0 105 74 182t179 77q147 0 205.5 -78.5t58.5 -233.5z" />
    <glyph glyph-name="colon" unicode=":" horiz-adv-x="286" 
d="M240 485q0 -15 -41.5 -56.5t-56.5 -41.5t-55.5 41t-40.5 57t40.5 56t55.5 40t56.5 -40t41.5 -56zM240 35q0 -15 -41.5 -56.5t-56.5 -41.5t-55.5 41t-40.5 57t40.5 56t55.5 40t56.5 -40t41.5 -56z" />
    <glyph glyph-name="semicolon" unicode=";" horiz-adv-x="289" 
d="M236 484q0 -15 -41.5 -56.5t-56.5 -41.5t-55.5 41t-40.5 57t40.5 56t55.5 40t56.5 -40t41.5 -56zM250 25q0 -54 -52 -124.5t-112 -108.5l-42 38q71 73 80 120q-22 17 -47 46.5t-25 39.5q0 17 41 57t57 40q19 0 59.5 -41.5t40.5 -66.5z" />
    <glyph glyph-name="less" unicode="&#x3c;" horiz-adv-x="519" 
d="M150 300l335 -179l-42 -79l-438 234v48l438 234l42 -79z" />
    <glyph glyph-name="equal" unicode="=" horiz-adv-x="644" 
d="M562 355h-480v87h480v-87zM562 161h-480v86h480v-86z" />
    <glyph glyph-name="greater" unicode="&#x3e;" horiz-adv-x="519" 
d="M34 121l335 179l-335 179l42 79l438 -234v-48l-438 -234z" />
    <glyph glyph-name="question" unicode="?" horiz-adv-x="379" 
d="M380 547q0 -49 -21 -90t-51 -68.5t-60.5 -51t-51.5 -48t-21 -48.5q0 -16 7 -37l-87 -20q-35 75 -35 99q0 32 21.5 64.5t52 59.5t60.5 52t51.5 51t21.5 49q0 20 -23.5 42t-73.5 22q-24 0 -44 -4.5t-48.5 -15t-44.5 -14.5q-20 31 -20 54q0 77 132 77q96 0 165.5 -53.5
t69.5 -119.5zM238 35q0 -14 -38.5 -52.5t-53.5 -38.5q-14 0 -52 38t-38 53t38 52.5t52 37.5t53 -37.5t39 -52.5z" />
    <glyph glyph-name="at" unicode="@" horiz-adv-x="724" 
d="M341 -137q-150 0 -229.5 84.5t-79.5 248.5q0 117 33.5 207.5t91.5 144t130 80.5t155 27q126 0 198.5 -69t72.5 -219q0 -147 -62 -218t-159 -71q-36 0 -59.5 20t-19.5 57q-20 -30 -51 -50t-60 -20q-46 0 -78.5 34.5t-32.5 100.5q0 97 63 161t152 64q68 0 127 -24l-26 -229
q-6 -45 13 -45q18 0 36.5 9t39 30.5t33 68t12.5 110.5q0 231 -202 231q-68 0 -125 -20t-105 -63t-75.5 -121t-27.5 -185q0 -153 61 -217t183 -64q72 0 148 18l14 -55q-63 -26 -171 -26zM340 170q7 0 14 1t13 3.5t10.5 4.5t10.5 7t8.5 6.5t9.5 7.5t8 7l20 167q-16 4 -26 4
q-60 4 -88 -37.5t-28 -108.5q0 -31 14 -46.5t34 -15.5z" />
    <glyph glyph-name="A" unicode="A" horiz-adv-x="721" 
d="M710 53q0 -34 -6 -53h-299q-7 22 -7 57l60 20q32 9 32 45q0 12 -7 33l-39 120h-233l-46 -119q-6 -16 -6 -29q0 -38 42 -51l66 -19q0 -37 -5 -57h-260q-5 20 -5 54q42 36 56 68l246 575l129 24l225 -596q13 -34 57 -72zM419 351l-56 172l-22 83h-7l-27 -81l-66 -174h178z
" />
    <glyph glyph-name="B" unicode="B" horiz-adv-x="711" 
d="M676 217q0 -99 -71 -158t-213 -59h-350q-6 23 -6 57l49 14q19 5 32 19.5t13 35.5l3 152v315q0 34 -45 49l-47 15q0 31 5 50h316q263 0 263 -179q0 -101 -118 -144v-4q24 -3 49 -11.5t54 -26t47.5 -50t18.5 -75.5zM473 517q0 58 -31.5 84t-102.5 26h-67v-224h77
q71 0 97.5 30t26.5 84zM524 202q0 64 -43.5 92.5t-145.5 28.5h-63v-47l4 -195h98q150 0 150 121z" />
    <glyph glyph-name="C" unicode="C" horiz-adv-x="689" 
d="M650 30q-97 -38 -223 -38q-188 0 -289 88t-101 268q0 158 109 264t277 106q78 0 121 -9.5t100 -33.5v-164q-24 -5 -57 -1q-44 119 -168 119q-108 0 -171.5 -65t-63.5 -206q0 -125 71 -191t188 -66q76 0 179 21z" />
    <glyph glyph-name="D" unicode="D" horiz-adv-x="806" 
d="M767 368q0 -179 -112.5 -273.5t-302.5 -94.5h-309q-6 34 -6 58l54 15q38 9 39 51l3 155v292q0 46 -40 64l-50 19q-2 32 4 53h299q75 0 135 -9t115 -32t91.5 -60.5t58 -97.5t21.5 -140zM614 347q0 133 -69.5 205.5t-201.5 72.5h-69v-347l6 -197h83q251 0 251 266z" />
    <glyph glyph-name="E" unicode="E" horiz-adv-x="664" 
d="M635 171l-25 -171h-570q-6 29 -4 59l52 13q42 11 42 43l3 164v298q0 39 -28 50l-63 26v25q2 22 5 29h549v-164q-23 -4 -63 -4q-9 46 -28.5 64t-53.5 18l-178 5v-230l271 5v-92l-271 5v-36l5 -197l151 4q110 3 145 99z" />
    <glyph glyph-name="F" unicode="F" horiz-adv-x="618" 
d="M595 541q-29 -6 -61 -4q-17 81 -90 82l-172 7v-251l275 6v-93l-275 5v-17l3 -150q2 -36 25 -41l109 -22q0 -40 -7 -63h-359q-5 21 -5 56l55 16q16 4 26 19.5t10 34.5l3 153v302q0 36 -29 48l-61 22q0 39 4 56h549v-166z" />
    <glyph glyph-name="G" unicode="G" horiz-adv-x="719" 
d="M427 -8q-188 0 -289 88t-101 268q0 158 109 264t277 106q79 0 127.5 -10.5t109.5 -35.5v-165q-22 -2 -57 0q-46 123 -184 123q-107 0 -171 -68t-64 -210q0 -68 21.5 -119t60.5 -81t88 -45t110 -16q36 0 58 5v200h140v-264q-99 -40 -235 -40z" />
    <glyph glyph-name="H" unicode="H" horiz-adv-x="875" 
d="M844 55q0 -35 -6 -55h-320q-5 23 -5 53l56 20q38 13 38 62l2 143v36h-341v-36l3 -164q1 -20 8 -28.5t28 -13.5l72 -18q0 -36 -6 -54h-328q-5 28 -4 52l50 19q21 8 28.5 20.5t8.5 41.5l1 145v312q0 40 -33 51l-52 18q0 32 5 48h297q6 -23 4 -49l-50 -15
q-17 -5 -24.5 -16.5t-7.5 -34.5v-197h341v190q0 47 -37 58l-47 16q-3 27 1 48h296q3 -20 1 -49l-46 -15q-16 -6 -22.5 -14.5t-6.5 -27.5v-323l3 -154q0 -42 22 -48z" />
    <glyph glyph-name="I" unicode="I" horiz-adv-x="403" 
d="M367 61q0 -41 -6 -61h-314q-6 24 -4 54l43 15q43 16 44 61l3 148v294q0 48 -51 66l-37 16q-2 34 2 53h308q4 -27 0 -59l-43 -10q-39 -10 -39 -63v-297l2 -170q1 -16 6 -22t19 -10z" />
    <glyph glyph-name="J" unicode="J" horiz-adv-x="384" 
d="M357 651l-47 -12q-24 -6 -31 -14t-7 -30v-501q0 -53 -20 -97t-57 -77t-74 -55t-87 -45l-44 78q87 53 114 99t27 149v419q0 57 -48 74l-44 15q0 39 5 53h310q5 -26 3 -56z" />
    <glyph glyph-name="K" unicode="K" horiz-adv-x="753" 
d="M41 0q-5 23 -3 54l47 15q18 6 30.5 22.5t13.5 38.5l3 148v298q0 21 -13 37t-30 23l-45 18q-2 35 3 53h307q4 -32 0 -57l-46 -14q-36 -10 -36 -60v-295l2 -171q0 -16 4.5 -22.5t17.5 -9.5l63 -17q0 -38 -7 -61h-311zM746 -16q-153 3 -225 83l-246 270v29l215 202
q17 14 17 33q0 28 -19 35l-36 15q0 36 5 56h264v-47l-315 -271l183 -189q98 -102 171 -145z" />
    <glyph glyph-name="L" unicode="L" horiz-adv-x="617" 
d="M616 199l-32 -199h-542q-5 26 -3 56l47 13q18 6 30.5 21t12.5 36l3 151v299q0 21 -13 37t-29 23l-47 18q0 37 4 53h308q2 -42 -1 -59l-45 -11q-37 -9 -37 -48v-311l4 -196l153 9q40 2 73.5 39t49.5 80z" />
    <glyph glyph-name="M" unicode="M" horiz-adv-x="1051" 
d="M706 707h253q6 -29 4 -53l-49 -13q-47 -14 -36 -75l81 -451q6 -31 34 -41l51 -22q0 -37 -4 -52h-309q-4 30 -4 50l32 11q25 8 35.5 36.5t7.5 60.5q0 18 -6 48l-35 254l-10 85h-5l-185 -534l-115 -30l-185 569h-6l-9 -81l-55 -354q-5 -28 11 -32l88 -30q0 -42 -4 -53h-272
q-6 28 -4 50l36 18q20 10 34.5 32t18.5 46l82 437q4 17 -4.5 30.5t-23.5 18.5l-64 21q0 39 4 54h266l123 -374l39 -132h9l43 136z" />
    <glyph glyph-name="N" unicode="N" horiz-adv-x="844" 
d="M821 661l-53 -23q-18 -8 -29.5 -27t-11.5 -42v-563l-108 -29l-397 552h-7l6 -80v-176l3 -155q0 -19 4 -26t20 -12l85 -25q0 -41 -5 -55h-293q-6 29 -4 53l51 15q22 6 34.5 31t13.5 56l2 118v308q0 36 -29 51l-61 27q0 41 2 48h221l374 -512h7l-7 105v268q0 46 -37 64
l-63 27q0 37 4 48h274q4 -30 4 -46z" />
    <glyph glyph-name="O" unicode="O" horiz-adv-x="821" 
d="M783 382q0 -167 -105.5 -280.5t-281.5 -113.5q-175 0 -266.5 87t-91.5 248q0 169 109.5 282t280.5 113q178 0 266.5 -89t88.5 -247zM624 358q0 122 -51 195.5t-160 73.5q-59 0 -102 -21.5t-67 -60.5t-35.5 -87t-11.5 -106q0 -121 49.5 -196t159.5 -75q218 0 218 277z" />
    <glyph glyph-name="P" unicode="P" horiz-adv-x="695" 
d="M677 497q0 -105 -76.5 -172t-209.5 -67h-56v72l31 1q157 4 157 150q0 141 -155 145l-95 2v-355l3 -152q0 -34 22 -38l102 -24q0 -45 -5 -59h-352q-5 34 -3 55l51 14q17 4 27.5 21t11.5 41l3 142v315q0 30 -24 40l-68 26q-1 8 0.5 26t4.5 27h389q111 0 176.5 -52
t65.5 -158z" />
    <glyph glyph-name="Q" unicode="Q" horiz-adv-x="820" 
d="M728 -194q-58 0 -122 48l-173 136q-12 -2 -37 -2q-175 0 -266.5 87t-91.5 248q0 169 109.5 282t280.5 113q178 0 266.5 -89t88.5 -247q0 -127 -63.5 -227t-175.5 -142l105 -62q52 -35 107 -35q37 0 110 17l15 -72q-76 -55 -153 -55zM406 81q218 0 218 277
q0 122 -51 195.5t-160 73.5q-59 0 -102 -21.5t-67 -60.5t-35.5 -87t-11.5 -106q0 -121 49.5 -196t159.5 -75z" />
    <glyph glyph-name="R" unicode="R" horiz-adv-x="778" 
d="M791 56l-8 -69q-26 -2 -42 -1q-124 4 -207 80q-81 74 -150 224q-8 -2 -33 -2h-78l4 -175q0 -27 19 -32l70 -20q0 -50 -4 -61h-315q-5 34 -3 55l48 14q37 10 39 62l3 142v319q0 26 -24 36l-68 26q-1 8 0.5 26t4.5 27h356q55 0 100.5 -11t81.5 -33.5t56.5 -62.5t20.5 -93
q0 -58 -33 -109.5t-92 -77.5q47 -90 106 -160q40 -45 74 -70t74 -34zM506 495q0 132 -170 132l-63 1v-264h81q80 1 116 32t36 99z" />
    <glyph glyph-name="S" unicode="S" horiz-adv-x="606" 
d="M569 203q0 -54 -26.5 -96.5t-70 -67.5t-94.5 -37.5t-105 -12.5q-59 0 -125.5 13.5t-113.5 39.5l15 176h65q6 -69 56.5 -109t122.5 -40q131 0 131 89q0 25 -22 46.5t-43.5 32t-73.5 32.5q-6 3 -9 4q-46 19 -75.5 35t-65 42.5t-53.5 62.5t-18 80q0 93 78 157.5t182 64.5
q52 0 113.5 -11.5t102.5 -32.5v-156h-56q-12 55 -59.5 86t-105.5 31q-54 0 -89 -21.5t-35 -63.5q0 -20 9 -36t33 -31t45 -25t67 -29q34 -15 53 -23.5t49.5 -24.5t47.5 -32t35.5 -37.5t26.5 -48t8 -57.5z" />
    <glyph glyph-name="T" unicode="T" horiz-adv-x="699" 
d="M686 707v-185q-27 -8 -57 -3q-19 98 -94 102l-116 4v-352l5 -159q0 -19 3.5 -26t17.5 -10l89 -18q0 -45 -4 -60h-359q-6 31 -4 60l68 19q16 5 28 26.5t13 42.5l3 125v352l-125 -4q-64 -3 -83 -102q-7 -2 -27.5 -1t-30.5 4v185h673z" />
    <glyph glyph-name="U" unicode="U" horiz-adv-x="811" 
d="M790 652l-50 -16q-9 -3 -13.5 -6t-9 -11.5t-4.5 -22.5v-327q0 -63 -19.5 -113t-50 -80.5t-71.5 -50.5t-80.5 -28t-79.5 -8q-47 0 -85 4.5t-81.5 20.5t-72.5 42t-48.5 74t-19.5 112v339q0 17 -8 32t-21 20l-57 21q0 38 4 53h317q2 -10 2.5 -29.5t-0.5 -28.5l-63 -12
q-26 -5 -26 -32v-343q0 -54 17 -92.5t45.5 -57.5t58.5 -27t64 -8q164 0 164 209v287q0 52 -56 68l-43 13q0 49 1 53h282q6 -30 4 -55z" />
    <glyph glyph-name="V" unicode="V" horiz-adv-x="715" 
d="M302 -21l-231 605q-16 41 -34 52l-34 21q0 30 5 50h301q7 -27 7 -58l-53 -13q-32 -9 -32 -39q0 -15 6 -31l144 -403l162 381q6 14 6 36q-1 37 -33 51l-50 21q0 39 5 55h258q6 -20 4 -52l-31 -17q-28 -16 -44 -57l-252 -575z" />
    <glyph glyph-name="W" unicode="W" horiz-adv-x="1083" 
d="M860 707h235q6 -24 4 -52l-26 -14q-27 -15 -44 -57l-223 -579l-103 -26l-157 421l-186 -395l-101 -26l-185 612q-7 27 -30 42l-41 24q0 34 5 50h296q4 -36 3 -55l-48 -16q-29 -11 -29 -48q1 -14 6 -31l109 -395l161 345l-26 81q-10 19 -13 21q-2 7 -19.5 25.5t-20.5 22.5
q0 34 3 50h274q7 -24 5 -55l-37 -16q-30 -16 -30 -47q0 -15 6 -32l134 -396l137 389q7 18 7 35q0 38 -28 49l-44 18q0 36 6 55z" />
    <glyph glyph-name="X" unicode="X" horiz-adv-x="714" 
d="M709 50q0 -36 -5 -50h-294q-4 33 -3 50l37 23q28 16 3 52l-106 152l-119 -145q-11 -12 -11 -31q0 -18 13 -24l54 -27q0 -36 -5 -50h-265q-4 33 -3 50l29 18q36 23 83 78l170 204l-173 222q-32 40 -86 84q-4 26 0 51h275q4 -33 3 -51l-37 -18q-10 -5 -11 -17.5t11 -30.5
l100 -142l112 136q11 13 10.5 29t-11.5 22l-40 22q0 42 3 50h244q3 -23 1 -50q-55 -23 -99 -77l-165 -203l188 -236q40 -49 97 -91z" />
    <glyph glyph-name="Y" unicode="Y" horiz-adv-x="679" 
d="M430 707h251q5 -23 5 -52q-44 -23 -69 -60l-208 -313l3 -166q0 -34 29 -40l66 -17q0 -36 -7 -59h-321q-6 24 -6 57l50 13q18 5 30.5 20t12.5 36l3 148l-207 316q-21 32 -63 67q-2 32 2 50h288q5 -27 5 -55l-43 -17q-28 -10 -28 -41q0 -20 11 -37l133 -208l131 205
q10 16 9 31q0 27 -32 44l-48 23q-2 30 3 55z" />
    <glyph glyph-name="Z" unicode="Z" horiz-adv-x="649" 
d="M619 200l-24 -200h-541l-23 72l375 550l-200 -4q-41 -3 -58 -27.5t-27 -77.5q-13 -3 -34 -3q-29 3 -34 4v193h531l17 -54l-386 -565l229 9q72 6 111 115z" />
    <glyph glyph-name="bracketleft" unicode="[" horiz-adv-x="290" 
d="M256 -220h-180v1044h180v-77h-92v-890h92v-77z" />
    <glyph glyph-name="backslash" unicode="\" horiz-adv-x="315" 
d="M231 -62l-236 831h88l237 -831h-89z" />
    <glyph glyph-name="bracketright" unicode="]" horiz-adv-x="290" 
d="M214 -220h-180v77h93v890h-93v77h180v-1044z" />
    <glyph glyph-name="asciicircum" unicode="^" horiz-adv-x="542" 
d="M487 294h-92l-118 325l-134 -325h-89l174 413h99z" />
    <glyph glyph-name="underscore" unicode="_" horiz-adv-x="500" 
d="M500 -164h-500v79h500v-79z" />
    <glyph glyph-name="grave" unicode="`" horiz-adv-x="573" 
d="M154 758l69 81q99 -100 208 -176l-34 -52q-117 53 -243 147z" />
    <glyph glyph-name="a" unicode="a" horiz-adv-x="573" 
d="M570 47q-24 -22 -64.5 -38.5t-69.5 -16.5q-53 0 -73 20t-23 66q-84 -87 -174 -87q-66 0 -104.5 32t-38.5 94q0 147 209 177q75 10 105 12v63q0 43 -24.5 61.5t-88.5 18.5q-60 0 -142 -21l-24 95q95 36 193 36q33 0 56 -1t57 -9t55 -23t37 -45.5t16 -72.5v-135l7 -183h84z
M337 128v111q-55 -6 -81 -11q-95 -19 -95 -79q0 -23 15.5 -37t45.5 -14q35 0 115 30z" />
    <glyph glyph-name="b" unicode="b" horiz-adv-x="618" 
d="M582 290q0 -129 -83.5 -213.5t-210.5 -84.5q-132 0 -218 26l6 262v398h-93v61q115 25 177 25q29 0 39.5 -10t10.5 -40v-435l5 -188q44 -7 76 -7q71 0 108 55.5t37 143.5q0 87 -28.5 134.5t-95.5 47.5q-28 0 -60 -4l-14 66q16 9 47.5 18t56.5 9q123 0 181.5 -58t58.5 -206
z" />
    <glyph glyph-name="c" unicode="c" horiz-adv-x="530" 
d="M502 464q0 -25 -15 -48.5t-43 -35.5q-29 32 -46 48t-44 31t-54 15q-56 0 -90.5 -46.5t-34.5 -141.5q0 -190 166 -190q42 0 131 17l23 -72q-81 -53 -197 -53q-139 0 -201 67t-62 192q0 146 77 229t219 83q29 0 56.5 -4.5t54.5 -14.5t43.5 -29.5t16.5 -46.5z" />
    <glyph glyph-name="d" unicode="d" horiz-adv-x="644" 
d="M634 41q-88 -49 -168 -49q-35 0 -50 24.5t-15 57.5q-71 -81 -148 -81q-217 0 -217 259q0 135 80 216.5t201 81.5q47 0 87 -5v133h-93v65q103 21 176 21q30 0 41 -10t11 -40v-435l4 -188h81zM404 280v184q-48 11 -90 11q-135 0 -135 -211q0 -160 124 -160q46 0 97 24z" />
    <glyph glyph-name="e" unicode="e" horiz-adv-x="568" 
d="M535 257h-359q4 -92 47.5 -125t125.5 -33q74 0 152 18l23 -75q-99 -53 -217 -53q-273 0 -273 253q0 141 75 229t202 88q114 0 169 -71t55 -190v-41zM389 324q0 159 -95 159q-54 0 -86.5 -45t-34.5 -114h216z" />
    <glyph glyph-name="f" unicode="f" horiz-adv-x="410" 
d="M511 689q0 -57 -56 -82q-66 80 -100 80q-103 0 -103 -106v-37h119v-73h-119v-191l5 -164q0 -30 32 -36l108 -21q0 -31 -7 -59h-354q-5 25 -5 54l46 15q35 13 35 63l3 148v191h-80v58l80 16v17q0 81 71 143t155 62q70 0 120 -18.5t50 -59.5z" />
    <glyph glyph-name="g" unicode="g" horiz-adv-x="610" 
d="M602 450h-105q13 -28 13 -71q0 -82 -64 -132.5t-166 -50.5q-67 0 -115 18v-89h180q127 0 176.5 -35.5t49.5 -105.5q0 -97 -92.5 -152t-229.5 -55q-60 0 -106.5 10t-80.5 39t-34 75q0 40 26.5 70.5t61.5 47.5q-20 0 -39.5 16t-19.5 47q0 58 67 150q-71 44 -71 133
q0 80 59.5 136.5t167.5 56.5q107 0 164 -42l158 36v-102zM370 372q0 51 -23.5 82.5t-66.5 31.5q-52 0 -75 -32t-23 -80q0 -108 95 -108q45 0 69 28.5t24 77.5zM435 -43q0 29 -23.5 41.5t-73.5 12.5h-168q-29 -29 -29 -61q0 -40 36 -64.5t113 -24.5q68 0 106.5 26t38.5 70z
" />
    <glyph glyph-name="h" unicode="h" horiz-adv-x="697" 
d="M683 58q0 -38 -7 -58h-271q-5 33 -3 56l38 17q21 10 23 45l2 156v64q0 64 -15.5 92t-72.5 28q-79 0 -142 -28v-156l3 -158q0 -33 17 -40l58 -18q0 -38 -5 -58h-282q-7 28 -5 53l48 18q27 9 27 50l3 153v406h-87v63q99 22 181 22q21 0 30 -8.5t9 -26.5v-241q93 69 191 69
q50 0 84 -9.5t52.5 -23t28 -40t11.5 -48.5t2 -60v-103l3 -173q1 -24 16 -28z" />
    <glyph glyph-name="i" unicode="i" horiz-adv-x="363" 
d="M35 0q-4 19 -4 56l61 19q27 7 27 44l3 154v197h-92v65q99 22 180 22q25 0 36.5 -9.5t11.5 -34.5v-240l2 -161q1 -32 17 -36l74 -18q0 -39 -6 -58h-310zM187 636q-15 0 -51.5 37.5t-36.5 50.5q0 15 36.5 51.5t51.5 36.5q12 0 50.5 -37.5t38.5 -50.5q0 -11 -37.5 -49.5
t-51.5 -38.5z" />
    <glyph glyph-name="j" unicode="j" horiz-adv-x="312" 
d="M18 -225q-54 0 -90 18l33 106q34 -18 76 -18q35 0 50.5 23.5t15.5 76.5v489h-89v65q99 22 178 22q25 0 36 -9.5t11 -34.5v-240l1 -229q1 -103 -72.5 -186t-149.5 -83zM170 636q-14 0 -50.5 37.5t-36.5 51.5q0 15 36.5 51.5t50.5 36.5q13 0 51 -37.5t38 -50.5
q0 -11 -37.5 -50t-51.5 -39z" />
    <glyph glyph-name="k" unicode="k" horiz-adv-x="631" 
d="M629 53l-14 -70q-88 5 -145.5 33.5t-104.5 93.5l-123 163l2 -147q2 -39 22 -52l30 -20q0 -35 -6 -54h-269q-4 22 -3 53l56 18q29 9 29 49l3 154v404h-90v65q94 21 179 21q24 0 35.5 -10t11.5 -34v-431l157 144q14 11 14 26q0 20 -16 25l-37 17q0 30 4 45h218v-47
l-210 -180l113 -142q81 -102 144 -124z" />
    <glyph glyph-name="l" unicode="l" horiz-adv-x="348" 
d="M335 58q0 -38 -5 -58h-309q-4 24 -4 53l57 17q28 9 28 46l4 158v404h-90v65q88 21 179 21q24 0 35.5 -10t11.5 -34v-446l3 -163q2 -32 14 -35z" />
    <glyph glyph-name="m" unicode="m" horiz-adv-x="1061" 
d="M1049 57q0 -37 -7 -57h-270q-6 25 -4 57l36 17q22 12 22 43l3 156v65q0 33 -2 50.5t-10 36t-26.5 26t-48.5 7.5q-73 0 -135 -25q0 -4 0.5 -27.5t0.5 -28.5v-103l3 -172q0 -25 14 -29l70 -16q0 -40 -6 -57h-272q-5 31 -4 56l36 16q19 10 21 39l3 162v65q0 33 -2 50.5
t-10 36t-26 26t-48 7.5q-75 0 -135 -29v-155l2 -159q0 -35 15 -38l63 -18q0 -39 -5 -59h-287q-4 15 -4 53l47 17q30 11 30 48l2 156v196h-85v65q95 21 179 21q21 0 30 -8.5t9 -27.5v-31q28 20 46.5 32t57 24.5t80.5 12.5q136 0 163 -71q98 71 193 71q42 0 72.5 -5.5
t49.5 -18.5t30.5 -26.5t16.5 -37.5t6.5 -42.5t1.5 -50.5v-103l3 -172q0 -25 16 -29z" />
    <glyph glyph-name="n" unicode="n" horiz-adv-x="711" 
d="M698 57q0 -40 -6 -57h-268q-5 33 -3 56l32 17q23 12 23 44l3 157v63q0 64 -16 92t-73 28q-80 0 -138 -28v-155l2 -161q0 -32 15 -37l62 -18q0 -42 -5 -58h-285q-4 32 -3 53l47 18q28 11 28 47l3 156v196h-87v65q95 21 181 21q21 0 29.5 -8.5t8.5 -27.5v-31q93 69 188 69
q42 0 73 -5.5t50 -18.5t31 -26.5t17 -37.5t6.5 -43t1.5 -50v-103l3 -176q1 -23 14 -25z" />
    <glyph glyph-name="o" unicode="o" horiz-adv-x="608" 
d="M575 277q0 -112 -81 -200t-197 -88q-127 0 -195.5 69t-68.5 208q0 112 81 202.5t192 90.5q269 0 269 -282zM428 274q0 199 -133 199q-30 0 -52.5 -13t-34.5 -32t-19 -48t-9 -52.5t-2 -53.5q0 -195 135 -195q35 0 58.5 15.5t35.5 44t16.5 61t4.5 74.5z" />
    <glyph glyph-name="p" unicode="p" horiz-adv-x="646" 
d="M610 284q0 -82 -24.5 -141.5t-67.5 -91t-92.5 -45.5t-109.5 -14q-40 0 -69 3l3 -98q0 -32 33 -41l74 -15q0 -37 -8 -61h-321q-7 31 -7 57l37 13q42 14 42 61l4 360v199h-91v63q105 23 182 23q42 0 42 -41v-19q62 60 136 60q116 0 176.5 -62.5t60.5 -209.5zM464 265
q0 88 -31 144.5t-93 56.5q-44 0 -99 -26v-171l3 -195q38 -8 76 -8q72 0 108 55.5t36 143.5z" />
    <glyph glyph-name="q" unicode="q" horiz-adv-x="611" 
d="M624 -160q0 -42 -4 -60h-314q-3 14 -3 57l51 14q39 11 41 72l3 138q-24 -21 -39 -32t-43.5 -23t-56.5 -12q-46 0 -81.5 10.5t-70 37.5t-53 82.5t-18.5 137.5q0 134 80.5 215t200.5 81q124 0 222 -31v-306l5 -333q1 -18 7 -25t21 -11zM402 274v191q-55 13 -87 13
q-137 0 -137 -215q0 -86 30.5 -124t92.5 -38q51 0 98 18z" />
    <glyph glyph-name="r" unicode="r" horiz-adv-x="490" 
d="M494 535l-39 -120q-40 22 -88 22q-77 0 -112 -28v-134l4 -162q0 -22 13 -25l120 -25q0 -48 -6 -63h-347q-5 24 -5 55l45 17q20 7 28.5 19t9.5 37l2 147v196h-90v65q114 21 178 21q45 0 45 -39v-40q23 32 61.5 55.5t83.5 23.5q57 0 97 -22z" />
    <glyph glyph-name="s" unicode="s" horiz-adv-x="500" 
d="M464 161q0 -62 -38 -102.5t-88.5 -55.5t-110.5 -15q-98 0 -194 43l9 149l54 -1q7 -54 44.5 -83.5t94.5 -29.5q93 0 93 56q0 19 -14.5 34t-30.5 23t-59 26q-10 5 -16 7q-70 29 -111 68t-41 109q0 83 60.5 126t152.5 43t185 -41l-19 -140l-49 6q-8 39 -39 67t-87 28
q-42 0 -62 -15t-20 -37q0 -9 2.5 -17t9 -15t12 -12t19 -11.5t21 -10t27 -12t29.5 -12.5q39 -16 63 -29t50.5 -33.5t39.5 -48.5t13 -64z" />
    <glyph glyph-name="t" unicode="t" horiz-adv-x="458" 
d="M424 114l18 -71q-77 -54 -186 -54q-87 0 -124 38t-36 134l3 298h-80v53l190 146h29v-112h183v-87h-183v-183l4 -113q1 -34 20 -49t61 -15q45 0 101 15z" />
    <glyph glyph-name="u" unicode="u" horiz-adv-x="689" 
d="M670 91l10 -58q-80 -40 -148 -40q-80 0 -84 80q-91 -84 -181 -84q-39 0 -68 5.5t-47 18.5t-29 26.5t-16 36t-6.5 40t-1.5 45.5v309h-85v60q117 26 159 26q63 0 63 -55v-210l1 -104q1 -49 14 -72t51 -23q61 0 140 43l4 138v197h-83v60q87 26 155 26q64 0 64 -55v-229
l5 -181h83z" />
    <glyph glyph-name="v" unicode="v" horiz-adv-x="546" 
d="M219 -24l-166 450q-11 32 -47 58q0 35 5 62h242q0 -63 -2 -69h-65l110 -334l112 274q9 20 -5 37q-7 15 -33 25q0 1 -6.5 10t-6.5 14q0 28 5 43h189q0 -52 -1 -56q-33 -33 -55 -86l-174 -400z" />
    <glyph glyph-name="w" unicode="w" horiz-adv-x="860" 
d="M560 -20l-135 360l-129 -338l-105 -22l-134 442q-8 26 -17.5 37.5t-29.5 23.5q0 37 6 63h243q0 -58 -3 -69h-69l83 -330l130 383l95 25l141 -408l85 283q3 13 -3.5 26.5t-19.5 19.5l-30 11q0 1 -0.5 9.5t-0.5 14.5q0 22 4 35h190v-53q-36 -27 -57 -86l-144 -407z" />
    <glyph glyph-name="x" unicode="x" 
d="M582 60q0 -41 -7 -60h-240q-5 25 -5 53l9 5q17 8 17 29q0 12 -10 25l-70 92l-86 -113q-5 -8 -5 -12q0 -7 10 -9l53 -12q0 -37 -8 -58h-215q-5 25 -5 54q35 16 57 40l153 167l-130 169q-18 22 -32 33.5t-39 23.5q0 4 -0.5 13t-0.5 14q0 17 3 32h248q0 -62 -3 -69h-52
l103 -137l77 92q10 13 10 25q0 13 -11 19l-24 16q0 30 5 54h190q0 -35 -5 -51q-8 -2 -26.5 -16.5t-33.5 -30.5l-142 -159l153 -182q14 -17 24.5 -25t37.5 -22z" />
    <glyph glyph-name="y" unicode="y" horiz-adv-x="559" 
d="M560 546q0 -53 -1 -58q-34 -19 -60 -82l-215 -513q-35 -85 -131 -130l-78 112q59 24 97 57q33 25 48 56l-157 440q-11 31 -67 57q0 39 5 61h260q0 -64 -1 -69h-68l114 -348l107 288q6 16 0.5 32.5t-18.5 22.5q-3 3 -10 5.5t-14.5 4t-8.5 2.5v9q-1 9 -1 16q0 24 4 37h195z
" />
    <glyph glyph-name="z" unicode="z" horiz-adv-x="552" 
d="M530 175l-33 -175h-448l-22 58l330 384h-200q-16 0 -32 -12t-24 -21.5t-26 -34.5q-31 10 -40 18l41 154h410l6 -77l-309 -364h190q30 0 61.5 26.5t48.5 57.5q29 -5 47 -14z" />
    <glyph glyph-name="braceleft" unicode="{" horiz-adv-x="324" 
d="M314 -220h-30q-43 -1 -79 7t-67 26t-46 54t-9 86l20 220q4 36 -17.5 62t-67.5 26v78q44 0 67 35t19 74l-20 209q-16 167 196 165h35l-1 -71h-32q-62 0 -92 -23.5t-24 -73.5l20 -194q6 -57 -14 -99.5t-54 -57.5q76 -35 66 -139l-21 -213q-5 -48 25 -71.5t93 -23.5h32z" />
    <glyph glyph-name="bar" unicode="|" horiz-adv-x="245" 
d="M168 -220h-92v974h92v-974z" />
    <glyph glyph-name="braceright" unicode="}" horiz-adv-x="324" 
d="M306 261q-46 0 -67.5 -26t-17.5 -62l20 -220q6 -50 -9 -86t-46 -54t-67 -26t-79 -7h-30l1 76h32q63 0 93 24t25 71l-21 213q-5 52 13.5 88t52.5 51q-34 15 -54 57.5t-14 99.5l20 194q5 50 -24.5 73.5t-91.5 23.5h-32l-1 71h34q44 0 78.5 -7t64.5 -24t44.5 -51t9.5 -83
l-20 -209q-4 -39 19 -74t67 -35v-78z" />
    <glyph glyph-name="asciitilde" unicode="~" horiz-adv-x="537" 
d="M502 364q-23 -36 -57.5 -61.5t-70.5 -25.5q-54 0 -118.5 26.5t-99.5 26.5q-50 0 -90 -26l-37 41q19 29 57.5 57t75.5 28q52 0 111.5 -27t100.5 -27q51 0 88 29z" />
    <glyph glyph-name="uni00A0" unicode="&#xa0;" horiz-adv-x="239" 
 />
    <glyph glyph-name="exclamdown" unicode="&#xa1;" horiz-adv-x="277" 
d="M230 505q0 -15 -37.5 -53t-51.5 -38q-15 0 -53.5 38t-38.5 53q0 14 38.5 52.5t53.5 38.5q14 0 51.5 -38.5t37.5 -52.5zM218 -160l-80 -41l-81 41l32 495h98z" />
    <glyph glyph-name="cent" unicode="&#xa2;" horiz-adv-x="535" 
d="M502 475q0 -67 -58 -95q-80 95 -132 95q-69 0 -103.5 -45.5t-34.5 -154.5q0 -82 41.5 -129t123.5 -47q65 0 132 14l23 -72q-76 -44 -155 -49v-159h-60v158q-133 4 -188.5 71t-55.5 216q0 102 66.5 183.5t177.5 95.5v147h60v-145q67 -4 115 -24t48 -60z" />
    <glyph glyph-name="sterling" unicode="&#xa3;" horiz-adv-x="597" 
d="M564 78q-15 -33 -45.5 -55.5t-72.5 -22.5h-408q-3 17 -3 56l41 12q27 9 36.5 23.5t11.5 45.5l16 150h-76v62h83l6 57q8 81 80.5 143t155.5 62q149 0 149 -76q0 -46 -51 -72q-5 5 -21.5 20.5t-26 23.5t-22.5 16t-22 8q-94 0 -104 -106l-7 -76h161v-62h-167l-19 -187l198 9
q28 1 52 24z" />
    <glyph glyph-name="currency" unicode="&#xa4;" horiz-adv-x="523" 
d="M89 102l-50 49l63 63q-39 46 -39 109q0 66 38 110l-62 62l49 49l69 -69q50 26 103 26q60 0 104 -25l68 69l50 -50l-62 -63q38 -43 38 -109q0 -65 -40 -110l64 -62l-50 -50l-68 69q-50 -24 -104 -24q-58 0 -101 25zM260 237q44 0 65.5 24t21.5 62t-22 63t-65 25t-65 -25
t-22 -63q0 -37 22.5 -61.5t64.5 -24.5z" />
    <glyph glyph-name="yen" unicode="&#xa5;" horiz-adv-x="669" 
d="M638 526l-22 -55q-38 -6 -46 -17q-38 -46 -81 -106h114v-59h-156q-30 -42 -51 -75v-18h207v-59h-207v-20l11 -117h-162l10 119v18h-192v59h192v14q-21 40 -46 79h-146v59h108q-33 48 -64 90q-19 25 -63 37l-5 55q94 26 156 26q22 -25 74 -119.5t81 -157.5
q142 238 169 275q56 -2 119 -28z" />
    <glyph glyph-name="brokenbar" unicode="&#xa6;" horiz-adv-x="236" 
d="M165 392h-95v362h95v-362zM165 -220h-95v361h95v-361z" />
    <glyph glyph-name="section" unicode="&#xa7;" horiz-adv-x="524" 
d="M492 547q0 -39 -32 -71q-4 3 -15.5 12t-19 14.5t-17.5 12t-17.5 10t-13.5 3.5q-24 0 -38 -16t-14 -43q0 -12 53 -152t53 -160q0 -99 -82 -171t-201 -72q-44 0 -78 17.5t-34 52.5q0 39 33 59l13 -10q13 -10 24 -18t24 -15.5t17 -7.5q41 0 41 79q0 19 -49.5 144t-49.5 161
q0 99 84.5 166t209.5 67q109 0 109 -62zM339 124q0 29 -55 163t-55 168q0 41 11 60l-3 3q-57 -35 -57 -103q0 -27 55 -164.5t55 -167.5q0 -52 -18 -86l2 -2q65 46 65 129z" />
    <glyph glyph-name="dieresis" unicode="&#xa8;" horiz-adv-x="512" 
d="M142 643q-11 0 -41.5 31t-30.5 42q0 12 30.5 42.5t41.5 30.5q12 0 43 -31t31 -42q0 -10 -30.5 -41.5t-43.5 -31.5zM370 643q-11 0 -41.5 31t-30.5 42q0 12 30.5 42.5t41.5 30.5t42.5 -31t31.5 -42q0 -10 -30.5 -41.5t-43.5 -31.5z" />
    <glyph glyph-name="copyright" unicode="&#xa9;" horiz-adv-x="682" 
d="M646 269q0 -137 -86 -215.5t-217 -78.5q-54 0 -105.5 15.5t-98 47.5t-75 92t-28.5 139q0 138 87 218.5t218 80.5q58 0 110 -17t97 -51t71.5 -93.5t26.5 -137.5zM585 269q0 120 -70.5 182t-171.5 62q-107 0 -175.5 -59t-68.5 -180q0 -60 18.5 -106t45.5 -71.5t63 -41.5
t65 -21t58 -5q105 0 170.5 63t65.5 177zM465 120q-50 -18 -104 -18q-93 0 -138 41.5t-45 131.5q0 79 49 129t128 50q55 0 106 -22v-81q-17 -2 -40 0q-21 53 -68 53q-84 0 -84 -124q0 -54 25.5 -83.5t72.5 -29.5q46 0 83 8z" />
    <glyph glyph-name="ordfeminine" unicode="&#xaa;" horiz-adv-x="432" 
d="M391 412q-15 -14 -38.5 -24t-41.5 -10q-34 0 -49 12t-17 40q-47 -53 -103 -53q-40 0 -63.5 19t-23.5 57q0 88 127 106q36 6 61 8v35q0 24 -12.5 32.5t-52.5 8.5q-34 0 -87 -12l-15 66q51 20 118 20q140 3 140 -93v-77l4 -109h49zM372 275h-314v63h314v-63zM244 460v65
q-20 0 -49 -6q-53 -12 -53 -44q0 -13 9 -22t26 -9q19 0 67 16z" />
    <glyph glyph-name="guillemotleft" unicode="&#xab;" horiz-adv-x="471" 
d="M435 469q-41 -129 -88 -198q55 -106 81 -201q-44 -9 -73 -16q-27 76 -118 218q95 130 129 213q38 -8 69 -16zM230 483q-44 -139 -93 -212q57 -112 86 -213q-44 -8 -74 -15q-27 82 -122 229q94 128 134 227q38 -8 69 -16z" />
    <glyph glyph-name="logicalnot" unicode="&#xac;" horiz-adv-x="575" 
d="M521 141h-99v149h-381v86h480v-235z" />
    <glyph glyph-name="registered" unicode="&#xae;" horiz-adv-x="548" 
d="M513 531q0 -105 -67 -164.5t-170 -59.5q-43 0 -83 12t-76.5 36.5t-59 70t-22.5 105.5q0 107 68 168t172 61q45 0 85.5 -12.5t75.5 -38.5t56 -72t21 -106zM460 531q0 90 -54 137t-130 47q-82 0 -134 -44.5t-52 -135.5q0 -45 14 -79t34.5 -53.5t48 -31.5t50 -15.5
t44.5 -3.5q79 0 129 47t50 132zM401 447l-7 -36q-57 1 -84 26q-16 14 -48 71q-2 -1 -16 -1l2 -91h-70l2 100v150l98 1q43 0 68 -20.5t25 -59.5q0 -47 -42 -69q19 -31 35 -46q14 -15 37 -25zM304 586q0 22 -9 32t-33 10h-16v-85h13q45 0 45 43z" />
    <glyph glyph-name="macron" unicode="&#xaf;" horiz-adv-x="540" 
d="M428 686h-303v81h303v-81z" />
    <glyph glyph-name="degree" unicode="&#xb0;" horiz-adv-x="406" 
d="M380 584q0 -69 -52.5 -115.5t-125.5 -46.5q-173 0 -173 134q0 68 53 114.5t124 46.5q75 0 124.5 -33.5t49.5 -99.5zM279 570q0 38 -21.5 58.5t-57.5 20.5q-33 0 -52 -21.5t-19 -57.5q0 -81 80 -81q70 0 70 81z" />
    <glyph glyph-name="plusminus" unicode="&#xb1;" horiz-adv-x="548" 
d="M514 0h-480v86h480v-86zM321 417l184 2v-86l-184 2l2 -187h-98l2 187l-184 -2v86l184 -2l-2 187h98z" />
    <glyph glyph-name="twosuperior" unicode="&#xb2;" horiz-adv-x="306" 
d="M287 415h-274v66q164 124 164 177q0 42 -45 42q-42 0 -76 -23l-35 69q53 40 126 40q67 0 100 -34t33 -83q0 -88 -137 -172h144v-82z" />
    <glyph glyph-name="threesuperior" unicode="&#xb3;" horiz-adv-x="303" 
d="M282 526q0 -61 -41.5 -88.5t-109.5 -27.5q-63 0 -117 18l18 76q48 -12 90 -12q57 0 57 41q0 27 -19.5 36.5t-68.5 11.5v51q41 4 56.5 15.5t15.5 34.5q-2 28 -37 28q-45 0 -75 -15l-25 67q51 27 108 27q61 0 95.5 -24.5t34.5 -73.5q0 -52 -44 -76q62 -27 62 -89z" />
    <glyph glyph-name="acute" unicode="&#xb4;" horiz-adv-x="573" 
d="M364 840l70 -81q-136 -101 -241 -148l-34 52q104 73 205 177z" />
    <glyph glyph-name="mu" unicode="&#xb5;" horiz-adv-x="664" 
d="M72 -220l8 480v286h136v-272l1 -87q1 -48 14.5 -71.5t51.5 -23.5q52 0 126 39l2 141v274h135v-272l5 -132q1 -61 48 -61q23 0 48 6l8 -46q-26 -21 -68 -35t-77 -14q-46 0 -68.5 17t-29.5 52q-79 -71 -145 -71q-41 0 -66 9q18 -27 21 -75l5 -144h-155z" />
    <glyph glyph-name="paragraph" unicode="&#xb6;" horiz-adv-x="637" 
d="M562 12q0 -58 -34.5 -106t-86 -75.5t-103 -42t-93.5 -14.5q-122 0 -122 77q0 23 15 43.5t29 29.5q2 -1 13.5 -13t23 -23.5t24 -21t18.5 -9.5q38 0 51 34.5t13 94.5v721h95v-710q0 -86 -38 -129l1 -4q45 10 71.5 50.5t26.5 90.5v702h96v-695zM238 270h-10q-106 0 -164 55
t-58 167q0 215 222 215h10v-437z" />
    <glyph glyph-name="periodcentered" unicode="&#xb7;" horiz-adv-x="258" 
d="M129 269q-15 0 -54.5 39.5t-39.5 54.5q0 14 39.5 53.5t54.5 39.5t54 -39t39 -54q0 -14 -38.5 -54t-54.5 -40z" />
    <glyph glyph-name="cedilla" unicode="&#xb8;" horiz-adv-x="453" 
d="M360 -169q0 -47 -43.5 -86.5t-96.5 -39.5q-49 0 -101 34l40 71q42 -29 91 -29q42 0 42 24q0 14 -10 24.5t-32.5 18t-42 12t-55.5 11.5l59 138h72l-42 -75q63 -14 91 -37t28 -66z" />
    <glyph glyph-name="onesuperior" unicode="&#xb9;" horiz-adv-x="238" 
d="M193 415h-102v285h-73v79l175 4v-368z" />
    <glyph glyph-name="ordmasculine" unicode="&#xba;" horiz-adv-x="437" 
d="M383 547q0 -67 -49 -119.5t-120 -52.5q-161 0 -161 165q0 68 49 121.5t117 53.5q164 0 164 -168zM375 275h-314v63h314v-63zM288 544q0 119 -75 119q-22 0 -36.5 -10.5t-20.5 -30.5t-7.5 -36t-1.5 -40q0 -116 77 -116q38 0 51 30t13 84z" />
    <glyph glyph-name="guillemotright" unicode="&#xbb;" horiz-adv-x="471" 
d="M444 272q-93 -141 -122 -229l-73 15q24 93 85 213q-52 79 -93 212l69 16q40 -99 134 -227zM234 272q-90 -137 -117 -218l-74 16q26 95 81 201q-47 69 -88 198l70 16q32 -82 128 -213z" />
    <glyph glyph-name="onequarter" unicode="&#xbc;" horiz-adv-x="773" 
d="M740 84h-56v-84h-94v84h-155v79l108 206h141v-210h56v-75zM590 159v148l-82 -148h82zM211 415h-102v285h-73v79l175 4v-368zM637 603l-539 -541l-50 54l539 538z" />
    <glyph glyph-name="onehalf" unicode="&#xbd;" horiz-adv-x="764" 
d="M729 0h-274v66q164 124 164 177q0 42 -45 42q-42 0 -76 -23l-35 69q53 40 126 40q67 0 100 -34t33 -83q0 -88 -137 -172h144v-82zM208 415h-102v285h-73v79l175 4v-368zM627 603l-539 -541l-50 54l539 538z" />
    <glyph glyph-name="threequarters" unicode="&#xbe;" horiz-adv-x="779" 
d="M752 84h-56v-84h-94v84h-155v79l108 206h141v-210h56v-75zM602 159v148l-82 -148h82zM308 526q0 -61 -41.5 -88.5t-109.5 -27.5q-63 0 -117 18l18 76q48 -12 90 -12q57 0 57 41q0 27 -19.5 36.5t-68.5 11.5v51q41 4 56.5 15.5t15.5 34.5q-2 28 -37 28q-45 0 -75 -15
l-25 67q51 27 108 27q61 0 95.5 -24.5t34.5 -73.5q0 -52 -44 -76q62 -27 62 -89zM655 603l-539 -541l-50 54l539 538z" />
    <glyph glyph-name="questiondown" unicode="&#xbf;" horiz-adv-x="387" 
d="M329 509q0 -15 -38 -52.5t-52 -37.5t-52.5 37.5t-38.5 52.5q0 13 38.5 52t52.5 39t52 -38.5t38 -52.5zM372 -99q0 -77 -132 -77q-96 0 -165.5 53.5t-69.5 118.5q0 49 21 90t51.5 68.5t60.5 51t51 48t21 48.5q0 17 -7 38l87 20q35 -76 35 -100q0 -32 -21 -64.5t-51.5 -59
t-61 -51.5t-51.5 -51.5t-21 -49.5q0 -19 23.5 -41.5t72.5 -22.5q24 0 44 4.5t50 15.5t43 15q20 -33 20 -54z" />
    <glyph glyph-name="Agrave" unicode="&#xc0;" horiz-adv-x="721" 
d="M442 742q-180 36 -287 80l44 96q99 -56 261 -112zM710 53q0 -34 -6 -53h-299q-7 22 -7 57l60 20q32 9 32 45q0 12 -7 33l-39 120h-233l-46 -119q-6 -16 -6 -29q0 -38 42 -51l66 -19q0 -37 -5 -57h-260q-5 20 -5 54q42 36 56 68l246 575l129 24l225 -596q13 -34 57 -72z
M419 351l-56 172l-22 83h-7l-27 -81l-66 -174h178z" />
    <glyph glyph-name="Aacute" unicode="&#xc1;" horiz-adv-x="721" 
d="M710 53q0 -34 -6 -53h-299q-7 22 -7 57l60 20q32 9 32 45q0 12 -7 33l-39 120h-233l-46 -119q-6 -16 -6 -29q0 -38 42 -51l66 -19q0 -37 -5 -57h-260q-5 20 -5 54q42 36 56 68l246 575l129 24l225 -596q13 -34 57 -72zM419 351l-56 172l-22 83h-7l-27 -81l-66 -174h178z
M282 742l-18 64q162 56 261 112l43 -96q-107 -45 -286 -80z" />
    <glyph glyph-name="Acircumflex" unicode="&#xc2;" horiz-adv-x="721" 
d="M710 53q0 -34 -6 -53h-299q-7 22 -7 57l60 20q32 9 32 45q0 12 -7 33l-39 120h-233l-46 -119q-6 -16 -6 -29q0 -38 42 -51l66 -19q0 -37 -5 -57h-260q-5 20 -5 54q42 36 56 68l246 575l129 24l225 -596q13 -34 57 -72zM419 351l-56 172l-22 83h-7l-27 -81l-66 -174h178z
M212 733l-30 52q109 68 191 146q70 -64 177 -137l-39 -61q-90 39 -150 81q-84 -52 -149 -81z" />
    <glyph glyph-name="Atilde" unicode="&#xc3;" horiz-adv-x="721" 
d="M710 53q0 -34 -6 -53h-299q-7 22 -7 57l60 20q32 9 32 45q0 12 -7 33l-39 120h-233l-46 -119q-6 -16 -6 -29q0 -38 42 -51l66 -19q0 -37 -5 -57h-260q-5 20 -5 54q42 36 56 68l246 575l129 24l225 -596q13 -34 57 -72zM419 351l-56 172l-22 83h-7l-27 -81l-66 -174h178z
M447 753q-21 0 -93 20t-88 20q-35 0 -70 -24l-28 35q25 29 34.5 39.5t35.5 26t53 15.5q28 0 98 -19t81 -19q46 0 66 20l29 -33q-17 -25 -28.5 -39t-36 -28t-53.5 -14z" />
    <glyph glyph-name="Adieresis" unicode="&#xc4;" horiz-adv-x="721" 
d="M710 53q0 -34 -6 -53h-299q-7 22 -7 57l60 20q32 9 32 45q0 12 -7 33l-39 120h-233l-46 -119q-6 -16 -6 -29q0 -38 42 -51l66 -19q0 -37 -5 -57h-260q-5 20 -5 54q42 36 56 68l246 575l129 24l225 -596q13 -34 57 -72zM419 351l-56 172l-22 83h-7l-27 -81l-66 -174h178z
M242 756q-11 0 -41.5 31t-30.5 42q0 12 30.5 42.5t41.5 30.5q12 0 43 -31t31 -42q0 -10 -30.5 -41.5t-43.5 -31.5zM475 756q-12 0 -42.5 31t-30.5 42q0 12 31 42.5t42 30.5t42.5 -31t31.5 -42q0 -10 -30.5 -41.5t-43.5 -31.5z" />
    <glyph glyph-name="Aring" unicode="&#xc5;" horiz-adv-x="721" 
d="M710 53q0 -34 -6 -53h-299q-7 22 -7 57l60 20q32 9 32 45q0 12 -7 33l-39 120h-233l-46 -119q-6 -16 -6 -29q0 -38 42 -51l66 -19q0 -37 -5 -57h-260q-5 20 -5 54q42 36 56 68l246 575l129 24l225 -596q13 -34 57 -72zM419 351l-56 172l-22 83h-7l-27 -81l-66 -174h178z
M483 843q0 -46 -37 -73.5t-80 -27.5q-15 0 -31.5 3t-40 12t-38 31.5t-14.5 55.5q0 51 35.5 78.5t84.5 27.5q48 0 84.5 -24.5t36.5 -82.5zM415 845q0 27 -14.5 43t-38.5 16q-51 0 -51 -57q0 -28 14 -44.5t39 -16.5q51 0 51 59z" />
    <glyph glyph-name="AE" unicode="&#xc6;" horiz-adv-x="999" 
d="M971 171l-24 -171h-572q-6 29 -4 59l48 13q18 5 30 16t13 27l2 164v29h-198l-90 -156q-9 -17 -9 -31q0 -30 32 -39l82 -22q0 -41 -6 -60h-290q-6 20 -4 54l24 16q29 21 49 52l351 585h522v-164q-27 -8 -63 -4q-9 46 -28.5 64t-53.5 18l-179 5v-236l292 5v-92l-292 5v-30
l5 -197l159 4q109 3 144 99zM466 654l-153 -264h151v221q0 31 2 43z" />
    <glyph glyph-name="Ccedilla" unicode="&#xc7;" horiz-adv-x="689" 
d="M526 -169q0 -47 -43.5 -86.5t-96.5 -39.5q-49 0 -101 34l40 71q42 -29 91 -29q42 0 42 24q0 14 -10 24.5t-32.5 18t-42 12t-55.5 11.5l52 123q-161 12 -247 99.5t-86 254.5q0 158 109 264t277 106q78 0 121 -9.5t100 -33.5v-164q-24 -5 -57 -1q-44 119 -168 119
q-108 0 -171.5 -65t-63.5 -206q0 -125 71 -191t188 -66q76 0 179 21l28 -92q-95 -37 -211 -38l-32 -58q63 -14 91 -37t28 -66z" />
    <glyph glyph-name="Egrave" unicode="&#xc8;" horiz-adv-x="664" 
d="M635 171l-25 -171h-570q-6 29 -4 59l52 13q42 11 42 43l3 164v298q0 39 -28 50l-63 26v25q2 22 5 29h549v-164q-23 -4 -63 -4q-9 46 -28.5 64t-53.5 18l-178 5v-230l271 5v-92l-271 5v-36l5 -197l151 4q110 3 145 99zM425 742q-180 36 -287 80l44 96q99 -56 261 -112z
" />
    <glyph glyph-name="Eacute" unicode="&#xc9;" horiz-adv-x="664" 
d="M635 171l-25 -171h-570q-6 29 -4 59l52 13q42 11 42 43l3 164v298q0 39 -28 50l-63 26v25q2 22 5 29h549v-164q-23 -4 -63 -4q-9 46 -28.5 64t-53.5 18l-178 5v-230l271 5v-92l-271 5v-36l5 -197l151 4q110 3 145 99zM237 742l-18 64q162 56 261 112l43 -96
q-107 -45 -286 -80z" />
    <glyph glyph-name="Ecircumflex" unicode="&#xca;" horiz-adv-x="664" 
d="M635 171l-25 -171h-570q-6 29 -4 59l52 13q42 11 42 43l3 164v298q0 39 -28 50l-63 26v25q2 22 5 29h549v-164q-23 -4 -63 -4q-9 46 -28.5 64t-53.5 18l-178 5v-230l271 5v-92l-271 5v-36l5 -197l151 4q110 3 145 99zM190 733l-30 52q109 68 191 146q70 -64 177 -137
l-39 -61q-90 39 -150 81q-84 -52 -149 -81z" />
    <glyph glyph-name="Edieresis" unicode="&#xcb;" horiz-adv-x="664" 
d="M635 171l-25 -171h-570q-6 29 -4 59l52 13q42 11 42 43l3 164v298q0 39 -28 50l-63 26v25q2 22 5 29h549v-164q-23 -4 -63 -4q-9 46 -28.5 64t-53.5 18l-178 5v-230l271 5v-92l-271 5v-36l5 -197l151 4q110 3 145 99zM457 756q-12 0 -42.5 31t-30.5 42q0 12 31 42.5
t42 30.5t42.5 -31t31.5 -42q0 -10 -30.5 -41.5t-43.5 -31.5zM224 756q-11 0 -41.5 31t-30.5 42q0 12 30.5 42.5t41.5 30.5q12 0 43 -31t31 -42q0 -10 -30.5 -41.5t-43.5 -31.5z" />
    <glyph glyph-name="Igrave" unicode="&#xcc;" horiz-adv-x="403" 
d="M301 742q-180 36 -287 80l44 96q99 -56 261 -112zM367 61q0 -41 -6 -61h-314q-6 24 -4 54l43 15q43 16 44 61l3 148v294q0 48 -51 66l-37 16q-2 34 2 53h308q4 -27 0 -59l-43 -10q-39 -10 -39 -63v-297l2 -170q1 -16 6 -22t19 -10z" />
    <glyph glyph-name="Iacute" unicode="&#xcd;" horiz-adv-x="403" 
d="M367 61q0 -41 -6 -61h-314q-6 24 -4 54l43 15q43 16 44 61l3 148v294q0 48 -51 66l-37 16q-2 34 2 53h308q4 -27 0 -59l-43 -10q-39 -10 -39 -63v-297l2 -170q1 -16 6 -22t19 -10zM91 742l-18 64q162 56 261 112l43 -96q-107 -45 -286 -80z" />
    <glyph glyph-name="Icircumflex" unicode="&#xce;" horiz-adv-x="403" 
d="M367 61q0 -41 -6 -61h-314q-6 24 -4 54l43 15q43 16 44 61l3 148v294q0 48 -51 66l-37 16q-2 34 2 53h308q4 -27 0 -59l-43 -10q-39 -10 -39 -63v-297l2 -170q1 -16 6 -22t19 -10zM52 733l-30 52q109 68 191 146q70 -64 177 -137l-39 -61q-90 39 -150 81
q-84 -52 -149 -81z" />
    <glyph glyph-name="Idieresis" unicode="&#xcf;" horiz-adv-x="403" 
d="M96 756q-11 0 -41.5 31t-30.5 42q0 12 30.5 42.5t41.5 30.5t42.5 -31t31.5 -42q0 -10 -31 -41.5t-43 -31.5zM307 756q-12 0 -42.5 31t-30.5 42q0 12 31 42.5t42 30.5t42 -31t31 -42q0 -10 -30.5 -41.5t-42.5 -31.5zM367 61q0 -41 -6 -61h-314q-6 24 -4 54l43 15
q43 16 44 61l3 148v294q0 48 -51 66l-37 16q-2 34 2 53h308q4 -27 0 -59l-43 -10q-39 -10 -39 -63v-297l2 -170q1 -16 6 -22t19 -10z" />
    <glyph glyph-name="Eth" unicode="&#xd0;" horiz-adv-x="806" 
d="M767 368q0 -179 -112.5 -273.5t-302.5 -94.5h-309q-6 34 -6 58l54 15q38 9 39 51l3 155v36h-89v80h89v176q0 46 -40 64l-50 19q-2 32 4 53h299q75 0 135 -9t115 -32t91.5 -60.5t58 -97.5t21.5 -140zM614 347q0 133 -69.5 205.5t-201.5 72.5h-69v-230h163v-80h-163v-37
l6 -197h83q251 0 251 266z" />
    <glyph glyph-name="Ntilde" unicode="&#xd1;" horiz-adv-x="844" 
d="M522 753q-21 0 -93 20t-88 20q-35 0 -70 -24l-28 35q25 29 34.5 39.5t35.5 26t53 15.5q28 0 98 -19t81 -19q46 0 66 20l29 -33q-17 -25 -28.5 -39t-36 -28t-53.5 -14zM821 661l-53 -23q-18 -8 -29.5 -27t-11.5 -42v-563l-108 -29l-397 552h-7l6 -80v-176l3 -155
q0 -19 4 -26t20 -12l85 -25q0 -41 -5 -55h-293q-6 29 -4 53l51 15q22 6 34.5 31t13.5 56l2 118v308q0 36 -29 51l-61 27q0 41 2 48h221l374 -512h7l-7 105v268q0 46 -37 64l-63 27q0 37 4 48h274q4 -30 4 -46z" />
    <glyph glyph-name="Ograve" unicode="&#xd2;" horiz-adv-x="821" 
d="M524 742q-180 36 -287 80l44 96q99 -56 261 -112zM783 382q0 -167 -105.5 -280.5t-281.5 -113.5q-175 0 -266.5 87t-91.5 248q0 169 109.5 282t280.5 113q178 0 266.5 -89t88.5 -247zM624 358q0 122 -51 195.5t-160 73.5q-59 0 -102 -21.5t-67 -60.5t-35.5 -87
t-11.5 -106q0 -121 49.5 -196t159.5 -75q218 0 218 277z" />
    <glyph glyph-name="Oacute" unicode="&#xd3;" horiz-adv-x="821" 
d="M336 742l-18 64q162 56 261 112l43 -96q-107 -45 -286 -80zM783 382q0 -167 -105.5 -280.5t-281.5 -113.5q-175 0 -266.5 87t-91.5 248q0 169 109.5 282t280.5 113q178 0 266.5 -89t88.5 -247zM624 358q0 122 -51 195.5t-160 73.5q-59 0 -102 -21.5t-67 -60.5t-35.5 -87
t-11.5 -106q0 -121 49.5 -196t159.5 -75q218 0 218 277z" />
    <glyph glyph-name="Ocircumflex" unicode="&#xd4;" horiz-adv-x="821" 
d="M273 733l-30 52q109 68 191 146q70 -64 177 -137l-39 -61q-90 39 -150 81q-84 -52 -149 -81zM783 382q0 -167 -105.5 -280.5t-281.5 -113.5q-175 0 -266.5 87t-91.5 248q0 169 109.5 282t280.5 113q178 0 266.5 -89t88.5 -247zM624 358q0 122 -51 195.5t-160 73.5
q-59 0 -102 -21.5t-67 -60.5t-35.5 -87t-11.5 -106q0 -121 49.5 -196t159.5 -75q218 0 218 277z" />
    <glyph glyph-name="Otilde" unicode="&#xd5;" horiz-adv-x="821" 
d="M510 753q-21 0 -93 20t-88 20q-35 0 -70 -24l-28 35q25 29 34.5 39.5t35.5 26t53 15.5q28 0 98 -19t81 -19q46 0 66 20l29 -33q-17 -25 -28.5 -39t-36 -28t-53.5 -14zM783 382q0 -167 -105.5 -280.5t-281.5 -113.5q-175 0 -266.5 87t-91.5 248q0 169 109.5 282t280.5 113
q178 0 266.5 -89t88.5 -247zM624 358q0 122 -51 195.5t-160 73.5q-59 0 -102 -21.5t-67 -60.5t-35.5 -87t-11.5 -106q0 -121 49.5 -196t159.5 -75q218 0 218 277z" />
    <glyph glyph-name="Odieresis" unicode="&#xd6;" horiz-adv-x="821" 
d="M300 756q-11 0 -41.5 31t-30.5 42q0 12 30.5 42.5t41.5 30.5q12 0 43 -31t31 -42q0 -10 -30.5 -41.5t-43.5 -31.5zM533 756q-12 0 -42.5 31t-30.5 42q0 12 31 42.5t42 30.5t42.5 -31t31.5 -42q0 -10 -30.5 -41.5t-43.5 -31.5zM783 382q0 -167 -105.5 -280.5
t-281.5 -113.5q-175 0 -266.5 87t-91.5 248q0 169 109.5 282t280.5 113q178 0 266.5 -89t88.5 -247zM624 358q0 122 -51 195.5t-160 73.5q-59 0 -102 -21.5t-67 -60.5t-35.5 -87t-11.5 -106q0 -121 49.5 -196t159.5 -75q218 0 218 277z" />
    <glyph glyph-name="multiply" unicode="&#xd7;" horiz-adv-x="553" 
d="M105 20l-71 57l185 224l-184 224l69 56l172 -208l172 208l70 -56l-185 -224l185 -224l-70 -57l-172 209z" />
    <glyph glyph-name="Oslash" unicode="&#xd8;" horiz-adv-x="821" 
d="M777 699q-40 -48 -72 -82q78 -85 78 -235q0 -167 -105.5 -280.5t-281.5 -113.5q-147 0 -237 64q-35 -34 -89 -84l-46 45q52 48 87 82q-73 87 -73 228q0 169 109.5 282t280.5 113q140 0 229 -59q49 54 74 84zM566 562q-54 65 -153 65q-59 0 -102 -21.5t-67 -60.5
t-35.5 -87t-11.5 -106q0 -87 24 -148q195 195 345 358zM624 358q0 87 -25 144q-165 -177 -345 -356q54 -65 152 -65q218 0 218 277z" />
    <glyph glyph-name="Ugrave" unicode="&#xd9;" horiz-adv-x="811" 
d="M521 742q-180 36 -287 80l44 96q99 -56 261 -112zM790 652l-50 -16q-9 -3 -13.5 -6t-9 -11.5t-4.5 -22.5v-327q0 -63 -19.5 -113t-50 -80.5t-71.5 -50.5t-80.5 -28t-79.5 -8q-47 0 -85 4.5t-81.5 20.5t-72.5 42t-48.5 74t-19.5 112v339q0 17 -8 32t-21 20l-57 21
q0 38 4 53h317q2 -10 2.5 -29.5t-0.5 -28.5l-63 -12q-26 -5 -26 -32v-343q0 -54 17 -92.5t45.5 -57.5t58.5 -27t64 -8q164 0 164 209v287q0 52 -56 68l-43 13q0 49 1 53h282q6 -30 4 -55z" />
    <glyph glyph-name="Uacute" unicode="&#xda;" horiz-adv-x="811" 
d="M338 742l-18 64q162 56 261 112l43 -96q-107 -45 -286 -80zM790 652l-50 -16q-9 -3 -13.5 -6t-9 -11.5t-4.5 -22.5v-327q0 -63 -19.5 -113t-50 -80.5t-71.5 -50.5t-80.5 -28t-79.5 -8q-47 0 -85 4.5t-81.5 20.5t-72.5 42t-48.5 74t-19.5 112v339q0 17 -8 32t-21 20
l-57 21q0 38 4 53h317q2 -10 2.5 -29.5t-0.5 -28.5l-63 -12q-26 -5 -26 -32v-343q0 -54 17 -92.5t45.5 -57.5t58.5 -27t64 -8q164 0 164 209v287q0 52 -56 68l-43 13q0 49 1 53h282q6 -30 4 -55z" />
    <glyph glyph-name="Ucircumflex" unicode="&#xdb;" horiz-adv-x="811" 
d="M790 652l-50 -16q-9 -3 -13.5 -6t-9 -11.5t-4.5 -22.5v-327q0 -63 -19.5 -113t-50 -80.5t-71.5 -50.5t-80.5 -28t-79.5 -8q-47 0 -85 4.5t-81.5 20.5t-72.5 42t-48.5 74t-19.5 112v339q0 17 -8 32t-21 20l-57 21q0 38 4 53h317q2 -10 2.5 -29.5t-0.5 -28.5l-63 -12
q-26 -5 -26 -32v-343q0 -54 17 -92.5t45.5 -57.5t58.5 -27t64 -8q164 0 164 209v287q0 52 -56 68l-43 13q0 49 1 53h282q6 -30 4 -55zM280 733l-30 52q109 68 191 146q70 -64 177 -137l-39 -61q-90 39 -150 81q-84 -52 -149 -81z" />
    <glyph glyph-name="Udieresis" unicode="&#xdc;" horiz-adv-x="811" 
d="M311 756q-11 0 -41.5 31t-30.5 42q0 12 30.5 42.5t41.5 30.5q12 0 43 -31t31 -42q0 -10 -30.5 -41.5t-43.5 -31.5zM544 756q-12 0 -42.5 31t-30.5 42q0 12 31 42.5t42 30.5t42.5 -31t31.5 -42q0 -10 -30.5 -41.5t-43.5 -31.5zM790 652l-50 -16q-9 -3 -13.5 -6t-9 -11.5
t-4.5 -22.5v-327q0 -63 -19.5 -113t-50 -80.5t-71.5 -50.5t-80.5 -28t-79.5 -8q-47 0 -85 4.5t-81.5 20.5t-72.5 42t-48.5 74t-19.5 112v339q0 17 -8 32t-21 20l-57 21q0 38 4 53h317q2 -10 2.5 -29.5t-0.5 -28.5l-63 -12q-26 -5 -26 -32v-343q0 -54 17 -92.5t45.5 -57.5
t58.5 -27t64 -8q164 0 164 209v287q0 52 -56 68l-43 13q0 49 1 53h282q6 -30 4 -55z" />
    <glyph glyph-name="Yacute" unicode="&#xdd;" horiz-adv-x="679" 
d="M430 707h251q5 -23 5 -52q-44 -23 -69 -60l-208 -313l3 -166q0 -34 29 -40l66 -17q0 -36 -7 -59h-321q-6 24 -6 57l50 13q18 5 30.5 20t12.5 36l3 148l-207 316q-21 32 -63 67q-2 32 2 50h288q5 -27 5 -55l-43 -17q-28 -10 -28 -41q0 -20 11 -37l133 -208l131 205
q10 16 9 31q0 27 -32 44l-48 23q-2 30 3 55zM285 742l-18 64q162 56 261 112l43 -96q-107 -45 -286 -80z" />
    <glyph glyph-name="Thorn" unicode="&#xde;" horiz-adv-x="689" 
d="M673 381q0 -104 -76.5 -168t-205.5 -64h-57v72l31 1q78 2 116 37t38 106q0 68 -37.5 100.5t-120.5 33.5l-89 1v-227l4 -155q0 -31 21 -35l102 -24q0 -48 -4 -59h-348q-5 34 -3 55l48 14q17 4 27.5 22.5t11.5 39.5l2 142v311q0 32 -40 51l-52 20q0 3 -0.5 10t-0.5 11
q0 13 5 31h309q3 -35 -1 -59l-43 -10q-29 -7 -36 -42l-1 -17h155q245 0 245 -198z" />
    <glyph glyph-name="germandbls" unicode="&#xdf;" horiz-adv-x="739" 
d="M725 152q0 -45 -18.5 -78.5t-50.5 -51.5t-69 -26t-81 -8q-51 0 -87 10t-83 33l9 141q44 1 52 -1q17 -109 112 -109q40 0 62.5 16.5t22.5 46.5q0 25 -24 47t-58 40t-68.5 39t-58.5 55t-24 77q0 34 18.5 65t41 50.5t41 46.5t18.5 53q0 46 -32.5 68.5t-82.5 22.5
q-49 0 -81 -26t-32 -74v-309l7 -280h-224q-5 39 -4 54l51 18q30 9 30 60l3 148v191h-80v57l80 18v21q0 83 76 142.5t185 59.5q27 0 53.5 -3t60.5 -13t59 -27t42.5 -48t17.5 -73q0 -39 -20 -69.5t-43.5 -46.5t-43.5 -35.5t-20 -38.5q0 -23 25 -42t61 -35.5t71.5 -37.5
t60.5 -59t25 -89z" />
    <glyph glyph-name="agrave" unicode="&#xe0;" horiz-adv-x="573" 
d="M570 47q-24 -22 -64.5 -38.5t-69.5 -16.5q-53 0 -73 20t-23 66q-84 -87 -174 -87q-66 0 -104.5 32t-38.5 94q0 147 209 177q75 10 105 12v63q0 43 -24.5 61.5t-88.5 18.5q-60 0 -142 -21l-24 95q95 36 193 36q33 0 56 -1t57 -9t55 -23t37 -45.5t16 -72.5v-135l7 -183h84z
M337 128v111q-55 -6 -81 -11q-95 -19 -95 -79q0 -23 15.5 -37t45.5 -14q35 0 115 30zM121 759l69 81q99 -100 208 -176l-34 -52q-117 53 -243 147z" />
    <glyph glyph-name="aacute" unicode="&#xe1;" horiz-adv-x="573" 
d="M570 47q-24 -22 -64.5 -38.5t-69.5 -16.5q-53 0 -73 20t-23 66q-84 -87 -174 -87q-66 0 -104.5 32t-38.5 94q0 147 209 177q75 10 105 12v63q0 43 -24.5 61.5t-88.5 18.5q-60 0 -142 -21l-24 95q95 36 193 36q33 0 56 -1t57 -9t55 -23t37 -45.5t16 -72.5v-135l7 -183h84z
M337 128v111q-55 -6 -81 -11q-95 -19 -95 -79q0 -23 15.5 -37t45.5 -14q35 0 115 30zM370 841l70 -81q-136 -101 -241 -148l-34 52q104 73 205 177z" />
    <glyph glyph-name="acircumflex" unicode="&#xe2;" horiz-adv-x="573" 
d="M122 613l-40 47q100 77 194 184q107 -123 180 -177l-48 -54q-69 41 -144 108q-60 -51 -142 -108zM570 47q-24 -22 -64.5 -38.5t-69.5 -16.5q-53 0 -73 20t-23 66q-84 -87 -174 -87q-66 0 -104.5 32t-38.5 94q0 147 209 177q75 10 105 12v63q0 43 -24.5 61.5t-88.5 18.5
q-60 0 -142 -21l-24 95q95 36 193 36q33 0 56 -1t57 -9t55 -23t37 -45.5t16 -72.5v-135l7 -183h84zM337 128v111q-55 -6 -81 -11q-95 -19 -95 -79q0 -23 15.5 -37t45.5 -14q35 0 115 30z" />
    <glyph glyph-name="atilde" unicode="&#xe3;" horiz-adv-x="573" 
d="M570 47q-24 -22 -64.5 -38.5t-69.5 -16.5q-53 0 -73 20t-23 66q-84 -87 -174 -87q-66 0 -104.5 32t-38.5 94q0 147 209 177q75 10 105 12v63q0 43 -24.5 61.5t-88.5 18.5q-60 0 -142 -21l-24 95q95 36 193 36q33 0 56 -1t57 -9t55 -23t37 -45.5t16 -72.5v-135l7 -183h84z
M337 128v111q-55 -6 -81 -11q-95 -19 -95 -79q0 -23 15.5 -37t45.5 -14q35 0 115 30zM465 732q-3 -3 -11 -13.5t-11.5 -14.5t-11.5 -13t-13.5 -13t-14 -10.5t-17 -9.5t-19 -5t-21.5 -2q-22 0 -89 20t-83 20q-41 0 -70 -25l-29 36q2 2 11.5 13t12.5 14.5t13 13t15 13.5
t15 10.5t17.5 9t18 5t21.5 2.5q29 0 94 -19t76 -19q20 0 36.5 5t22.5 10l7 5z" />
    <glyph glyph-name="adieresis" unicode="&#xe4;" horiz-adv-x="573" 
d="M151 643q-11 0 -41.5 31t-30.5 42q0 12 30.5 42.5t41.5 30.5q12 0 43 -31t31 -42q0 -10 -30.5 -41.5t-43.5 -31.5zM379 643q-11 0 -41.5 31t-30.5 42q0 12 30.5 42.5t41.5 30.5t42.5 -31t31.5 -42q0 -10 -30.5 -41.5t-43.5 -31.5zM570 47q-24 -22 -64.5 -38.5
t-69.5 -16.5q-53 0 -73 20t-23 66q-84 -87 -174 -87q-66 0 -104.5 32t-38.5 94q0 147 209 177q75 10 105 12v63q0 43 -24.5 61.5t-88.5 18.5q-60 0 -142 -21l-24 95q95 36 193 36q33 0 56 -1t57 -9t55 -23t37 -45.5t16 -72.5v-135l7 -183h84zM337 128v111q-55 -6 -81 -11
q-95 -19 -95 -79q0 -23 15.5 -37t45.5 -14q35 0 115 30z" />
    <glyph glyph-name="aring" unicode="&#xe5;" horiz-adv-x="573" 
d="M570 47q-24 -22 -64.5 -38.5t-69.5 -16.5q-53 0 -73 20t-23 66q-84 -87 -174 -87q-66 0 -104.5 32t-38.5 94q0 147 209 177q75 10 105 12v63q0 43 -24.5 61.5t-88.5 18.5q-60 0 -142 -21l-24 95q95 36 193 36q33 0 56 -1t57 -9t55 -23t37 -45.5t16 -72.5v-135l7 -183h84z
M337 128v111q-55 -6 -81 -11q-95 -19 -95 -79q0 -23 15.5 -37t45.5 -14q35 0 115 30zM400 737q0 -50 -41.5 -82.5t-86.5 -32.5q-22 0 -42 4.5t-41 15t-33.5 32.5t-12.5 52q0 54 39 86.5t90 32.5q128 0 128 -108zM326 733q0 29 -14.5 46.5t-40.5 17.5q-54 0 -54 -62
q0 -29 14.5 -47t40.5 -18q54 0 54 63z" />
    <glyph glyph-name="ae" unicode="&#xe6;" horiz-adv-x="867" 
d="M834 259l-360 -15q3 -83 47 -113t125 -30q86 0 153 16l24 -75q-89 -50 -202 -50q-92 0 -151 19t-92 69q-102 -88 -204 -88q-68 0 -109.5 30.5t-41.5 95.5q0 148 213 176q52 6 101 8v74q0 43 -22.5 59t-90.5 16q-62 0 -142 -22l-24 95q88 36 193 36q146 0 188 -67
q69 67 164 67q119 0 175 -73t56 -193v-35zM688 328q2 152 -93 152q-58 0 -89 -44t-34 -124zM352 136q-14 45 -16 103q-70 -5 -93 -10q-48 -11 -68 -31t-20 -50q0 -21 15.5 -36.5t43.5 -15.5q51 0 138 40z" />
    <glyph glyph-name="ccedilla" unicode="&#xe7;" horiz-adv-x="530" 
d="M415 -169q0 -47 -43.5 -86.5t-96.5 -39.5q-49 0 -101 34l40 71q42 -29 91 -29q42 0 42 24q0 14 -10 24.5t-32.5 18t-42 12t-55.5 11.5l50 119q-222 18 -222 257q0 146 77 229t219 83q29 0 56.5 -4.5t54.5 -14.5t43.5 -29.5t16.5 -46.5q0 -25 -15 -48.5t-43 -35.5
q-29 32 -46 48t-44 31t-54 15q-56 0 -90.5 -46.5t-34.5 -141.5q0 -190 166 -190q42 0 131 17l23 -72q-71 -47 -169 -52l-30 -55q63 -14 91 -37t28 -66z" />
    <glyph glyph-name="egrave" unicode="&#xe8;" horiz-adv-x="568" 
d="M535 257h-359q4 -92 47.5 -125t125.5 -33q74 0 152 18l23 -75q-99 -53 -217 -53q-273 0 -273 253q0 141 75 229t202 88q114 0 169 -71t55 -190v-41zM389 324q0 159 -95 159q-54 0 -86.5 -45t-34.5 -114h216zM140 759l69 81q99 -100 208 -176l-34 -52q-117 53 -243 147z
" />
    <glyph glyph-name="eacute" unicode="&#xe9;" horiz-adv-x="568" 
d="M392 841l70 -81q-136 -101 -241 -148l-34 52q104 73 205 177zM535 257h-359q4 -92 47.5 -125t125.5 -33q74 0 152 18l23 -75q-99 -53 -217 -53q-273 0 -273 253q0 141 75 229t202 88q114 0 169 -71t55 -190v-41zM389 324q0 159 -95 159q-54 0 -86.5 -45t-34.5 -114h216z
" />
    <glyph glyph-name="ecircumflex" unicode="&#xea;" horiz-adv-x="568" 
d="M156 613l-40 47q100 77 194 184q107 -123 180 -177l-48 -54q-69 41 -144 108q-60 -51 -142 -108zM535 257h-359q4 -92 47.5 -125t125.5 -33q74 0 152 18l23 -75q-99 -53 -217 -53q-273 0 -273 253q0 141 75 229t202 88q114 0 169 -71t55 -190v-41zM389 324q0 159 -95 159
q-54 0 -86.5 -45t-34.5 -114h216z" />
    <glyph glyph-name="edieresis" unicode="&#xeb;" horiz-adv-x="568" 
d="M181 643q-11 0 -41.5 31t-30.5 42q0 12 30.5 42.5t41.5 30.5q12 0 43 -31t31 -42q0 -10 -30.5 -41.5t-43.5 -31.5zM409 643q-11 0 -41.5 31t-30.5 42q0 12 30.5 42.5t41.5 30.5t42.5 -31t31.5 -42q0 -10 -30.5 -41.5t-43.5 -31.5zM535 257h-359q4 -92 47.5 -125
t125.5 -33q74 0 152 18l23 -75q-99 -53 -217 -53q-273 0 -273 253q0 141 75 229t202 88q114 0 169 -71t55 -190v-41zM389 324q0 159 -95 159q-54 0 -86.5 -45t-34.5 -114h216z" />
    <glyph glyph-name="igrave" unicode="&#xec;" horiz-adv-x="362" 
d="M350 58q0 -38 -5 -58h-310q-4 19 -4 56l60 19q26 7 28 44l3 154v199h-93v65q96 21 181 21q25 0 36.5 -9t11.5 -34v-242l2 -161q0 -31 16 -36zM5 759l69 81q99 -100 208 -176l-34 -52q-117 53 -243 147z" />
    <glyph glyph-name="iacute" unicode="&#xed;" horiz-adv-x="362" 
d="M282 841l70 -81q-136 -101 -241 -148l-34 52q104 73 205 177zM350 58q0 -38 -5 -58h-310q-4 19 -4 56l60 19q26 7 28 44l3 154v199h-93v65q96 21 181 21q25 0 36.5 -9t11.5 -34v-242l2 -161q0 -31 16 -36z" />
    <glyph glyph-name="icircumflex" unicode="&#xee;" horiz-adv-x="362" 
d="M34 613l-40 47q100 77 194 184q107 -123 180 -177l-48 -54q-69 41 -144 108q-60 -51 -142 -108zM350 58q0 -38 -5 -58h-310q-4 19 -4 56l60 19q26 7 28 44l3 154v199h-93v65q96 21 181 21q25 0 36.5 -9t11.5 -34v-242l2 -161q0 -31 16 -36z" />
    <glyph glyph-name="idieresis" unicode="&#xef;" horiz-adv-x="362" 
d="M70 640q-11 0 -42 30.5t-31 41.5q0 12 30.5 42.5t42.5 30.5q11 0 42.5 -31t31.5 -42q0 -10 -31 -41t-43 -31zM284 640q-11 0 -41.5 30.5t-30.5 41.5q0 12 30.5 42.5t41.5 30.5t42.5 -31t31.5 -42q0 -10 -30.5 -41t-43.5 -31zM350 58q0 -38 -5 -58h-310q-4 19 -4 56l60 19
q26 7 28 44l3 154v199h-93v65q96 21 181 21q25 0 36.5 -9t11.5 -34v-242l2 -161q0 -31 16 -36z" />
    <glyph glyph-name="eth" unicode="&#xf0;" horiz-adv-x="626" 
d="M298 -8q-127 0 -195.5 67.5t-68.5 206.5q0 112 80.5 201.5t192.5 89.5q61 0 108 -22q-16 54 -57 103l-126 -48l-18 57l101 37q-34 30 -79 60l67 66q75 -38 122 -84l131 50l19 -56l-107 -41q108 -140 108 -394q0 -118 -80.5 -205.5t-197.5 -87.5zM314 80q117 0 117 194
q0 198 -135 198q-119 0 -119 -198q0 -194 137 -194z" />
    <glyph glyph-name="ntilde" unicode="&#xf1;" horiz-adv-x="711" 
d="M561 732q-3 -3 -11 -13.5t-11.5 -14.5t-11.5 -13t-13.5 -13t-14 -10.5t-17 -9.5t-19 -5t-21.5 -2q-22 0 -89 20t-83 20q-41 0 -70 -25l-29 36q2 2 11.5 13t12.5 14.5t13 13t15 13.5t15 10.5t17.5 9t18 5t21.5 2.5q29 0 94 -19t76 -19q20 0 36.5 5t22.5 10l7 5zM698 57
q0 -40 -6 -57h-268q-5 33 -3 56l32 17q23 12 23 44l3 157v63q0 64 -16 92t-73 28q-80 0 -138 -28v-155l2 -161q0 -32 15 -37l62 -18q0 -42 -5 -58h-285q-4 32 -3 53l47 18q28 11 28 47l3 156v196h-87v65q95 21 181 21q21 0 29.5 -8.5t8.5 -27.5v-31q93 69 188 69
q42 0 73 -5.5t50 -18.5t31 -26.5t17 -37.5t6.5 -43t1.5 -50v-103l3 -176q1 -23 14 -25z" />
    <glyph glyph-name="ograve" unicode="&#xf2;" horiz-adv-x="608" 
d="M149 759l69 81q99 -100 208 -176l-34 -52q-117 53 -243 147zM575 277q0 -112 -81 -200t-197 -88q-127 0 -195.5 69t-68.5 208q0 112 81 202.5t192 90.5q269 0 269 -282zM428 274q0 199 -133 199q-30 0 -52.5 -13t-34.5 -32t-19 -48t-9 -52.5t-2 -53.5q0 -195 135 -195
q35 0 58.5 15.5t35.5 44t16.5 61t4.5 74.5z" />
    <glyph glyph-name="oacute" unicode="&#xf3;" horiz-adv-x="608" 
d="M396 841l70 -81q-136 -101 -241 -148l-34 52q104 73 205 177zM575 277q0 -112 -81 -200t-197 -88q-127 0 -195.5 69t-68.5 208q0 112 81 202.5t192 90.5q269 0 269 -282zM428 274q0 199 -133 199q-30 0 -52.5 -13t-34.5 -32t-19 -48t-9 -52.5t-2 -53.5q0 -195 135 -195
q35 0 58.5 15.5t35.5 44t16.5 61t4.5 74.5z" />
    <glyph glyph-name="ocircumflex" unicode="&#xf4;" horiz-adv-x="608" 
d="M163 613l-40 47q100 77 194 184q107 -123 180 -177l-48 -54q-69 41 -144 108q-60 -51 -142 -108zM575 277q0 -112 -81 -200t-197 -88q-127 0 -195.5 69t-68.5 208q0 112 81 202.5t192 90.5q269 0 269 -282zM428 274q0 199 -133 199q-30 0 -52.5 -13t-34.5 -32t-19 -48
t-9 -52.5t-2 -53.5q0 -195 135 -195q35 0 58.5 15.5t35.5 44t16.5 61t4.5 74.5z" />
    <glyph glyph-name="otilde" unicode="&#xf5;" horiz-adv-x="608" 
d="M575 277q0 -112 -81 -200t-197 -88q-127 0 -195.5 69t-68.5 208q0 112 81 202.5t192 90.5q269 0 269 -282zM428 274q0 199 -133 199q-30 0 -52.5 -13t-34.5 -32t-19 -48t-9 -52.5t-2 -53.5q0 -195 135 -195q35 0 58.5 15.5t35.5 44t16.5 61t4.5 74.5zM499 732
q-3 -3 -11 -13.5t-11.5 -14.5t-11.5 -13t-13.5 -13t-14 -10.5t-17 -9.5t-19 -5t-21.5 -2q-22 0 -89 20t-83 20q-41 0 -70 -25l-29 36q2 2 11.5 13t12.5 14.5t13 13t15 13.5t15 10.5t17.5 9t18 5t21.5 2.5q29 0 94 -19t76 -19q20 0 36.5 5t22.5 10l7 5z" />
    <glyph glyph-name="odieresis" unicode="&#xf6;" horiz-adv-x="608" 
d="M189 643q-11 0 -41.5 31t-30.5 42q0 12 30.5 42.5t41.5 30.5q12 0 43 -31t31 -42q0 -10 -30.5 -41.5t-43.5 -31.5zM417 643q-11 0 -41.5 31t-30.5 42q0 12 30.5 42.5t41.5 30.5t42.5 -31t31.5 -42q0 -10 -30.5 -41.5t-43.5 -31.5zM575 277q0 -112 -81 -200t-197 -88
q-127 0 -195.5 69t-68.5 208q0 112 81 202.5t192 90.5q269 0 269 -282zM428 274q0 199 -133 199q-30 0 -52.5 -13t-34.5 -32t-19 -48t-9 -52.5t-2 -53.5q0 -195 135 -195q35 0 58.5 15.5t35.5 44t16.5 61t4.5 74.5z" />
    <glyph glyph-name="divide" unicode="&#xf7;" horiz-adv-x="522" 
d="M263 9q-14 0 -48.5 35t-34.5 49t35 48t48 34t48 -34.5t35 -47.5t-35 -48.5t-48 -35.5zM262 426q-14 0 -48.5 35.5t-34.5 49.5t35 48t48 34q14 0 49 -34.5t35 -47.5t-35.5 -49t-48.5 -36zM21 260v86h480v-86h-480z" />
    <glyph glyph-name="oslash" unicode="&#xf8;" horiz-adv-x="607" 
d="M572 549q-3 -4 -23.5 -30t-33.5 -41q60 -69 60 -201q0 -112 -81 -198.5t-197 -86.5q-102 0 -164 43q-39 -42 -72 -75l-45 40q3 3 30 32t41 45q-54 68 -54 189q0 112 80.5 201.5t192.5 89.5q101 0 166 -41q11 14 30 37.5t27 33.5zM394 424q-34 48 -99 48q-30 0 -52.5 -13
t-34.5 -32t-19 -47.5t-9 -52t-2 -53.5q0 -47 9 -86q112 123 207 236zM428 274q0 52 -9 88q-118 -139 -205 -237q33 -45 99 -45q35 0 58.5 15t35.5 44t16.5 61t4.5 74z" />
    <glyph glyph-name="ugrave" unicode="&#xf9;" horiz-adv-x="689" 
d="M670 91l10 -58q-80 -40 -148 -40q-80 0 -84 80q-91 -84 -181 -84q-39 0 -68 5.5t-47 18.5t-29 26.5t-16 36t-6.5 40t-1.5 45.5v309h-85v60q117 26 159 26q63 0 63 -55v-210l1 -104q1 -49 14 -72t51 -23q61 0 140 43l4 138v197h-83v60q87 26 155 26q64 0 64 -55v-229
l5 -181h83zM155 763l69 81q99 -100 208 -176l-34 -52q-117 53 -243 147z" />
    <glyph glyph-name="uacute" unicode="&#xfa;" horiz-adv-x="689" 
d="M446 841l70 -81q-136 -101 -241 -148l-34 52q104 73 205 177zM670 91l10 -58q-80 -40 -148 -40q-80 0 -84 80q-91 -84 -181 -84q-39 0 -68 5.5t-47 18.5t-29 26.5t-16 36t-6.5 40t-1.5 45.5v309h-85v60q117 26 159 26q63 0 63 -55v-210l1 -104q1 -49 14 -72t51 -23
q61 0 140 43l4 138v197h-83v60q87 26 155 26q64 0 64 -55v-229l5 -181h83z" />
    <glyph glyph-name="ucircumflex" unicode="&#xfb;" horiz-adv-x="689" 
d="M184 613l-40 47q100 77 194 184q107 -123 180 -177l-48 -54q-69 41 -144 108q-60 -51 -142 -108zM670 91l10 -58q-80 -40 -148 -40q-80 0 -84 80q-91 -84 -181 -84q-39 0 -68 5.5t-47 18.5t-29 26.5t-16 36t-6.5 40t-1.5 45.5v309h-85v60q117 26 159 26q63 0 63 -55v-210
l1 -104q1 -49 14 -72t51 -23q61 0 140 43l4 138v197h-83v60q87 26 155 26q64 0 64 -55v-229l5 -181h83z" />
    <glyph glyph-name="udieresis" unicode="&#xfc;" horiz-adv-x="689" 
d="M214 643q-11 0 -41.5 31t-30.5 42q0 12 30.5 42.5t41.5 30.5q12 0 43 -31t31 -42q0 -10 -30.5 -41.5t-43.5 -31.5zM442 643q-11 0 -41.5 31t-30.5 42q0 12 30.5 42.5t41.5 30.5t42.5 -31t31.5 -42q0 -10 -30.5 -41.5t-43.5 -31.5zM670 91l10 -58q-80 -40 -148 -40
q-80 0 -84 80q-91 -84 -181 -84q-39 0 -68 5.5t-47 18.5t-29 26.5t-16 36t-6.5 40t-1.5 45.5v309h-85v60q117 26 159 26q63 0 63 -55v-210l1 -104q1 -49 14 -72t51 -23q61 0 140 43l4 138v197h-83v60q87 26 155 26q64 0 64 -55v-229l5 -181h83z" />
    <glyph glyph-name="yacute" unicode="&#xfd;" horiz-adv-x="559" 
d="M560 546q0 -53 -1 -58q-34 -19 -60 -82l-215 -513q-35 -85 -131 -130l-78 112q59 24 97 57q33 25 48 56l-157 440q-11 31 -67 57q0 39 5 61h260q0 -64 -1 -69h-68l114 -348l107 288q6 16 0.5 32.5t-18.5 22.5q-3 3 -10 5.5t-14.5 4t-8.5 2.5v9q-1 9 -1 16q0 24 4 37h195z
M405 841l70 -81q-136 -101 -241 -148l-34 52q104 73 205 177z" />
    <glyph glyph-name="thorn" unicode="&#xfe;" horiz-adv-x="621" 
d="M584 284q0 -82 -24.5 -141.5t-67.5 -91t-92.5 -45.5t-108.5 -14q-41 0 -70 3l4 -106q0 -17 6.5 -22.5t25.5 -10.5l74 -15q2 -37 -5 -61h-322q-5 18 -5 57l34 13q42 14 42 61l3 360v408h-90v62q89 24 181 24q42 0 42 -42v-221q62 55 136 55q116 0 176.5 -63t60.5 -210z
M438 265q0 89 -31 145.5t-92 56.5q-49 0 -100 -18v-180l4 -199q34 -4 76 -4q71 0 107 55t36 144z" />
    <glyph glyph-name="ydieresis" unicode="&#xff;" horiz-adv-x="559" 
d="M181 643q-11 0 -41.5 31t-30.5 42q0 12 30.5 42.5t41.5 30.5q12 0 43 -31t31 -42q0 -10 -30.5 -41.5t-43.5 -31.5zM409 643q-11 0 -41.5 31t-30.5 42q0 12 30.5 42.5t41.5 30.5t42.5 -31t31.5 -42q0 -10 -30.5 -41.5t-43.5 -31.5zM560 546q0 -53 -1 -58q-34 -19 -60 -82
l-215 -513q-35 -85 -131 -130l-78 112q59 24 97 57q33 25 48 56l-157 440q-11 31 -67 57q0 39 5 61h260q0 -64 -1 -69h-68l114 -348l107 288q6 16 0.5 32.5t-18.5 22.5q-3 3 -10 5.5t-14.5 4t-8.5 2.5v9q-1 9 -1 16q0 24 4 37h195z" />
    <glyph glyph-name="Amacron" unicode="&#x100;" horiz-adv-x="721" 
d="M710 53q0 -34 -6 -53h-299q-7 22 -7 57l60 20q32 9 32 45q0 12 -7 33l-39 120h-233l-46 -119q-6 -16 -6 -29q0 -38 42 -51l66 -19q0 -37 -5 -57h-260q-5 20 -5 54q42 36 56 68l246 575l129 24l225 -596q13 -34 57 -72zM419 351l-56 172l-22 83h-7l-27 -81l-66 -174h178z
M513 773h-298v87h298v-87z" />
    <glyph glyph-name="amacron" unicode="&#x101;" horiz-adv-x="573" 
d="M570 47q-24 -22 -64.5 -38.5t-69.5 -16.5q-53 0 -73 20t-23 66q-84 -87 -174 -87q-66 0 -104.5 32t-38.5 94q0 147 209 177q75 10 105 12v63q0 43 -24.5 61.5t-88.5 18.5q-60 0 -142 -21l-24 95q95 36 193 36q33 0 56 -1t57 -9t55 -23t37 -45.5t16 -72.5v-135l7 -183h84z
M337 128v111q-55 -6 -81 -11q-95 -19 -95 -79q0 -23 15.5 -37t45.5 -14q35 0 115 30zM419 686h-303v81h303v-81z" />
    <glyph glyph-name="Abreve" unicode="&#x102;" horiz-adv-x="721" 
d="M710 53q0 -34 -6 -53h-299q-7 22 -7 57l60 20q32 9 32 45q0 12 -7 33l-39 120h-233l-46 -119q-6 -16 -6 -29q0 -38 42 -51l66 -19q0 -37 -5 -57h-260q-5 20 -5 54q42 36 56 68l246 575l129 24l225 -596q13 -34 57 -72zM419 351l-56 172l-22 83h-7l-27 -81l-66 -174h178z
M367 748q-60 0 -106 28t-65 61l53 50q58 -56 127 -56t118 52l34 -30q-17 -37 -58.5 -71t-102.5 -34z" />
    <glyph glyph-name="abreve" unicode="&#x103;" horiz-adv-x="573" 
d="M570 47q-24 -22 -64.5 -38.5t-69.5 -16.5q-53 0 -73 20t-23 66q-84 -87 -174 -87q-66 0 -104.5 32t-38.5 94q0 147 209 177q75 10 105 12v63q0 43 -24.5 61.5t-88.5 18.5q-60 0 -142 -21l-24 95q95 36 193 36q33 0 56 -1t57 -9t55 -23t37 -45.5t16 -72.5v-135l7 -183h84z
M337 128v111q-55 -6 -81 -11q-95 -19 -95 -79q0 -23 15.5 -37t45.5 -14q35 0 115 30zM400 796l34 -30q-18 -39 -60 -75t-107 -36q-59 0 -103.5 28.5t-64.5 62.5l56 53q58 -56 127 -56q70 0 118 53z" />
    <glyph glyph-name="Aogonek" unicode="&#x104;" horiz-adv-x="721" 
d="M542 -178l18 -60q-43 -27 -118 -27q-62 0 -97 30.5t-35 79.5q0 121 137 201q16 8 29.5 25t13.5 32q0 30 -12 66l-34 106h-233l-46 -119q-6 -16 -6 -29q0 -38 42 -51l66 -19q0 -37 -5 -57h-260q-5 20 -5 54q42 36 56 68l243 571l132 31l225 -599q13 -34 57 -72
q0 -34 -6 -53h-112q-86 0 -132 -29t-46 -97q1 -32 18 -50t43 -18q39 0 67 16zM419 351l-56 172l-22 83h-7l-27 -81l-66 -174h178z" />
    <glyph glyph-name="aogonek" unicode="&#x105;" horiz-adv-x="574" 
d="M442 -265q-62 0 -97 30.5t-35 79.5q0 82 89 150q-56 10 -59 84q-85 -88 -174 -88q-65 0 -104 32.5t-39 94.5q0 146 209 176q16 2 105 13v69q0 42 -23.5 58t-89.5 16q-60 0 -142 -21l-24 95q95 36 193 36q37 0 62.5 -2t58 -11t52.5 -25t34 -46t14 -73v-129l7 -183h84
l7 -44q-3 -2 -20.5 -12t-22.5 -13.5t-21 -13.5t-22 -15t-18.5 -15.5t-18 -18t-14 -18.5t-11.5 -21t-5.5 -22.5t-1.5 -25.5q1 -32 18 -49.5t43 -17.5q36 0 66 17l18 -60q-43 -27 -118 -27zM222 99q38 0 115 29v112q-2 0 -32 -4t-49 -8q-95 -18 -95 -78q0 -23 15.5 -37
t45.5 -14z" />
    <glyph glyph-name="Cacute" unicode="&#x106;" horiz-adv-x="689" 
d="M650 30q-97 -38 -223 -38q-188 0 -289 88t-101 268q0 158 109 264t277 106q78 0 121 -9.5t100 -33.5v-164q-24 -5 -57 -1q-44 119 -168 119q-108 0 -171.5 -65t-63.5 -206q0 -125 71 -191t188 -66q76 0 179 21zM308 742l-18 64q162 56 261 112l43 -96q-107 -45 -286 -80z
" />
    <glyph glyph-name="cacute" unicode="&#x107;" horiz-adv-x="530" 
d="M391 841l70 -81q-136 -101 -241 -148l-34 52q104 73 205 177zM502 464q0 -25 -15 -48.5t-43 -35.5q-29 32 -46 48t-44 31t-54 15q-56 0 -90.5 -46.5t-34.5 -141.5q0 -190 166 -190q42 0 131 17l23 -72q-81 -53 -197 -53q-139 0 -201 67t-62 192q0 146 77 229t219 83
q29 0 56.5 -4.5t54.5 -14.5t43.5 -29.5t16.5 -46.5z" />
    <glyph glyph-name="Ccircumflex" unicode="&#x108;" horiz-adv-x="689" 
d="M650 30q-97 -38 -223 -38q-188 0 -289 88t-101 268q0 158 109 264t277 106q78 0 121 -9.5t100 -33.5v-164q-24 -5 -57 -1q-44 119 -168 119q-108 0 -171.5 -65t-63.5 -206q0 -125 71 -191t188 -66q76 0 179 21zM269 733l-30 52q109 68 191 146q70 -64 177 -137l-39 -61
q-90 39 -150 81q-84 -52 -149 -81z" />
    <glyph glyph-name="ccircumflex" unicode="&#x109;" horiz-adv-x="530" 
d="M152 613l-40 47q100 77 194 184q107 -123 180 -177l-48 -54q-69 41 -144 108q-60 -51 -142 -108zM502 464q0 -25 -15 -48.5t-43 -35.5q-29 32 -46 48t-44 31t-54 15q-56 0 -90.5 -46.5t-34.5 -141.5q0 -190 166 -190q42 0 131 17l23 -72q-81 -53 -197 -53q-139 0 -201 67
t-62 192q0 146 77 229t219 83q29 0 56.5 -4.5t54.5 -14.5t43.5 -29.5t16.5 -46.5z" />
    <glyph glyph-name="Cdotaccent" unicode="&#x10a;" horiz-adv-x="689" 
d="M495 833q0 -11 -36 -48t-49 -37t-48.5 36.5t-35.5 48.5q0 15 35.5 50t48.5 35q12 0 48.5 -36t36.5 -49zM650 30q-97 -38 -223 -38q-188 0 -289 88t-101 268q0 158 109 264t277 106q78 0 121 -9.5t100 -33.5v-164q-24 -5 -57 -1q-44 119 -168 119q-108 0 -171.5 -65
t-63.5 -206q0 -125 71 -191t188 -66q76 0 179 21z" />
    <glyph glyph-name="cdotaccent" unicode="&#x10b;" horiz-adv-x="530" 
d="M502 464q0 -25 -15 -48.5t-43 -35.5q-29 32 -46 48t-44 31t-54 15q-56 0 -90.5 -46.5t-34.5 -141.5q0 -190 166 -190q42 0 131 17l23 -72q-81 -53 -197 -53q-139 0 -201 67t-62 192q0 146 77 229t219 83q29 0 56.5 -4.5t54.5 -14.5t43.5 -29.5t16.5 -46.5zM394 726
q0 -11 -36 -48t-49 -37q-14 0 -49.5 36.5t-35.5 48.5q0 15 35.5 50t49.5 35q12 0 48.5 -36t36.5 -49z" />
    <glyph glyph-name="Ccaron" unicode="&#x10c;" horiz-adv-x="689" 
d="M569 942l31 -51q-113 -72 -192 -147q-75 71 -177 137l40 61q90 -38 150 -80q78 48 148 80zM650 30q-97 -38 -223 -38q-188 0 -289 88t-101 268q0 158 109 264t277 106q78 0 121 -9.5t100 -33.5v-164q-24 -5 -57 -1q-44 119 -168 119q-108 0 -171.5 -65t-63.5 -206
q0 -125 71 -191t188 -66q76 0 179 21z" />
    <glyph glyph-name="ccaron" unicode="&#x10d;" horiz-adv-x="530" 
d="M491 787q-93 -73 -194 -184q-107 123 -180 177l49 53q61 -37 144 -107q70 59 142 107zM502 464q0 -25 -15 -48.5t-43 -35.5q-29 32 -46 48t-44 31t-54 15q-56 0 -90.5 -46.5t-34.5 -141.5q0 -190 166 -190q42 0 131 17l23 -72q-81 -53 -197 -53q-139 0 -201 67t-62 192
q0 146 77 229t219 83q29 0 56.5 -4.5t54.5 -14.5t43.5 -29.5t16.5 -46.5z" />
    <glyph glyph-name="Dcaron" unicode="&#x10e;" horiz-adv-x="806" 
d="M529 942l31 -51q-113 -72 -192 -147q-75 71 -177 137l40 61q90 -38 150 -80q78 48 148 80zM767 368q0 -179 -112.5 -273.5t-302.5 -94.5h-309q-6 34 -6 58l54 15q38 9 39 51l3 155v292q0 46 -40 64l-50 19q-2 32 4 53h299q75 0 135 -9t115 -32t91.5 -60.5t58 -97.5
t21.5 -140zM614 347q0 133 -69.5 205.5t-201.5 72.5h-69v-347l6 -197h83q251 0 251 266z" />
    <glyph glyph-name="dcaron" unicode="&#x10f;" horiz-adv-x="644" 
d="M617 847l110 -5q-9 -111 -70 -238l-66 11q26 112 26 232zM634 41q-88 -49 -168 -49q-35 0 -50 24.5t-15 57.5q-71 -81 -148 -81q-217 0 -217 259q0 135 80 216.5t201 81.5q47 0 87 -5v133h-93v65q103 21 176 21q30 0 41 -10t11 -40v-435l4 -188h81zM404 280v184
q-48 11 -90 11q-135 0 -135 -211q0 -160 124 -160q46 0 97 24z" />
    <glyph glyph-name="Dcroat" unicode="&#x110;" horiz-adv-x="806" 
d="M767 368q0 -179 -112.5 -273.5t-302.5 -94.5h-309q-6 34 -6 58l54 15q38 9 39 51l3 155v36h-89v80h89v176q0 46 -40 64l-50 19q-2 32 4 53h299q75 0 135 -9t115 -32t91.5 -60.5t58 -97.5t21.5 -140zM614 347q0 133 -69.5 205.5t-201.5 72.5h-69v-230h163v-80h-163v-37
l6 -197h83q251 0 251 266z" />
    <glyph glyph-name="dcroat" unicode="&#x111;" horiz-adv-x="645" 
d="M623 613h-84v-334l4 -188h81l10 -50q-86 -48 -168 -48q-35 0 -50 24.5t-15 57.5q-22 -24 -36.5 -37t-45.5 -29t-62 -16q-45 0 -81 10.5t-69.5 37t-52 80t-18.5 131.5q0 135 80 216.5t201 81.5q47 0 87 -5v68h-174v79h174v72h135v-72h84v-79zM404 280v184q-48 11 -90 11
q-75 0 -105 -57t-30 -163q0 -73 34.5 -111.5t89.5 -38.5q31 0 97 23z" />
    <glyph glyph-name="Emacron" unicode="&#x112;" horiz-adv-x="664" 
d="M635 171l-25 -171h-570q-6 29 -4 59l52 13q42 11 42 43l3 164v298q0 39 -28 50l-63 26v25q2 22 5 29h549v-164q-23 -4 -63 -4q-9 46 -28.5 64t-53.5 18l-178 5v-230l271 5v-92l-271 5v-36l5 -197l151 4q110 3 145 99zM491 773h-298v87h298v-87z" />
    <glyph glyph-name="emacron" unicode="&#x113;" horiz-adv-x="568" 
d="M453 686h-303v81h303v-81zM535 257h-359q4 -92 47.5 -125t125.5 -33q74 0 152 18l23 -75q-99 -53 -217 -53q-273 0 -273 253q0 141 75 229t202 88q114 0 169 -71t55 -190v-41zM389 324q0 159 -95 159q-54 0 -86.5 -45t-34.5 -114h216z" />
    <glyph glyph-name="Ebreve" unicode="&#x114;" horiz-adv-x="664" 
d="M635 171l-25 -171h-570q-6 29 -4 59l52 13q42 11 42 43l3 164v298q0 39 -28 50l-63 26v25q2 22 5 29h549v-164q-23 -4 -63 -4q-9 46 -28.5 64t-53.5 18l-178 5v-230l271 5v-92l-271 5v-36l5 -197l151 4q110 3 145 99zM344 748q-60 0 -106 28t-65 61l53 50q58 -56 127 -56
t118 52l34 -30q-17 -37 -58.5 -71t-102.5 -34z" />
    <glyph glyph-name="ebreve" unicode="&#x115;" horiz-adv-x="568" 
d="M535 257h-359q4 -92 47.5 -125t125.5 -33q74 0 152 18l23 -75q-99 -53 -217 -53q-273 0 -273 253q0 141 75 229t202 88q114 0 169 -71t55 -190v-41zM389 324q0 159 -95 159q-54 0 -86.5 -45t-34.5 -114h216zM430 796l34 -30q-18 -39 -60 -75t-107 -36q-59 0 -103.5 28.5
t-64.5 62.5l56 53q58 -56 127 -56q70 0 118 53z" />
    <glyph glyph-name="Edotaccent" unicode="&#x116;" horiz-adv-x="664" 
d="M635 171l-25 -171h-570q-6 29 -4 59l52 13q42 11 42 43l3 164v298q0 39 -28 50l-63 26v25q2 22 5 29h549v-164q-23 -4 -63 -4q-9 46 -28.5 64t-53.5 18l-178 5v-230l271 5v-92l-271 5v-36l5 -197l151 4q110 3 145 99zM432 833q0 -11 -36 -48t-49 -37t-48.5 36.5
t-35.5 48.5q0 15 35.5 50t48.5 35q12 0 48.5 -36t36.5 -49z" />
    <glyph glyph-name="edotaccent" unicode="&#x117;" horiz-adv-x="568" 
d="M535 257h-359q4 -92 47.5 -125t125.5 -33q74 0 152 18l23 -75q-99 -53 -217 -53q-273 0 -273 253q0 141 75 229t202 88q114 0 169 -71t55 -190v-41zM389 324q0 159 -95 159q-54 0 -86.5 -45t-34.5 -114h216zM379 726q0 -11 -36 -48t-49 -37q-14 0 -49.5 36.5t-35.5 48.5
q0 15 35.5 50t49.5 35q12 0 48.5 -36t36.5 -49z" />
    <glyph glyph-name="Eogonek" unicode="&#x118;" horiz-adv-x="665" 
d="M603 -178l19 -60q-45 -27 -118 -27q-64 0 -98 27.5t-34 75.5q0 97 148 162h-479q-7 33 -5 59l52 13q19 4 31 15.5t12 27.5l3 164v298q0 39 -28 50l-63 26q-4 29 4 54h550v-164q-15 -4 -63 -4q-9 46 -28.5 64t-53.5 18l-178 5v-230l271 5v-92l-271 5v-36l4 -197l152 4
q111 3 144 99l61 -13l-24 -171q-135 -69 -135 -137q0 -27 17.5 -42.5t43.5 -15.5q36 0 66 17z" />
    <glyph glyph-name="eogonek" unicode="&#x119;" horiz-adv-x="569" 
d="M492 -178l19 -60q-43 -27 -118 -27q-62 0 -97.5 30.5t-35.5 79.5q0 78 85 146q-6 -1 -22 -1q-73 0 -122.5 11.5t-89 40t-58.5 82.5t-19 136q0 120 74.5 210t194.5 90t176 -71t56 -191v-41h-359q4 -91 47.5 -124.5t124.5 -33.5q76 0 153 18l24 -76q-77 -34 -118.5 -71.5
t-41.5 -97.5q1 -32 18 -49.5t43 -17.5q36 0 66 17zM389 324q2 160 -94 160q-55 0 -86.5 -46t-35.5 -114h216z" />
    <glyph glyph-name="Ecaron" unicode="&#x11a;" horiz-adv-x="664" 
d="M635 171l-25 -171h-570q-6 29 -4 59l52 13q42 11 42 43l3 164v298q0 39 -28 50l-63 26v25q2 22 5 29h549v-164q-23 -4 -63 -4q-9 46 -28.5 64t-53.5 18l-178 5v-230l271 5v-92l-271 5v-36l5 -197l151 4q110 3 145 99zM503 942l31 -51q-113 -72 -192 -147q-75 71 -177 137
l40 61q90 -38 150 -80q78 48 148 80z" />
    <glyph glyph-name="ecaron" unicode="&#x11b;" horiz-adv-x="568" 
d="M488 787q-93 -73 -194 -184q-107 123 -180 177l49 53q61 -37 144 -107q70 59 142 107zM535 257h-359q4 -92 47.5 -125t125.5 -33q74 0 152 18l23 -75q-99 -53 -217 -53q-273 0 -273 253q0 141 75 229t202 88q114 0 169 -71t55 -190v-41zM389 324q0 159 -95 159
q-54 0 -86.5 -45t-34.5 -114h216z" />
    <glyph glyph-name="Gcircumflex" unicode="&#x11c;" horiz-adv-x="719" 
d="M273 733l-30 52q109 68 191 146q70 -64 177 -137l-39 -61q-90 39 -150 81q-84 -52 -149 -81zM427 -8q-188 0 -289 88t-101 268q0 158 109 264t277 106q79 0 127.5 -10.5t109.5 -35.5v-165q-22 -2 -57 0q-46 123 -184 123q-107 0 -171 -68t-64 -210q0 -68 21.5 -119
t60.5 -81t88 -45t110 -16q36 0 58 5v200h140v-264q-99 -40 -235 -40z" />
    <glyph glyph-name="gcircumflex" unicode="&#x11d;" horiz-adv-x="610" 
d="M153 613l-40 47q100 77 194 184q107 -123 180 -177l-48 -54q-69 41 -144 108q-60 -51 -142 -108zM602 450h-105q13 -28 13 -71q0 -82 -64 -132.5t-166 -50.5q-67 0 -115 18v-89h180q127 0 176.5 -35.5t49.5 -105.5q0 -97 -92.5 -152t-229.5 -55q-60 0 -106.5 10t-80.5 39
t-34 75q0 40 26.5 70.5t61.5 47.5q-20 0 -39.5 16t-19.5 47q0 58 67 150q-71 44 -71 133q0 80 59.5 136.5t167.5 56.5q107 0 164 -42l158 36v-102zM370 372q0 51 -23.5 82.5t-66.5 31.5q-52 0 -75 -32t-23 -80q0 -108 95 -108q45 0 69 28.5t24 77.5zM435 -43
q0 29 -23.5 41.5t-73.5 12.5h-168q-29 -29 -29 -61q0 -40 36 -64.5t113 -24.5q68 0 106.5 26t38.5 70z" />
    <glyph glyph-name="Gbreve" unicode="&#x11e;" horiz-adv-x="719" 
d="M417 748q-60 0 -106 28t-65 61l53 50q58 -56 127 -56t118 52l34 -30q-17 -37 -58.5 -71t-102.5 -34zM427 -8q-188 0 -289 88t-101 268q0 158 109 264t277 106q79 0 127.5 -10.5t109.5 -35.5v-165q-22 -2 -57 0q-46 123 -184 123q-107 0 -171 -68t-64 -210
q0 -68 21.5 -119t60.5 -81t88 -45t110 -16q36 0 58 5v200h140v-264q-99 -40 -235 -40z" />
    <glyph glyph-name="gbreve" unicode="&#x11f;" horiz-adv-x="610" 
d="M602 450h-105q13 -28 13 -71q0 -82 -64 -132.5t-166 -50.5q-67 0 -115 18v-89h180q127 0 176.5 -35.5t49.5 -105.5q0 -97 -92.5 -152t-229.5 -55q-60 0 -106.5 10t-80.5 39t-34 75q0 40 26.5 70.5t61.5 47.5q-20 0 -39.5 16t-19.5 47q0 58 67 150q-71 44 -71 133
q0 80 59.5 136.5t167.5 56.5q107 0 164 -42l158 36v-102zM370 372q0 51 -23.5 82.5t-66.5 31.5q-52 0 -75 -32t-23 -80q0 -108 95 -108q45 0 69 28.5t24 77.5zM435 -43q0 29 -23.5 41.5t-73.5 12.5h-168q-29 -29 -29 -61q0 -40 36 -64.5t113 -24.5q68 0 106.5 26t38.5 70z
M411 796l34 -30q-18 -39 -60 -75t-107 -36q-59 0 -103.5 28.5t-64.5 62.5l56 53q58 -56 127 -56q70 0 118 53z" />
    <glyph glyph-name="Gdotaccent" unicode="&#x120;" horiz-adv-x="719" 
d="M507 833q0 -11 -36 -48t-49 -37t-48.5 36.5t-35.5 48.5q0 15 35.5 50t48.5 35q12 0 48.5 -36t36.5 -49zM427 -8q-188 0 -289 88t-101 268q0 158 109 264t277 106q79 0 127.5 -10.5t109.5 -35.5v-165q-22 -2 -57 0q-46 123 -184 123q-107 0 -171 -68t-64 -210
q0 -68 21.5 -119t60.5 -81t88 -45t110 -16q36 0 58 5v200h140v-264q-99 -40 -235 -40z" />
    <glyph glyph-name="gdotaccent" unicode="&#x121;" horiz-adv-x="610" 
d="M360 726q0 -11 -36 -48t-49 -37q-14 0 -49.5 36.5t-35.5 48.5q0 15 35.5 50t49.5 35q12 0 48.5 -36t36.5 -49zM602 450h-105q13 -28 13 -71q0 -82 -64 -132.5t-166 -50.5q-67 0 -115 18v-89h180q127 0 176.5 -35.5t49.5 -105.5q0 -97 -92.5 -152t-229.5 -55
q-60 0 -106.5 10t-80.5 39t-34 75q0 40 26.5 70.5t61.5 47.5q-20 0 -39.5 16t-19.5 47q0 58 67 150q-71 44 -71 133q0 80 59.5 136.5t167.5 56.5q107 0 164 -42l158 36v-102zM370 372q0 51 -23.5 82.5t-66.5 31.5q-52 0 -75 -32t-23 -80q0 -108 95 -108q45 0 69 28.5
t24 77.5zM435 -43q0 29 -23.5 41.5t-73.5 12.5h-168q-29 -29 -29 -61q0 -40 36 -64.5t113 -24.5q68 0 106.5 26t38.5 70z" />
    <glyph glyph-name="Gcommaaccent" unicode="&#x122;" horiz-adv-x="719" 
d="M377 -63l111 -5q-10 -113 -70 -239l-67 11q27 114 26 233zM427 -8q-188 0 -289 88t-101 268q0 158 109 264t277 106q79 0 127.5 -10.5t109.5 -35.5v-165q-22 -2 -57 0q-46 123 -184 123q-107 0 -171 -68t-64 -210q0 -68 21.5 -119t60.5 -81t88 -45t110 -16q36 0 58 5v200
h140v-264q-99 -40 -235 -40z" />
    <glyph glyph-name="gcommaaccent" unicode="&#x123;" horiz-adv-x="610" 
d="M330 618l-111 5q10 113 70 239l67 -11q-27 -114 -26 -233zM602 450h-105q13 -28 13 -71q0 -82 -64 -132.5t-166 -50.5q-67 0 -115 18v-89h180q127 0 176.5 -35.5t49.5 -105.5q0 -97 -92.5 -152t-229.5 -55q-60 0 -106.5 10t-80.5 39t-34 75q0 40 26.5 70.5t61.5 47.5
q-20 0 -39.5 16t-19.5 47q0 58 67 150q-71 44 -71 133q0 80 59.5 136.5t167.5 56.5q107 0 164 -42l158 36v-102zM370 372q0 51 -23.5 82.5t-66.5 31.5q-52 0 -75 -32t-23 -80q0 -108 95 -108q45 0 69 28.5t24 77.5zM435 -43q0 29 -23.5 41.5t-73.5 12.5h-168
q-29 -29 -29 -61q0 -40 36 -64.5t113 -24.5q68 0 106.5 26t38.5 70z" />
    <glyph glyph-name="Hcircumflex" unicode="&#x124;" horiz-adv-x="875" 
d="M844 55q0 -35 -6 -55h-320q-5 23 -5 53l56 20q38 13 38 62l2 143v36h-341v-36l3 -164q1 -20 8 -28.5t28 -13.5l72 -18q0 -36 -6 -54h-328q-5 28 -4 52l50 19q21 8 28.5 20.5t8.5 41.5l1 145v312q0 40 -33 51l-52 18q0 32 5 48h297q6 -23 4 -49l-50 -15
q-17 -5 -24.5 -16.5t-7.5 -34.5v-197h341v190q0 47 -37 58l-47 16q-3 27 1 48h296q3 -20 1 -49l-46 -15q-16 -6 -22.5 -14.5t-6.5 -27.5v-323l3 -154q0 -42 22 -48zM292 733l-30 52q109 68 191 146q70 -64 177 -137l-39 -61q-90 39 -150 81q-84 -52 -149 -81z" />
    <glyph glyph-name="hcircumflex" unicode="&#x125;" horiz-adv-x="697" 
d="M683 58q0 -38 -7 -58h-271q-5 33 -3 56l38 17q21 10 23 45l2 156v64q0 64 -15.5 92t-72.5 28q-79 0 -142 -28v-156l3 -158q0 -33 17 -40l58 -18q0 -38 -5 -58h-282q-7 28 -5 53l48 18q27 9 27 50l3 153v406h-87v63q99 22 181 22q21 0 30 -8.5t9 -26.5v-241q93 69 191 69
q50 0 84 -9.5t52.5 -23t28 -40t11.5 -48.5t2 -60v-103l3 -173q1 -24 16 -28zM9 780l-30 52q109 68 191 146q70 -64 177 -137l-39 -61q-90 39 -150 81q-84 -52 -149 -81z" />
    <glyph glyph-name="Hbar" unicode="&#x126;" horiz-adv-x="878" 
d="M844 55q0 -35 -6 -55h-320q-5 23 -5 53l56 20q38 13 38 62l2 143v36h-341v-36l3 -164q1 -20 8 -28.5t28 -13.5l72 -18q0 -36 -6 -54h-328q-5 28 -4 52l50 19q21 8 28.5 20.5t8.5 41.5l1 145v202h-79v70h79v40q0 40 -33 51l-52 18q0 32 5 48h297q6 -23 4 -49l-50 -15
q-17 -5 -24.5 -16.5t-7.5 -34.5v-42h341v35q0 47 -37 58l-47 16q-3 27 1 48h296q3 -20 1 -49l-46 -15q-16 -6 -22.5 -14.5t-6.5 -27.5v-51h78v-70h-78v-202l3 -154q0 -42 22 -48zM268 395h341v85h-341v-85z" />
    <glyph glyph-name="hbar" unicode="&#x127;" horiz-adv-x="697" 
d="M683 58q0 -38 -7 -58h-271q-5 33 -3 56l38 17q23 11 23 45l2 156v65q0 64 -15.5 91.5t-72.5 27.5q-81 0 -142 -27v-157l3 -158q0 -33 17 -40l58 -18q0 -38 -5 -58h-284q-4 22 -3 53l48 18q27 9 27 50l3 153v339h-90v79h90v72l133 -1v-71h197v-79h-197v-123q93 69 191 69
q50 0 84 -9.5t52.5 -23t28 -40t11.5 -48.5t2 -60v-104l3 -173q1 -24 16 -28z" />
    <glyph glyph-name="Itilde" unicode="&#x128;" horiz-adv-x="403" 
d="M367 61q0 -41 -6 -61h-314q-6 24 -4 54l43 15q43 16 44 61l3 148v294q0 48 -51 66l-37 16q-2 34 2 53h308q4 -27 0 -59l-43 -10q-39 -10 -39 -63v-297l2 -170q1 -16 6 -22t19 -10zM282 753q-21 0 -93 20t-88 20q-35 0 -70 -24l-28 35q25 29 34.5 39.5t35.5 26t53 15.5
q28 0 98 -19t81 -19q46 0 66 20l29 -33q-17 -25 -28.5 -39t-36 -28t-53.5 -14z" />
    <glyph glyph-name="itilde" unicode="&#x129;" horiz-adv-x="362" 
d="M350 58q0 -38 -5 -58h-310q-4 19 -4 56l60 19q26 7 28 44l3 154v199h-93v65q96 21 181 21q25 0 36.5 -9t11.5 -34v-242l2 -161q0 -31 16 -36zM378 732q-3 -3 -11 -13.5t-11.5 -14.5t-11.5 -13t-13.5 -13t-14 -10.5t-17 -9.5t-19 -5t-21.5 -2q-21 0 -89 20t-83 20
q-41 0 -70 -25l-29 36q2 2 11.5 13t12.5 14.5t13 13t15 13.5t15 10.5t17.5 9t18 5t21.5 2.5q28 0 93.5 -19t76.5 -19q20 0 36.5 5t23.5 10l6 5z" />
    <glyph glyph-name="Imacron" unicode="&#x12a;" horiz-adv-x="403" 
d="M367 61q0 -41 -6 -61h-314q-6 24 -4 54l43 15q43 16 44 61l3 148v294q0 48 -51 66l-37 16q-2 34 2 53h308q4 -27 0 -59l-43 -10q-39 -10 -39 -63v-297l2 -170q1 -16 6 -22t19 -10zM352 773h-298v87h298v-87z" />
    <glyph glyph-name="imacron" unicode="&#x12b;" horiz-adv-x="362" 
d="M350 58q0 -38 -5 -58h-310q-4 19 -4 56l60 19q26 7 28 44l3 154v199h-93v65q96 21 181 21q25 0 36.5 -9t11.5 -34v-242l2 -161q0 -31 16 -36zM326 686h-303v81h303v-81z" />
    <glyph glyph-name="Ibreve" unicode="&#x12c;" horiz-adv-x="403" 
d="M367 61q0 -41 -6 -61h-314q-6 24 -4 54l43 15q43 16 44 61l3 148v294q0 48 -51 66l-37 16q-2 34 2 53h308q4 -27 0 -59l-43 -10q-39 -10 -39 -63v-297l2 -170q1 -16 6 -22t19 -10zM207 748q-60 0 -106 28t-65 61l53 50q58 -56 127 -56t118 52l34 -30q-17 -37 -58.5 -71
t-102.5 -34z" />
    <glyph glyph-name="ibreve" unicode="&#x12d;" horiz-adv-x="362" 
d="M350 58q0 -38 -5 -58h-310q-4 19 -4 56l60 19q26 7 28 44l3 154v199h-93v65q96 21 181 21q25 0 36.5 -9t11.5 -34v-242l2 -161q0 -31 16 -36zM314 796l34 -30q-18 -39 -60 -75t-107 -36q-59 0 -103.5 28.5t-64.5 62.5l56 53q58 -56 127 -56q70 0 118 53z" />
    <glyph glyph-name="Iogonek" unicode="&#x12e;" horiz-adv-x="401" 
d="M183 -178l18 -60q-43 -27 -118 -27q-62 0 -97 30.5t-35 79.5q0 64 32.5 109t91.5 87q22 14 37.5 40t16.5 49l2 148v294q0 47 -50 66l-38 16q0 4 -0.5 12.5t-0.5 13.5q0 12 3 27h309q3 -35 -1 -59l-43 -10q-39 -10 -39 -63v-297l3 -170q0 -16 4.5 -22t18.5 -10l69 -15
q0 -37 -6 -61h-136q-73 0 -121 -33t-48 -95q1 -32 18.5 -49.5t43.5 -17.5q36 0 66 17z" />
    <glyph glyph-name="iogonek" unicode="&#x12f;" horiz-adv-x="363" 
d="M167 -178l18 -60q-43 -27 -118 -27q-62 0 -97 30.5t-35 79.5q0 62 37.5 112t98.5 80q48 23 49 87l2 149v198h-92v66q95 21 181 21q25 0 36.5 -9t11.5 -34v-242l1 -161q1 -32 17 -36l74 -18q0 -39 -6 -58h-157q-69 0 -109 -36t-40 -92q1 -32 18.5 -49.5t43.5 -17.5
q36 0 66 17zM276 724q0 -11 -37.5 -49.5t-51.5 -38.5t-51 37.5t-37 50.5q0 15 37 51.5t51 36.5q12 0 50.5 -37.5t38.5 -50.5z" />
    <glyph glyph-name="Idotaccent" unicode="&#x130;" horiz-adv-x="403" 
d="M285 833q0 -11 -36 -48t-49 -37t-48.5 36.5t-35.5 48.5q0 15 35.5 50t48.5 35q12 0 48.5 -36t36.5 -49zM367 61q0 -41 -6 -61h-314q-6 24 -4 54l43 15q43 16 44 61l3 148v294q0 48 -51 66l-37 16q-2 34 2 53h308q4 -27 0 -59l-43 -10q-39 -10 -39 -63v-297l2 -170
q1 -16 6 -22t19 -10z" />
    <glyph glyph-name="dotlessi" unicode="&#x131;" horiz-adv-x="362" 
d="M350 58q0 -38 -5 -58h-310q-4 19 -4 56l60 19q26 7 28 44l3 154v199h-93v65q96 21 181 21q25 0 36.5 -9t11.5 -34v-242l2 -161q0 -31 16 -36z" />
    <glyph glyph-name="IJ" unicode="&#x132;" horiz-adv-x="764" 
d="M367 61q0 -41 -6 -61h-314q-6 24 -4 54l43 15q43 16 44 61l3 148v294q0 48 -51 66l-37 16q-2 34 2 53h308q4 -27 0 -59l-43 -10q-39 -10 -39 -63v-297l2 -170q1 -16 6 -22t19 -10zM737 651l-47 -12q-24 -6 -31 -14t-7 -30v-501q0 -53 -20 -97t-57 -77t-74 -55t-87 -45
l-44 78q87 53 114 99t27 149v419q0 57 -48 74l-44 15q0 39 5 53h310q5 -26 3 -56z" />
    <glyph glyph-name="ij" unicode="&#x133;" horiz-adv-x="714" 
d="M35 0q-4 19 -4 56l61 19q27 7 27 44l3 154v197h-92v65q99 22 180 22q25 0 36.5 -9.5t11.5 -34.5v-240l2 -161q1 -32 17 -36l74 -18q0 -39 -6 -58h-310zM187 636q-15 0 -51.5 37.5t-36.5 50.5q0 15 36.5 51.5t51.5 36.5q12 0 50.5 -37.5t38.5 -50.5q0 -11 -37.5 -49.5
t-51.5 -38.5zM420 -225q-54 0 -90 18l33 106q34 -18 76 -18q35 0 50.5 23.5t15.5 76.5v489h-89v65q99 22 178 22q25 0 36 -9.5t11 -34.5v-240l1 -229q1 -103 -72.5 -186t-149.5 -83zM572 636q-14 0 -50.5 37.5t-36.5 51.5q0 15 36.5 51.5t50.5 36.5q13 0 51 -37.5t38 -50.5
q0 -11 -37.5 -50t-51.5 -39z" />
    <glyph glyph-name="Jcircumflex" unicode="&#x134;" horiz-adv-x="384" 
d="M357 651l-47 -12q-24 -6 -31 -14t-7 -30v-501q0 -53 -20 -97t-57 -77t-74 -55t-87 -45l-44 78q87 53 114 99t27 149v419q0 57 -48 74l-44 15q0 39 5 53h310q5 -26 3 -56zM49 733l-30 52q109 68 191 146q70 -64 177 -137l-39 -61q-90 39 -150 81q-84 -52 -149 -81z" />
    <glyph glyph-name="jcircumflex" unicode="&#x135;" horiz-adv-x="312" 
d="M9 613l-40 47q100 77 194 184q107 -123 180 -177l-48 -54q-69 41 -144 108q-60 -51 -142 -108zM18 -220q-53 0 -89 17l33 107q34 -18 76 -18q35 0 50.5 23t15.5 77v485h-90v66q94 21 179 21q25 0 36 -9t11 -34v-242l1 -224q1 -103 -73 -186t-150 -83z" />
    <glyph glyph-name="Kcommaaccent" unicode="&#x136;" horiz-adv-x="753" 
d="M369 -63l111 -5q-10 -113 -70 -239l-67 11q27 114 26 233zM41 0q-5 23 -3 54l47 15q18 6 30.5 22.5t13.5 38.5l3 148v298q0 21 -13 37t-30 23l-45 18q-2 35 3 53h307q4 -32 0 -57l-46 -14q-36 -10 -36 -60v-295l2 -171q0 -16 4.5 -22.5t17.5 -9.5l63 -17q0 -38 -7 -61
h-311zM746 -16q-153 3 -225 83l-246 270v29l215 202q17 14 17 33q0 28 -19 35l-36 15q0 36 5 56h264v-47l-315 -271l183 -189q98 -102 171 -145z" />
    <glyph glyph-name="kcommaaccent" unicode="&#x137;" horiz-adv-x="631" 
d="M629 53l-14 -70q-88 5 -145.5 33.5t-104.5 93.5l-123 163l2 -147q2 -39 22 -52l30 -20q0 -35 -6 -54h-269q-4 22 -3 53l56 18q29 9 29 49l3 154v404h-90v65q94 21 179 21q24 0 35.5 -10t11.5 -34v-431l157 144q14 11 14 26q0 20 -16 25l-37 17q0 30 4 45h218v-47
l-210 -180l113 -142q81 -102 144 -124zM292 -63l111 -5q-10 -113 -70 -239l-67 11q27 114 26 233z" />
    <glyph glyph-name="uni0138" unicode="&#x138;" horiz-adv-x="643" 
d="M644 43l-15 -70q-86 4 -143.5 35t-106.5 98l-122 166l1 -146q2 -39 22 -52l30 -20q0 -35 -6 -54h-269q-4 22 -3 53l57 18q28 9 28 49l3 154v197h-90v64q95 21 179 21q48 0 48 -44v-222l156 143q14 11 14 26q0 20 -16 25l-37 17q0 30 4 45h218v-47l-210 -180l113 -146
q87 -109 145 -130z" />
    <glyph glyph-name="Lacute" unicode="&#x139;" horiz-adv-x="617" 
d="M125 742l-18 64q162 56 261 112l43 -96q-107 -45 -286 -80zM616 199l-32 -199h-542q-5 26 -3 56l47 13q18 6 30.5 21t12.5 36l3 151v299q0 21 -13 37t-29 23l-47 18q0 37 4 53h308q2 -42 -1 -59l-45 -11q-37 -9 -37 -48v-311l4 -196l153 9q40 2 73.5 39t49.5 80z" />
    <glyph glyph-name="lacute" unicode="&#x13a;" horiz-adv-x="348" 
d="M72 786l-18 64q162 56 261 112l43 -96q-107 -45 -286 -80zM335 58q0 -38 -5 -58h-309q-4 24 -4 53l57 17q28 9 28 46l4 158v404h-90v65q88 21 179 21q24 0 35.5 -10t11.5 -34v-446l3 -163q2 -32 14 -35z" />
    <glyph glyph-name="Lcommaaccent" unicode="&#x13b;" horiz-adv-x="617" 
d="M268 -63l111 -5q-10 -113 -70 -239l-67 11q27 114 26 233zM616 199l-32 -199h-542q-5 26 -3 56l47 13q18 6 30.5 21t12.5 36l3 151v299q0 21 -13 37t-29 23l-47 18q0 37 4 53h308q2 -42 -1 -59l-45 -11q-37 -9 -37 -48v-311l4 -196l153 9q40 2 73.5 39t49.5 80z" />
    <glyph glyph-name="lcommaaccent" unicode="&#x13c;" horiz-adv-x="348" 
d="M122 -63l111 -5q-10 -113 -70 -239l-67 11q27 114 26 233zM335 58q0 -38 -5 -58h-309q-4 24 -4 53l57 17q28 9 28 46l4 158v404h-90v65q88 21 179 21q24 0 35.5 -10t11.5 -34v-446l3 -163q2 -32 14 -35z" />
    <glyph glyph-name="Lcaron" unicode="&#x13d;" horiz-adv-x="617" 
d="M452 841l110 -5q-9 -111 -70 -238l-66 11q26 112 26 232zM616 199l-32 -199h-542q-5 26 -3 56l47 13q18 6 30.5 21t12.5 36l3 151v299q0 21 -13 37t-29 23l-47 18q0 37 4 53h308q2 -42 -1 -59l-45 -11q-37 -9 -37 -48v-311l4 -196l153 9q40 2 73.5 39t49.5 80z" />
    <glyph glyph-name="lcaron" unicode="&#x13e;" horiz-adv-x="348" 
d="M328 840l110 -5q-9 -111 -70 -238l-66 11q26 112 26 232zM335 58q0 -38 -5 -58h-309q-4 24 -4 53l57 17q28 9 28 46l4 158v404h-90v65q88 21 179 21q24 0 35.5 -10t11.5 -34v-446l3 -163q2 -32 14 -35z" />
    <glyph glyph-name="Ldot" unicode="&#x13f;" horiz-adv-x="617" 
d="M527 325q-14 0 -51 37t-37 51t37 50.5t51 36.5q15 0 51 -36.5t36 -50.5q0 -13 -36 -50.5t-51 -37.5zM616 199l-32 -199h-542q-5 26 -3 56l47 13q18 6 30.5 21t12.5 36l3 151v299q0 21 -13 37t-29 23l-47 18q0 37 4 53h308q2 -42 -1 -59l-45 -11q-37 -9 -37 -48v-311
l4 -196l153 9q40 2 73.5 39t49.5 80z" />
    <glyph glyph-name="ldot" unicode="&#x140;" horiz-adv-x="473" 
d="M411 269q-15 0 -54.5 39.5t-39.5 54.5q0 14 39.5 53.5t54.5 39.5t54 -39t39 -54q0 -14 -38.5 -54t-54.5 -40zM335 58q0 -38 -5 -58h-309q-4 24 -4 53l57 17q28 9 28 46l4 158v404h-90v65q88 21 179 21q24 0 35.5 -10t11.5 -34v-446l3 -163q2 -32 14 -35z" />
    <glyph glyph-name="Lslash" unicode="&#x141;" horiz-adv-x="618" 
d="M41 257v65l91 51v203q0 21 -13 37t-29 23l-47 18q0 37 4 53h308q2 -42 -1 -59l-45 -11q-37 -9 -37 -48v-137l177 100v-83l-177 -92v-99l4 -196l153 9q40 2 73.5 39t49.5 80l64 -11l-32 -199h-542q-5 26 -3 56l47 13q18 6 30.5 21t12.5 36l3 151v27z" />
    <glyph glyph-name="lslash" unicode="&#x142;" horiz-adv-x="348" 
d="M335 58q0 -38 -5 -58h-309q-4 24 -4 53l57 17q28 9 28 46l4 158v35l-88 -46v65l88 50v300h-90v65q88 21 179 21q24 0 35.5 -10t11.5 -34v-265l94 54v-79l-94 -50v-106l3 -163q2 -32 14 -35z" />
    <glyph glyph-name="Nacute" unicode="&#x143;" horiz-adv-x="844" 
d="M335 742l-18 64q162 56 261 112l43 -96q-107 -45 -286 -80zM821 661l-53 -23q-18 -8 -29.5 -27t-11.5 -42v-563l-108 -29l-397 552h-7l6 -80v-176l3 -155q0 -19 4 -26t20 -12l85 -25q0 -41 -5 -55h-293q-6 29 -4 53l51 15q22 6 34.5 31t13.5 56l2 118v308q0 36 -29 51
l-61 27q0 41 2 48h221l374 -512h7l-7 105v268q0 46 -37 64l-63 27q0 37 4 48h274q4 -30 4 -46z" />
    <glyph glyph-name="nacute" unicode="&#x144;" horiz-adv-x="711" 
d="M475 841l70 -81q-136 -101 -241 -148l-34 52q104 73 205 177zM698 57q0 -40 -6 -57h-268q-5 33 -3 56l32 17q23 12 23 44l3 157v63q0 64 -16 92t-73 28q-80 0 -138 -28v-155l2 -161q0 -32 15 -37l62 -18q0 -42 -5 -58h-285q-4 32 -3 53l47 18q28 11 28 47l3 156v196h-87
v65q95 21 181 21q21 0 29.5 -8.5t8.5 -27.5v-31q93 69 188 69q42 0 73 -5.5t50 -18.5t31 -26.5t17 -37.5t6.5 -43t1.5 -50v-103l3 -176q1 -23 14 -25z" />
    <glyph glyph-name="Ncommaaccent" unicode="&#x145;" horiz-adv-x="844" 
d="M381 -63l111 -5q-10 -113 -70 -239l-67 11q27 114 26 233zM821 661l-53 -23q-18 -8 -29.5 -27t-11.5 -42v-563l-108 -29l-397 552h-7l6 -80v-176l3 -155q0 -19 4 -26t20 -12l85 -25q0 -41 -5 -55h-293q-6 29 -4 53l51 15q22 6 34.5 31t13.5 56l2 118v308q0 36 -29 51
l-61 27q0 41 2 48h221l374 -512h7l-7 105v268q0 46 -37 64l-63 27q0 37 4 48h274q4 -30 4 -46z" />
    <glyph glyph-name="ncommaaccent" unicode="&#x146;" horiz-adv-x="711" 
d="M324 -63l111 -5q-10 -113 -70 -239l-67 11q27 114 26 233zM698 57q0 -40 -6 -57h-268q-5 33 -3 56l32 17q23 12 23 44l3 157v63q0 64 -16 92t-73 28q-80 0 -138 -28v-155l2 -161q0 -32 15 -37l62 -18q0 -42 -5 -58h-285q-4 32 -3 53l47 18q28 11 28 47l3 156v196h-87v65
q95 21 181 21q21 0 29.5 -8.5t8.5 -27.5v-31q93 69 188 69q42 0 73 -5.5t50 -18.5t31 -26.5t17 -37.5t6.5 -43t1.5 -50v-103l3 -176q1 -23 14 -25z" />
    <glyph glyph-name="Ncaron" unicode="&#x147;" horiz-adv-x="844" 
d="M583 942l31 -51q-113 -72 -192 -147q-75 71 -177 137l40 61q90 -38 150 -80q78 48 148 80zM821 661l-53 -23q-18 -8 -29.5 -27t-11.5 -42v-563l-108 -29l-397 552h-7l6 -80v-176l3 -155q0 -19 4 -26t20 -12l85 -25q0 -41 -5 -55h-293q-6 29 -4 53l51 15q22 6 34.5 31
t13.5 56l2 118v308q0 36 -29 51l-61 27q0 41 2 48h221l374 -512h7l-7 105v268q0 46 -37 64l-63 27q0 37 4 48h274q4 -30 4 -46z" />
    <glyph glyph-name="ncaron" unicode="&#x148;" horiz-adv-x="711" 
d="M555 787q-93 -73 -194 -184q-107 123 -180 177l49 53q61 -37 144 -107q70 59 142 107zM698 57q0 -40 -6 -57h-268q-5 33 -3 56l32 17q23 12 23 44l3 157v63q0 64 -16 92t-73 28q-80 0 -138 -28v-155l2 -161q0 -32 15 -37l62 -18q0 -42 -5 -58h-285q-4 32 -3 53l47 18
q28 11 28 47l3 156v196h-87v65q95 21 181 21q21 0 29.5 -8.5t8.5 -27.5v-31q93 69 188 69q42 0 73 -5.5t50 -18.5t31 -26.5t17 -37.5t6.5 -43t1.5 -50v-103l3 -176q1 -23 14 -25z" />
    <glyph glyph-name="napostrophe" unicode="&#x149;" horiz-adv-x="846" 
d="M169 651q0 -55 -44.5 -114.5t-102.5 -95.5l-38 35q63 68 69 106q-20 16 -42 42.5t-22 36.5q0 18 36 53.5t53 35.5q22 0 56.5 -37.5t34.5 -61.5zM833 57q0 -40 -6 -57h-268q-5 33 -3 56l32 17q23 12 23 44l3 157v63q0 64 -16 92t-73 28q-80 0 -138 -28v-155l2 -161
q0 -32 15 -37l62 -18q0 -42 -5 -58h-285q-4 32 -3 53l47 18q28 11 28 47l3 156v196h-87v65q95 21 181 21q21 0 29.5 -8.5t8.5 -27.5v-31q93 69 188 69q42 0 73 -5.5t50 -18.5t31 -26.5t17 -37.5t6.5 -43t1.5 -50v-103l3 -176q1 -23 14 -25z" />
    <glyph glyph-name="Eng" unicode="&#x14a;" horiz-adv-x="846" 
d="M821 661l-53 -23q-17 -8 -29 -27.5t-12 -41.5v-355l5 -205q2 -99 -52.5 -160t-133.5 -61q-39 0 -60 8l9 77q34 -8 63 -8q50 0 65 26t15 96l-28 -10l-388 552h-7l6 -80v-176l3 -155q0 -19 4 -26t20 -12l85 -25q0 -41 -5 -55h-293q-6 29 -4 53l51 15q21 6 34 32.5t14 54.5
l2 118v308q0 36 -29 51l-61 27q0 41 2 48h221l374 -519h7l-7 105v275q0 19 -11 37.5t-26 26.5l-63 27q0 37 4 48h274q4 -30 4 -46z" />
    <glyph glyph-name="eng" unicode="&#x14b;" horiz-adv-x="683" 
d="M432 -216q-63 0 -108 14l13 86q42 -7 68 -7q42 0 58 21.5t16 79.5v361q0 63 -16 91t-73 28q-77 0 -138 -27v-157l2 -161q0 -32 15 -37l62 -18q0 -42 -5 -58h-285q-4 32 -3 53l47 18q28 11 28 47l3 156v197h-87v65q95 21 181 21q21 0 29.5 -8t8.5 -27v-32q93 69 188 69
q42 0 73 -5.5t50 -18.5t31 -26.5t17 -37.5t6.5 -43t1.5 -50v-152l5 -199q1 -93 -50.5 -168t-137.5 -75z" />
    <glyph glyph-name="Omacron" unicode="&#x14c;" horiz-adv-x="821" 
d="M566 773h-298v87h298v-87zM783 382q0 -167 -105.5 -280.5t-281.5 -113.5q-175 0 -266.5 87t-91.5 248q0 169 109.5 282t280.5 113q178 0 266.5 -89t88.5 -247zM624 358q0 122 -51 195.5t-160 73.5q-59 0 -102 -21.5t-67 -60.5t-35.5 -87t-11.5 -106q0 -121 49.5 -196
t159.5 -75q218 0 218 277z" />
    <glyph glyph-name="omacron" unicode="&#x14d;" horiz-adv-x="608" 
d="M455 686h-303v81h303v-81zM575 277q0 -112 -81 -200t-197 -88q-127 0 -195.5 69t-68.5 208q0 112 81 202.5t192 90.5q269 0 269 -282zM428 274q0 199 -133 199q-30 0 -52.5 -13t-34.5 -32t-19 -48t-9 -52.5t-2 -53.5q0 -195 135 -195q35 0 58.5 15.5t35.5 44t16.5 61
t4.5 74.5z" />
    <glyph glyph-name="Obreve" unicode="&#x14e;" horiz-adv-x="821" 
d="M416 748q-60 0 -106 28t-65 61l53 50q58 -56 127 -56t118 52l34 -30q-17 -37 -58.5 -71t-102.5 -34zM783 382q0 -167 -105.5 -280.5t-281.5 -113.5q-175 0 -266.5 87t-91.5 248q0 169 109.5 282t280.5 113q178 0 266.5 -89t88.5 -247zM624 358q0 122 -51 195.5t-160 73.5
q-59 0 -102 -21.5t-67 -60.5t-35.5 -87t-11.5 -106q0 -121 49.5 -196t159.5 -75q218 0 218 277z" />
    <glyph glyph-name="obreve" unicode="&#x14f;" horiz-adv-x="608" 
d="M575 277q0 -112 -81 -200t-197 -88q-127 0 -195.5 69t-68.5 208q0 112 81 202.5t192 90.5q269 0 269 -282zM428 274q0 199 -133 199q-30 0 -52.5 -13t-34.5 -32t-19 -48t-9 -52.5t-2 -53.5q0 -195 135 -195q35 0 58.5 15.5t35.5 44t16.5 61t4.5 74.5zM439 796l34 -30
q-18 -39 -60 -75t-107 -36q-59 0 -103.5 28.5t-64.5 62.5l56 53q58 -56 127 -56q70 0 118 53z" />
    <glyph glyph-name="Ohungarumlaut" unicode="&#x150;" horiz-adv-x="821" 
d="M783 382q0 -167 -105.5 -280.5t-281.5 -113.5q-175 0 -266.5 87t-91.5 248q0 169 109.5 282t280.5 113q178 0 266.5 -89t88.5 -247zM624 358q0 122 -51 195.5t-160 73.5q-59 0 -102 -21.5t-67 -60.5t-35.5 -87t-11.5 -106q0 -121 49.5 -196t159.5 -75q218 0 218 277z
M262 734l-46 49q113 113 166 193l82 -63q-65 -79 -202 -179zM456 741l-18 65q151 47 259 105l43 -94q-101 -47 -284 -76z" />
    <glyph glyph-name="ohungarumlaut" unicode="&#x151;" horiz-adv-x="608" 
d="M169 599l-42 44q99 103 170 205l77 -68q-85 -98 -205 -181zM402 596l-39 46q104 91 183 191l73 -75q-93 -90 -217 -162zM575 277q0 -112 -81 -200t-197 -88q-127 0 -195.5 69t-68.5 208q0 112 81 202.5t192 90.5q269 0 269 -282zM428 274q0 199 -133 199q-30 0 -52.5 -13
t-34.5 -32t-19 -48t-9 -52.5t-2 -53.5q0 -195 135 -195q35 0 58.5 15.5t35.5 44t16.5 61t4.5 74.5z" />
    <glyph glyph-name="OE" unicode="&#x152;" horiz-adv-x="1059" 
d="M1031 171l-24 -171h-497q-50 -12 -107 -12q-173 0 -269 98.5t-96 262.5q0 167 105.5 268t278.5 101q55 0 105 -11h460v-164q-29 -8 -63 -4q-9 46 -29 64t-54 18l-177 5v-230l283 5v-92l-283 5v-36l4 -197l158 4q111 3 144 99zM524 279v298q0 4 -3 22q-45 28 -108 28
q-114 0 -165 -74t-51 -197q0 -122 49.5 -198.5t159.5 -76.5q92 0 115 45z" />
    <glyph glyph-name="oe" unicode="&#x153;" horiz-adv-x="966" 
d="M932 253h-359q4 -91 47 -121.5t125 -30.5q84 0 153 16l24 -75q-89 -50 -202 -50q-88 0 -145.5 18t-90.5 63q-76 -81 -186 -81q-127 0 -195.5 69t-68.5 208q0 112 80.5 200t192.5 88q143 0 208 -86q71 86 187 86q119 0 174.5 -71.5t55.5 -191.5v-41zM786 320
q1 74 -22.5 117t-69.5 43q-57 0 -89.5 -43.5t-34.5 -116.5h216zM430 280q0 192 -134 192q-119 0 -119 -204q0 -188 137 -188q116 0 116 200z" />
    <glyph glyph-name="Racute" unicode="&#x154;" horiz-adv-x="778" 
d="M267 742l-18 64q162 56 261 112l43 -96q-107 -45 -286 -80zM791 56l-8 -69q-26 -2 -42 -1q-124 4 -207 80q-81 74 -150 224q-8 -2 -33 -2h-78l4 -175q0 -27 19 -32l70 -20q0 -50 -4 -61h-315q-5 34 -3 55l48 14q37 10 39 62l3 142v319q0 26 -24 36l-68 26q-1 8 0.5 26
t4.5 27h356q55 0 100.5 -11t81.5 -33.5t56.5 -62.5t20.5 -93q0 -58 -33 -109.5t-92 -77.5q47 -90 106 -160q40 -45 74 -70t74 -34zM506 495q0 132 -170 132l-63 1v-264h81q80 1 116 32t36 99z" />
    <glyph glyph-name="racute" unicode="&#x155;" horiz-adv-x="490" 
d="M374 841l70 -81q-136 -101 -241 -148l-34 52q104 73 205 177zM494 535l-39 -120q-40 22 -88 22q-77 0 -112 -28v-134l4 -162q0 -22 13 -25l120 -25q0 -48 -6 -63h-347q-5 24 -5 55l45 17q20 7 28.5 19t9.5 37l2 147v196h-90v65q114 21 178 21q45 0 45 -39v-40
q23 32 61.5 55.5t83.5 23.5q57 0 97 -22z" />
    <glyph glyph-name="Rcommaaccent" unicode="&#x156;" horiz-adv-x="778" 
d="M370 -63l111 -5q-10 -113 -70 -239l-67 11q27 114 26 233zM791 56l-8 -69q-26 -2 -42 -1q-124 4 -207 80q-81 74 -150 224q-8 -2 -33 -2h-78l4 -175q0 -27 19 -32l70 -20q0 -50 -4 -61h-315q-5 34 -3 55l48 14q37 10 39 62l3 142v319q0 26 -24 36l-68 26q-1 8 0.5 26
t4.5 27h356q55 0 100.5 -11t81.5 -33.5t56.5 -62.5t20.5 -93q0 -58 -33 -109.5t-92 -77.5q47 -90 106 -160q40 -45 74 -70t74 -34zM506 495q0 132 -170 132l-63 1v-264h81q80 1 116 32t36 99z" />
    <glyph glyph-name="rcommaaccent" unicode="&#x157;" horiz-adv-x="490" 
d="M140 -63l111 -5q-10 -113 -70 -239l-67 11q27 114 26 233zM494 535l-39 -120q-40 22 -88 22q-77 0 -112 -28v-134l4 -162q0 -22 13 -25l120 -25q0 -48 -6 -63h-347q-5 24 -5 55l45 17q20 7 28.5 19t9.5 37l2 147v196h-90v65q114 21 178 21q45 0 45 -39v-40
q23 32 61.5 55.5t83.5 23.5q57 0 97 -22z" />
    <glyph glyph-name="Rcaron" unicode="&#x158;" horiz-adv-x="778" 
d="M512 942l31 -51q-113 -72 -192 -147q-75 71 -177 137l40 61q90 -38 150 -80q78 48 148 80zM791 56l-8 -69q-26 -2 -42 -1q-124 4 -207 80q-81 74 -150 224q-8 -2 -33 -2h-78l4 -175q0 -27 19 -32l70 -20q0 -50 -4 -61h-315q-5 34 -3 55l48 14q37 10 39 62l3 142v319
q0 26 -24 36l-68 26q-1 8 0.5 26t4.5 27h356q55 0 100.5 -11t81.5 -33.5t56.5 -62.5t20.5 -93q0 -58 -33 -109.5t-92 -77.5q47 -90 106 -160q40 -45 74 -70t74 -34zM506 495q0 132 -170 132l-63 1v-264h81q80 1 116 32t36 99z" />
    <glyph glyph-name="rcaron" unicode="&#x159;" horiz-adv-x="490" 
d="M476 787q-93 -73 -194 -184q-107 123 -180 177l49 53q61 -37 144 -107q70 59 142 107zM494 535l-39 -120q-40 22 -88 22q-77 0 -112 -28v-134l4 -162q0 -22 13 -25l120 -25q0 -48 -6 -63h-347q-5 24 -5 55l45 17q20 7 28.5 19t9.5 37l2 147v196h-90v65q114 21 178 21
q45 0 45 -39v-40q23 32 61.5 55.5t83.5 23.5q57 0 97 -22z" />
    <glyph glyph-name="Sacute" unicode="&#x15a;" horiz-adv-x="606" 
d="M569 203q0 -54 -26.5 -96.5t-70 -67.5t-94.5 -37.5t-105 -12.5q-59 0 -125.5 13.5t-113.5 39.5l15 176h65q6 -69 56.5 -109t122.5 -40q131 0 131 89q0 25 -22 46.5t-43.5 32t-73.5 32.5q-6 3 -9 4q-46 19 -75.5 35t-65 42.5t-53.5 62.5t-18 80q0 93 78 157.5t182 64.5
q52 0 113.5 -11.5t102.5 -32.5v-156h-56q-12 55 -59.5 86t-105.5 31q-54 0 -89 -21.5t-35 -63.5q0 -20 9 -36t33 -31t45 -25t67 -29q34 -15 53 -23.5t49.5 -24.5t47.5 -32t35.5 -37.5t26.5 -48t8 -57.5zM233 742l-18 64q162 56 261 112l43 -96q-107 -45 -286 -80z" />
    <glyph glyph-name="sacute" unicode="&#x15b;" horiz-adv-x="500" 
d="M362 841l70 -81q-136 -101 -241 -148l-34 52q104 73 205 177zM464 161q0 -62 -38 -102.5t-88.5 -55.5t-110.5 -15q-98 0 -194 43l9 149l54 -1q7 -54 44.5 -83.5t94.5 -29.5q93 0 93 56q0 19 -14.5 34t-30.5 23t-59 26q-10 5 -16 7q-70 29 -111 68t-41 109q0 83 60.5 126
t152.5 43t185 -41l-19 -140l-49 6q-8 39 -39 67t-87 28q-42 0 -62 -15t-20 -37q0 -9 2.5 -17t9 -15t12 -12t19 -11.5t21 -10t27 -12t29.5 -12.5q39 -16 63 -29t50.5 -33.5t39.5 -48.5t13 -64z" />
    <glyph glyph-name="Scircumflex" unicode="&#x15c;" horiz-adv-x="606" 
d="M569 203q0 -54 -26.5 -96.5t-70 -67.5t-94.5 -37.5t-105 -12.5q-59 0 -125.5 13.5t-113.5 39.5l15 176h65q6 -69 56.5 -109t122.5 -40q131 0 131 89q0 25 -22 46.5t-43.5 32t-73.5 32.5q-6 3 -9 4q-46 19 -75.5 35t-65 42.5t-53.5 62.5t-18 80q0 93 78 157.5t182 64.5
q52 0 113.5 -11.5t102.5 -32.5v-156h-56q-12 55 -59.5 86t-105.5 31q-54 0 -89 -21.5t-35 -63.5q0 -20 9 -36t33 -31t45 -25t67 -29q34 -15 53 -23.5t49.5 -24.5t47.5 -32t35.5 -37.5t26.5 -48t8 -57.5zM172 733l-30 52q109 68 191 146q70 -64 177 -137l-39 -61
q-90 39 -150 81q-84 -52 -149 -81z" />
    <glyph glyph-name="scircumflex" unicode="&#x15d;" horiz-adv-x="500" 
d="M118 613l-40 47q100 77 194 184q107 -123 180 -177l-48 -54q-69 41 -144 108q-60 -51 -142 -108zM464 161q0 -62 -38 -102.5t-88.5 -55.5t-110.5 -15q-98 0 -194 43l9 149l54 -1q7 -54 44.5 -83.5t94.5 -29.5q93 0 93 56q0 19 -14.5 34t-30.5 23t-59 26q-10 5 -16 7
q-70 29 -111 68t-41 109q0 83 60.5 126t152.5 43t185 -41l-19 -140l-49 6q-8 39 -39 67t-87 28q-42 0 -62 -15t-20 -37q0 -9 2.5 -17t9 -15t12 -12t19 -11.5t21 -10t27 -12t29.5 -12.5q39 -16 63 -29t50.5 -33.5t39.5 -48.5t13 -64z" />
    <glyph glyph-name="Scedilla" unicode="&#x15e;" horiz-adv-x="606" 
d="M426 -169q0 -47 -43.5 -86.5t-96.5 -39.5q-49 0 -101 34l40 71q42 -29 91 -29q42 0 42 24q0 14 -10 24.5t-32.5 18t-42 12t-55.5 11.5l50 118q-142 2 -234 53l15 176h65q6 -69 56.5 -109t122.5 -40q131 0 131 89q0 25 -22 46.5t-43.5 32t-73.5 32.5q-6 3 -9 4
q-46 19 -75.5 35t-65 42.5t-53.5 62.5t-18 80q0 93 78 157.5t182 64.5q52 0 113.5 -11.5t102.5 -32.5v-156h-56q-12 55 -59.5 86t-105.5 31q-54 0 -89 -21.5t-35 -63.5q0 -20 9 -36t33 -31t45 -25t67 -29q34 -15 53 -23.5t49.5 -24.5t47.5 -32t35.5 -37.5t26.5 -48t8 -57.5
q0 -89 -66 -142t-163 -67l-33 -60q63 -14 91 -37t28 -66z" />
    <glyph glyph-name="scedilla" unicode="&#x15f;" horiz-adv-x="500" 
d="M366 -169q0 -47 -43.5 -86.5t-96.5 -39.5q-49 0 -101 34l40 71q42 -29 91 -29q42 0 42 24q0 14 -10 24.5t-32.5 18t-42 12t-55.5 11.5l50 118q-91 4 -175 42l9 149l54 -1q7 -54 44.5 -83.5t94.5 -29.5q93 0 93 56q0 19 -14.5 34t-30.5 23t-59 26q-10 5 -16 7
q-70 29 -111 68t-41 109q0 83 60.5 126t152.5 43t185 -41l-19 -140l-49 6q-8 39 -39 67t-87 28q-42 0 -62 -15t-20 -37q0 -9 2.5 -17t9 -15t12 -12t19 -11.5t21 -10t27 -12t29.5 -12.5q39 -16 63 -29t50.5 -33.5t39.5 -48.5t13 -64q0 -77 -52.5 -118.5t-132.5 -50.5l-32 -58
q63 -14 91 -37t28 -66z" />
    <glyph glyph-name="Scaron" unicode="&#x160;" horiz-adv-x="606" 
d="M479 942l31 -51q-113 -72 -192 -147q-75 71 -177 137l40 61q90 -38 150 -80q78 48 148 80zM569 203q0 -54 -26.5 -96.5t-70 -67.5t-94.5 -37.5t-105 -12.5q-59 0 -125.5 13.5t-113.5 39.5l15 176h65q6 -69 56.5 -109t122.5 -40q131 0 131 89q0 25 -22 46.5t-43.5 32
t-73.5 32.5q-6 3 -9 4q-46 19 -75.5 35t-65 42.5t-53.5 62.5t-18 80q0 93 78 157.5t182 64.5q52 0 113.5 -11.5t102.5 -32.5v-156h-56q-12 55 -59.5 86t-105.5 31q-54 0 -89 -21.5t-35 -63.5q0 -20 9 -36t33 -31t45 -25t67 -29q34 -15 53 -23.5t49.5 -24.5t47.5 -32
t35.5 -37.5t26.5 -48t8 -57.5z" />
    <glyph glyph-name="scaron" unicode="&#x161;" horiz-adv-x="500" 
d="M449 787q-93 -73 -194 -184q-107 123 -180 177l49 53q61 -37 144 -107q70 59 142 107zM464 161q0 -62 -38 -102.5t-88.5 -55.5t-110.5 -15q-98 0 -194 43l9 149l54 -1q7 -54 44.5 -83.5t94.5 -29.5q93 0 93 56q0 19 -14.5 34t-30.5 23t-59 26q-10 5 -16 7q-70 29 -111 68
t-41 109q0 83 60.5 126t152.5 43t185 -41l-19 -140l-49 6q-8 39 -39 67t-87 28q-42 0 -62 -15t-20 -37q0 -9 2.5 -17t9 -15t12 -12t19 -11.5t21 -10t27 -12t29.5 -12.5q39 -16 63 -29t50.5 -33.5t39.5 -48.5t13 -64z" />
    <glyph glyph-name="Tcommaaccent" unicode="&#x162;" horiz-adv-x="699" 
d="M293 -63l111 -5q-10 -113 -70 -239l-67 11q27 114 26 233zM686 707v-185q-27 -8 -57 -3q-19 98 -94 102l-116 4v-352l5 -159q0 -19 3.5 -26t17.5 -10l89 -18q0 -45 -4 -60h-359q-6 31 -4 60l68 19q16 5 28 26.5t13 42.5l3 125v352l-125 -4q-64 -3 -83 -102
q-7 -2 -27.5 -1t-30.5 4v185h673z" />
    <glyph glyph-name="tcommaaccent" unicode="&#x163;" horiz-adv-x="458" 
d="M208 -63l111 -5q-10 -113 -70 -239l-67 11q27 114 26 233zM424 114l18 -71q-77 -54 -186 -54q-87 0 -124 38t-36 134l3 298h-80v53l190 146h29v-112h183v-87h-183v-183l4 -113q1 -34 20 -49t61 -15q45 0 101 15z" />
    <glyph glyph-name="Tcaron" unicode="&#x164;" horiz-adv-x="699" 
d="M508 942l31 -51q-113 -72 -192 -147q-75 71 -177 137l40 61q90 -38 150 -80q78 48 148 80zM686 707v-185q-27 -8 -57 -3q-19 98 -94 102l-116 4v-352l5 -159q0 -19 3.5 -26t17.5 -10l89 -18q0 -45 -4 -60h-359q-6 31 -4 60l68 19q16 5 28 26.5t13 42.5l3 125v352l-125 -4
q-64 -3 -83 -102q-7 -2 -27.5 -1t-30.5 4v185h673z" />
    <glyph glyph-name="tcaron" unicode="&#x165;" horiz-adv-x="458" 
d="M334 861l110 -5q-9 -111 -70 -238l-66 11q26 112 26 232zM424 114l18 -71q-77 -54 -186 -54q-87 0 -124 38t-36 134l3 298h-80v53l190 146h29v-112h183v-87h-183v-183l4 -113q1 -34 20 -49t61 -15q45 0 101 15z" />
    <glyph glyph-name="Tbar" unicode="&#x166;" horiz-adv-x="699" 
d="M686 707v-185q-27 -8 -57 -3q-19 98 -94 102l-116 4v-230h163v-80h-163v-42l5 -159q0 -19 3.5 -26t17.5 -10l89 -18q0 -45 -4 -60h-359q-6 31 -4 60l68 19q16 5 28 26.5t13 42.5l3 125v42h-159v80h159v230l-125 -4q-64 -3 -83 -102q-7 -2 -27.5 -1t-30.5 4v185h673z" />
    <glyph glyph-name="tbar" unicode="&#x167;" horiz-adv-x="458" 
d="M264 -11q-91 0 -129.5 36t-37.5 136l1 101h-67v79h67l2 118h-80v53l189 146h30v-112h183v-87h-183v-118h133v-79h-133l3 -99q1 -37 18.5 -50t64.5 -13q46 0 100 13l17 -70q-72 -54 -178 -54z" />
    <glyph glyph-name="Utilde" unicode="&#x168;" horiz-adv-x="811" 
d="M508 753q-21 0 -93 20t-88 20q-35 0 -70 -24l-28 35q25 29 34.5 39.5t35.5 26t53 15.5q28 0 98 -19t81 -19q46 0 66 20l29 -33q-17 -25 -28.5 -39t-36 -28t-53.5 -14zM790 652l-50 -16q-9 -3 -13.5 -6t-9 -11.5t-4.5 -22.5v-327q0 -63 -19.5 -113t-50 -80.5t-71.5 -50.5
t-80.5 -28t-79.5 -8q-47 0 -85 4.5t-81.5 20.5t-72.5 42t-48.5 74t-19.5 112v339q0 17 -8 32t-21 20l-57 21q0 38 4 53h317q2 -10 2.5 -29.5t-0.5 -28.5l-63 -12q-26 -5 -26 -32v-343q0 -54 17 -92.5t45.5 -57.5t58.5 -27t64 -8q164 0 164 209v287q0 52 -56 68l-43 13
q0 49 1 53h282q6 -30 4 -55z" />
    <glyph glyph-name="utilde" unicode="&#x169;" horiz-adv-x="689" 
d="M670 91l10 -58q-80 -40 -148 -40q-80 0 -84 80q-91 -84 -181 -84q-39 0 -68 5.5t-47 18.5t-29 26.5t-16 36t-6.5 40t-1.5 45.5v309h-85v60q117 26 159 26q63 0 63 -55v-210l1 -104q1 -49 14 -72t51 -23q61 0 140 43l4 138v197h-83v60q87 26 155 26q64 0 64 -55v-229
l5 -181h83zM532 732q-3 -3 -11 -13.5t-11.5 -14.5t-11.5 -13t-13.5 -13t-14 -10.5t-17 -9.5t-19 -5t-21.5 -2q-21 0 -89 20t-83 20q-41 0 -70 -25l-29 36q2 2 11.5 13t12.5 14.5t13 13t15 13.5t15 10.5t17.5 9t18 5t21.5 2.5q28 0 94 -19t76 -19q20 0 36.5 5t23.5 10l6 5z
" />
    <glyph glyph-name="Umacron" unicode="&#x16a;" horiz-adv-x="811" 
d="M572 773h-298v87h298v-87zM790 652l-50 -16q-9 -3 -13.5 -6t-9 -11.5t-4.5 -22.5v-327q0 -63 -19.5 -113t-50 -80.5t-71.5 -50.5t-80.5 -28t-79.5 -8q-47 0 -85 4.5t-81.5 20.5t-72.5 42t-48.5 74t-19.5 112v339q0 17 -8 32t-21 20l-57 21q0 38 4 53h317q2 -10 2.5 -29.5
t-0.5 -28.5l-63 -12q-26 -5 -26 -32v-343q0 -54 17 -92.5t45.5 -57.5t58.5 -27t64 -8q164 0 164 209v287q0 52 -56 68l-43 13q0 49 1 53h282q6 -30 4 -55z" />
    <glyph glyph-name="umacron" unicode="&#x16b;" horiz-adv-x="689" 
d="M487 686h-303v81h303v-81zM670 91l10 -58q-80 -40 -148 -40q-80 0 -84 80q-91 -84 -181 -84q-39 0 -68 5.5t-47 18.5t-29 26.5t-16 36t-6.5 40t-1.5 45.5v309h-85v60q117 26 159 26q63 0 63 -55v-210l1 -104q1 -49 14 -72t51 -23q61 0 140 43l4 138v197h-83v60
q87 26 155 26q64 0 64 -55v-229l5 -181h83z" />
    <glyph glyph-name="Ubreve" unicode="&#x16c;" horiz-adv-x="811" 
d="M421 748q-60 0 -106 28t-65 61l53 50q58 -56 127 -56t118 52l34 -30q-17 -37 -58.5 -71t-102.5 -34zM790 652l-50 -16q-9 -3 -13.5 -6t-9 -11.5t-4.5 -22.5v-327q0 -63 -19.5 -113t-50 -80.5t-71.5 -50.5t-80.5 -28t-79.5 -8q-47 0 -85 4.5t-81.5 20.5t-72.5 42t-48.5 74
t-19.5 112v339q0 17 -8 32t-21 20l-57 21q0 38 4 53h317q2 -10 2.5 -29.5t-0.5 -28.5l-63 -12q-26 -5 -26 -32v-343q0 -54 17 -92.5t45.5 -57.5t58.5 -27t64 -8q164 0 164 209v287q0 52 -56 68l-43 13q0 49 1 53h282q6 -30 4 -55z" />
    <glyph glyph-name="ubreve" unicode="&#x16d;" horiz-adv-x="689" 
d="M670 91l10 -58q-80 -40 -148 -40q-80 0 -84 80q-91 -84 -181 -84q-39 0 -68 5.5t-47 18.5t-29 26.5t-16 36t-6.5 40t-1.5 45.5v309h-85v60q117 26 159 26q63 0 63 -55v-210l1 -104q1 -49 14 -72t51 -23q61 0 140 43l4 138v197h-83v60q87 26 155 26q64 0 64 -55v-229
l5 -181h83zM460 796l34 -30q-18 -39 -60 -75t-107 -36q-59 0 -103.5 28.5t-64.5 62.5l56 53q58 -56 127 -56q70 0 118 53z" />
    <glyph glyph-name="Uring" unicode="&#x16e;" horiz-adv-x="811" 
d="M790 652l-50 -16q-9 -3 -13.5 -6t-9 -11.5t-4.5 -22.5v-327q0 -63 -19.5 -113t-50 -80.5t-71.5 -50.5t-80.5 -28t-79.5 -8q-47 0 -85 4.5t-81.5 20.5t-72.5 42t-48.5 74t-19.5 112v339q0 17 -8 32t-21 20l-57 21q0 38 4 53h317q2 -10 2.5 -29.5t-0.5 -28.5l-63 -12
q-26 -5 -26 -32v-343q0 -54 17 -92.5t45.5 -57.5t58.5 -27t64 -8q164 0 164 209v287q0 52 -56 68l-43 13q0 49 1 53h282q6 -30 4 -55zM554 843q0 -46 -37 -73.5t-80 -27.5q-15 0 -31.5 3t-40 12t-38 31.5t-14.5 55.5q0 51 35.5 78.5t84.5 27.5q48 0 84.5 -24.5t36.5 -82.5z
M486 845q0 27 -14.5 43t-38.5 16q-51 0 -51 -57q0 -28 14 -44.5t39 -16.5q51 0 51 59z" />
    <glyph glyph-name="uring" unicode="&#x16f;" horiz-adv-x="689" 
d="M462 736q0 -50 -41.5 -82.5t-86.5 -32.5q-22 0 -42 4.5t-41 15t-33.5 32.5t-12.5 52q0 54 39 86.5t90 32.5q128 0 128 -108zM388 732q0 29 -14.5 46.5t-40.5 17.5q-54 0 -54 -62q0 -29 14.5 -47t40.5 -18q54 0 54 63zM670 91l10 -58q-80 -40 -148 -40q-80 0 -84 80
q-91 -84 -181 -84q-39 0 -68 5.5t-47 18.5t-29 26.5t-16 36t-6.5 40t-1.5 45.5v309h-85v60q117 26 159 26q63 0 63 -55v-210l1 -104q1 -49 14 -72t51 -23q61 0 140 43l4 138v197h-83v60q87 26 155 26q64 0 64 -55v-229l5 -181h83z" />
    <glyph glyph-name="Uhungarumlaut" unicode="&#x170;" horiz-adv-x="811" 
d="M790 652l-50 -16q-9 -3 -13.5 -6t-9 -11.5t-4.5 -22.5v-327q0 -63 -19.5 -113t-50 -80.5t-71.5 -50.5t-80.5 -28t-79.5 -8q-47 0 -85 4.5t-81.5 20.5t-72.5 42t-48.5 74t-19.5 112v339q0 17 -8 32t-21 20l-57 21q0 38 4 53h317q2 -10 2.5 -29.5t-0.5 -28.5l-63 -12
q-26 -5 -26 -32v-343q0 -54 17 -92.5t45.5 -57.5t58.5 -27t64 -8q164 0 164 209v287q0 52 -56 68l-43 13q0 49 1 53h282q6 -30 4 -55zM282 734l-46 49q113 113 166 193l82 -63q-65 -79 -202 -179zM476 741l-18 65q151 47 259 105l43 -94q-101 -47 -284 -76z" />
    <glyph glyph-name="uhungarumlaut" unicode="&#x171;" horiz-adv-x="689" 
d="M670 91l10 -58q-80 -40 -148 -40q-80 0 -84 80q-91 -84 -181 -84q-39 0 -68 5.5t-47 18.5t-29 26.5t-16 36t-6.5 40t-1.5 45.5v309h-85v60q117 26 159 26q63 0 63 -55v-210l1 -104q1 -49 14 -72t51 -23q61 0 140 43l4 138v197h-83v60q87 26 155 26q64 0 64 -55v-229
l5 -181h83zM191 598l-42 44q99 103 170 205l77 -68q-85 -98 -205 -181zM424 595l-39 46q104 91 183 191l73 -75q-93 -90 -217 -162z" />
    <glyph glyph-name="Uogonek" unicode="&#x172;" horiz-adv-x="812" 
d="M463 -265q-62 0 -97.5 30.5t-35.5 79.5q0 79 86 146q-48 0 -86 4.5t-82.5 20t-73.5 41.5t-49 73.5t-20 111.5v339q0 17 -8 32t-21 20l-57 21q0 38 4 53h317q2 -10 2.5 -29.5t-0.5 -28.5l-63 -12q-26 -5 -26 -32v-343q0 -54 17 -92.5t45.5 -57.5t58.5 -27t64 -8
q164 0 164 209v287q0 52 -56 68l-43 13q0 49 1 53h282q6 -30 4 -55l-50 -16q-9 -3 -13.5 -6t-9 -11.5t-4.5 -22.5v-327q0 -193 -184 -262q-94 -57 -94 -135q1 -32 18 -49.5t43 -17.5q36 0 66 17l19 -60q-43 -27 -118 -27z" />
    <glyph glyph-name="uogonek" unicode="&#x173;" horiz-adv-x="688" 
d="M661 -178l19 -60q-43 -27 -118 -27q-62 0 -97.5 30.5t-35.5 79.5q0 82 87 150q-65 6 -68 78q-99 -84 -176 -84q-58 0 -94.5 12.5t-53 39t-21.5 52.5t-5 68v310h-85v60q117 26 160 26q62 0 62 -55v-230l1 -85q1 -48 14.5 -71.5t50.5 -23.5q48 0 140 43l4 138v198h-82v60
q117 26 155 26q63 0 63 -55v-230l5 -181h83l10 -58q-59 -21 -103 -65t-42 -96q1 -32 18 -49.5t43 -17.5q36 0 66 17z" />
    <glyph glyph-name="Wcircumflex" unicode="&#x174;" horiz-adv-x="1083" 
d="M408 733l-30 52q109 68 191 146q70 -64 177 -137l-39 -61q-90 39 -150 81q-84 -52 -149 -81zM860 707h235q6 -24 4 -52l-26 -14q-27 -15 -44 -57l-223 -579l-103 -26l-157 421l-186 -395l-101 -26l-185 612q-7 27 -30 42l-41 24q0 34 5 50h296q4 -36 3 -55l-48 -16
q-29 -11 -29 -48q1 -14 6 -31l109 -395l161 345l-26 81q-10 19 -13 21q-2 7 -19.5 25.5t-20.5 22.5q0 34 3 50h274q7 -24 5 -55l-37 -16q-30 -16 -30 -47q0 -15 6 -32l134 -396l137 389q7 18 7 35q0 38 -28 49l-44 18q0 36 6 55z" />
    <glyph glyph-name="wcircumflex" unicode="&#x175;" horiz-adv-x="860" 
d="M291 613l-40 47q100 77 194 184q107 -123 180 -177l-48 -54q-69 41 -144 108q-60 -51 -142 -108zM560 -20l-135 360l-129 -338l-105 -22l-134 442q-8 26 -17.5 37.5t-29.5 23.5q0 37 6 63h243q0 -58 -3 -69h-69l83 -330l130 383l95 25l141 -408l85 283q3 13 -3.5 26.5
t-19.5 19.5l-30 11q0 1 -0.5 9.5t-0.5 14.5q0 22 4 35h190v-53q-36 -27 -57 -86l-144 -407z" />
    <glyph glyph-name="Ycircumflex" unicode="&#x176;" horiz-adv-x="679" 
d="M430 707h251q5 -23 5 -52q-44 -23 -69 -60l-208 -313l3 -166q0 -34 29 -40l66 -17q0 -36 -7 -59h-321q-6 24 -6 57l50 13q18 5 30.5 20t12.5 36l3 148l-207 316q-21 32 -63 67q-2 32 2 50h288q5 -27 5 -55l-43 -17q-28 -10 -28 -41q0 -20 11 -37l133 -208l131 205
q10 16 9 31q0 27 -32 44l-48 23q-2 30 3 55zM213 733l-30 52q109 68 191 146q70 -64 177 -137l-39 -61q-90 39 -150 81q-84 -52 -149 -81z" />
    <glyph glyph-name="ycircumflex" unicode="&#x177;" horiz-adv-x="559" 
d="M153 613l-40 47q100 77 194 184q107 -123 180 -177l-48 -54q-69 41 -144 108q-60 -51 -142 -108zM560 546q0 -53 -1 -58q-34 -19 -60 -82l-215 -513q-35 -85 -131 -130l-78 112q59 24 97 57q33 25 48 56l-157 440q-11 31 -67 57q0 39 5 61h260q0 -64 -1 -69h-68l114 -348
l107 288q6 16 0.5 32.5t-18.5 22.5q-3 3 -10 5.5t-14.5 4t-8.5 2.5v9q-1 9 -1 16q0 24 4 37h195z" />
    <glyph glyph-name="Ydieresis" unicode="&#x178;" horiz-adv-x="679" 
d="M430 707h251q5 -23 5 -52q-44 -23 -69 -60l-208 -313l3 -166q0 -34 29 -40l66 -17q0 -36 -7 -59h-321q-6 24 -6 57l50 13q18 5 30.5 20t12.5 36l3 148l-207 316q-21 32 -63 67q-2 32 2 50h288q5 -27 5 -55l-43 -17q-28 -10 -28 -41q0 -20 11 -37l133 -208l131 205
q10 16 9 31q0 27 -32 44l-48 23q-2 30 3 55zM248 756q-11 0 -41.5 31t-30.5 42q0 12 30.5 42.5t41.5 30.5q12 0 43 -31t31 -42q0 -10 -30.5 -41.5t-43.5 -31.5zM481 756q-12 0 -42.5 31t-30.5 42q0 12 31 42.5t42 30.5t42.5 -31t31.5 -42q0 -10 -30.5 -41.5t-43.5 -31.5z
" />
    <glyph glyph-name="Zacute" unicode="&#x179;" horiz-adv-x="649" 
d="M246 742l-18 64q162 56 261 112l43 -96q-107 -45 -286 -80zM619 200l-24 -200h-541l-23 72l375 550l-200 -4q-41 -3 -58 -27.5t-27 -77.5q-13 -3 -34 -3q-29 3 -34 4v193h531l17 -54l-386 -565l229 9q72 6 111 115z" />
    <glyph glyph-name="zacute" unicode="&#x17a;" horiz-adv-x="552" 
d="M383 841l70 -81q-136 -101 -241 -148l-34 52q104 73 205 177zM530 175l-33 -175h-448l-22 58l330 384h-200q-16 0 -32 -12t-24 -21.5t-26 -34.5q-31 10 -40 18l41 154h410l6 -77l-309 -364h190q30 0 61.5 26.5t48.5 57.5q29 -5 47 -14z" />
    <glyph glyph-name="Zdotaccent" unicode="&#x17b;" horiz-adv-x="649" 
d="M416 833q0 -11 -36 -48t-49 -37t-48.5 36.5t-35.5 48.5q0 15 35.5 50t48.5 35q12 0 48.5 -36t36.5 -49zM619 200l-24 -200h-541l-23 72l375 550l-200 -4q-41 -3 -58 -27.5t-27 -77.5q-13 -3 -34 -3q-29 3 -34 4v193h531l17 -54l-386 -565l229 9q72 6 111 115z" />
    <glyph glyph-name="zdotaccent" unicode="&#x17c;" horiz-adv-x="552" 
d="M530 175l-33 -175h-448l-22 58l330 384h-200q-16 0 -32 -12t-24 -21.5t-26 -34.5q-31 10 -40 18l41 154h410l6 -77l-309 -364h190q30 0 61.5 26.5t48.5 57.5q29 -5 47 -14zM360 726q0 -11 -36 -48t-49 -37q-14 0 -49.5 36.5t-35.5 48.5q0 15 35.5 50t49.5 35
q12 0 48.5 -36t36.5 -49z" />
    <glyph glyph-name="Zcaron" unicode="&#x17d;" horiz-adv-x="649" 
d="M494 942l31 -51q-113 -72 -192 -147q-75 71 -177 137l40 61q90 -38 150 -80q78 48 148 80zM619 200l-24 -200h-541l-23 72l375 550l-200 -4q-41 -3 -58 -27.5t-27 -77.5q-13 -3 -34 -3q-29 3 -34 4v193h531l17 -54l-386 -565l229 9q72 6 111 115z" />
    <glyph glyph-name="zcaron" unicode="&#x17e;" horiz-adv-x="552" 
d="M466 787q-93 -73 -194 -184q-107 123 -180 177l49 53q61 -37 144 -107q70 59 142 107zM530 175l-33 -175h-448l-22 58l330 384h-200q-16 0 -32 -12t-24 -21.5t-26 -34.5q-31 10 -40 18l41 154h410l6 -77l-309 -364h190q30 0 61.5 26.5t48.5 57.5q29 -5 47 -14z" />
    <glyph glyph-name="longs" unicode="&#x17f;" horiz-adv-x="382" 
d="M497 696q0 -33 -17.5 -52.5t-47.5 -34.5q-58 81 -91 81q-43 0 -66 -26t-23 -72v-312l5 -164q0 -28 32 -36q90 -20 94 -21q0 -42 -7 -59h-341q-4 22 -4 54l51 18q30 10 30 60l3 148v191h-80v58l80 17v19q0 81 68 142.5t151 61.5q163 0 163 -73z" />
    <glyph glyph-name="uni018E" unicode="&#x18e;" horiz-adv-x="665" 
d="M29 536l25 171h570q6 -29 4 -59l-52 -13q-42 -11 -42 -43l-3 -164v-298q0 -40 28 -50l63 -26v-25q-2 -22 -5 -29h-549v164q23 4 63 4q9 -46 28.5 -64t53.5 -18l178 -5v230l-271 -5v92l271 -5v36l-5 197l-151 -4q-110 -3 -145 -99z" />
    <glyph glyph-name="uni018F" unicode="&#x18f;" horiz-adv-x="788" 
d="M371 -12q-167 0 -254.5 86.5t-87.5 248.5v56h561q-5 109 -59 169t-160 60q-123 0 -246 -54l-46 76q139 88 300 88q189 0 280 -80.5t91 -255.5q0 -167 -104.5 -280.5t-274.5 -113.5zM380 81q187 0 208 221h-398q18 -221 190 -221z" />
    <glyph glyph-name="florin" unicode="&#x192;" horiz-adv-x="519" 
d="M534 534q0 -39 -49 -71q-71 63 -80 68q-92 -6 -96 -135l-3 -81h117v-69h-120l-5 -117q-2 -80 -69 -151.5t-144 -71.5q-46 0 -73 19t-27 55q0 17 13 43h141q20 36 22 85l4 138h-96v69h99l3 52q4 91 79.5 165.5t157.5 74.5q67 0 96.5 -18t29.5 -55z" />
    <glyph glyph-name="uni01C4" unicode="&#x1c4;" horiz-adv-x="1455" 
d="M1288 942l31 -51q-113 -72 -192 -147q-75 71 -177 137l40 61q90 -38 150 -80q78 48 148 80zM1424 200l-24 -200h-541l-23 72l375 550l-200 -4q-41 -3 -58 -27.5t-27 -77.5q-13 -3 -34 -3q-29 3 -34 4v193h531l17 -54l-386 -565l229 9q72 6 111 115zM767 368
q0 -179 -112.5 -273.5t-302.5 -94.5h-309q-6 34 -6 58l54 15q38 9 39 51l3 155v292q0 46 -40 64l-50 19q-2 32 4 53h299q75 0 135 -9t115 -32t91.5 -60.5t58 -97.5t21.5 -140zM614 347q0 133 -69.5 205.5t-201.5 72.5h-69v-347l6 -197h83q251 0 251 266z" />
    <glyph glyph-name="uni01C5" unicode="&#x1c5;" horiz-adv-x="1351" 
d="M1264 787q-93 -73 -194 -184q-107 123 -180 177l49 53q61 -37 144 -107q70 59 142 107zM1328 175l-33 -175h-448l-22 58l330 384h-200q-16 0 -32 -12t-24 -21.5t-26 -34.5q-31 10 -40 18l41 154h410l6 -77l-309 -364h190q30 0 61.5 26.5t48.5 57.5q29 -5 47 -14zM767 368
q0 -179 -112.5 -273.5t-302.5 -94.5h-309q-6 34 -6 58l54 15q38 9 39 51l3 155v292q0 46 -40 64l-50 19q-2 32 4 53h299q75 0 135 -9t115 -32t91.5 -60.5t58 -97.5t21.5 -140zM614 347q0 133 -69.5 205.5t-201.5 72.5h-69v-347l6 -197h83q251 0 251 266z" />
    <glyph glyph-name="uni01C6" unicode="&#x1c6;" horiz-adv-x="1195" 
d="M1110 787q-93 -73 -194 -184q-107 123 -180 177l49 53q61 -37 144 -107q70 59 142 107zM1172 175l-33 -175h-448l-22 58l330 384h-200q-16 0 -32 -12t-24 -21.5t-26 -34.5q-31 10 -40 18l41 154h410l6 -77l-309 -364h190q30 0 61.5 26.5t48.5 57.5q29 -5 47 -14zM634 41
q-88 -49 -168 -49q-35 0 -50 24.5t-15 57.5q-71 -81 -148 -81q-217 0 -217 259q0 135 80 216.5t201 81.5q47 0 87 -5v133h-93v65q103 21 176 21q30 0 41 -10t11 -40v-435l4 -188h81zM404 280v184q-48 11 -90 11q-135 0 -135 -211q0 -160 124 -160q46 0 97 24z" />
    <glyph glyph-name="uni01C7" unicode="&#x1c7;" horiz-adv-x="998" 
d="M971 651l-47 -12q-24 -6 -31 -14t-7 -30v-501q0 -53 -20 -97t-57 -77t-74 -55t-87 -45l-44 78q87 53 114 99t27 149v419q0 57 -48 74l-44 15q0 39 5 53h310q5 -26 3 -56zM616 199l-32 -199h-542q-5 26 -3 56l47 13q18 6 30.5 21t12.5 36l3 151v299q0 21 -13 37t-29 23
l-47 18q0 37 4 53h308q2 -42 -1 -59l-45 -11q-37 -9 -37 -48v-311l4 -196l153 9q40 2 73.5 39t49.5 80z" />
    <glyph glyph-name="uni01C8" unicode="&#x1c8;" horiz-adv-x="952" 
d="M663 -225q-54 0 -90 18l33 106q34 -18 76 -18q35 0 50.5 23.5t15.5 76.5v489h-89v65q99 22 178 22q25 0 36 -9.5t11 -34.5v-240l1 -229q1 -103 -72.5 -186t-149.5 -83zM815 636q-14 0 -50.5 37.5t-36.5 51.5q0 15 36.5 51.5t50.5 36.5q13 0 51 -37.5t38 -50.5
q0 -11 -37.5 -50t-51.5 -39zM616 199l-32 -199h-542q-5 26 -3 56l47 13q18 6 30.5 21t12.5 36l3 151v299q0 21 -13 37t-29 23l-47 18q0 37 4 53h308q2 -42 -1 -59l-45 -11q-37 -9 -37 -48v-311l4 -196l153 9q40 2 73.5 39t49.5 80z" />
    <glyph glyph-name="uni01C9" unicode="&#x1c9;" horiz-adv-x="675" 
d="M384 -225q-54 0 -90 18l33 106q34 -18 76 -18q35 0 50.5 23.5t15.5 76.5v489h-89v65q99 22 178 22q25 0 36 -9.5t11 -34.5v-240l1 -229q1 -103 -72.5 -186t-149.5 -83zM536 636q-14 0 -50.5 37.5t-36.5 51.5q0 15 36.5 51.5t50.5 36.5q13 0 51 -37.5t38 -50.5
q0 -11 -37.5 -50t-51.5 -39zM335 58q0 -38 -5 -58h-309q-4 24 -4 53l57 17q28 9 28 46l4 158v404h-90v65q88 21 179 21q24 0 35.5 -10t11.5 -34v-446l3 -163q2 -32 14 -35z" />
    <glyph glyph-name="uni01CA" unicode="&#x1ca;" horiz-adv-x="1216" 
d="M1189 651l-47 -12q-24 -6 -31 -14t-7 -30v-501q0 -53 -20 -97t-57 -77t-74 -55t-87 -45l-44 78q87 53 114 99t27 149v419q0 57 -48 74l-44 15q0 39 5 53h310q5 -26 3 -56zM821 661l-53 -23q-18 -8 -29.5 -27t-11.5 -42v-563l-108 -29l-397 552h-7l6 -80v-176l3 -155
q0 -19 4 -26t20 -12l85 -25q0 -41 -5 -55h-293q-6 29 -4 53l51 15q22 6 34.5 31t13.5 56l2 118v308q0 36 -29 51l-61 27q0 41 2 48h221l374 -512h7l-7 105v268q0 46 -37 64l-63 27q0 37 4 48h274q4 -30 4 -46z" />
    <glyph glyph-name="uni01CB" unicode="&#x1cb;" horiz-adv-x="1172" 
d="M881 -225q-54 0 -90 18l33 106q34 -18 76 -18q35 0 50.5 23.5t15.5 76.5v489h-89v65q99 22 178 22q25 0 36 -9.5t11 -34.5v-240l1 -229q1 -103 -72.5 -186t-149.5 -83zM1033 636q-14 0 -50.5 37.5t-36.5 51.5q0 15 36.5 51.5t50.5 36.5q13 0 51 -37.5t38 -50.5
q0 -11 -37.5 -50t-51.5 -39zM821 661l-53 -23q-18 -8 -29.5 -27t-11.5 -42v-563l-108 -29l-397 552h-7l6 -80v-176l3 -155q0 -19 4 -26t20 -12l85 -25q0 -41 -5 -55h-293q-6 29 -4 53l51 15q22 6 34.5 31t13.5 56l2 118v308q0 36 -29 51l-61 27q0 41 2 48h221l374 -512h7
l-7 105v268q0 46 -37 64l-63 27q0 37 4 48h274q4 -30 4 -46z" />
    <glyph glyph-name="uni01CC" unicode="&#x1cc;" horiz-adv-x="1047" 
d="M754 -225q-54 0 -90 18l33 106q34 -18 76 -18q35 0 50.5 23.5t15.5 76.5v489h-89v65q99 22 178 22q25 0 36 -9.5t11 -34.5v-240l1 -229q1 -103 -72.5 -186t-149.5 -83zM906 636q-14 0 -50.5 37.5t-36.5 51.5q0 15 36.5 51.5t50.5 36.5q13 0 51 -37.5t38 -50.5
q0 -11 -37.5 -50t-51.5 -39zM698 57q0 -40 -6 -57h-268q-5 33 -3 56l32 17q23 12 23 44l3 157v63q0 64 -16 92t-73 28q-80 0 -138 -28v-155l2 -161q0 -32 15 -37l62 -18q0 -42 -5 -58h-285q-4 32 -3 53l47 18q28 11 28 47l3 156v196h-87v65q95 21 181 21q21 0 29.5 -8.5
t8.5 -27.5v-31q93 69 188 69q42 0 73 -5.5t50 -18.5t31 -26.5t17 -37.5t6.5 -43t1.5 -50v-103l3 -176q1 -23 14 -25z" />
    <glyph glyph-name="uni01DD" unicode="&#x1dd;" horiz-adv-x="568" 
d="M33 290h360q-4 91 -47.5 124.5t-124.5 33.5q-76 0 -154 -18l-23 75q93 53 202 53q72 0 121.5 -11.5t89 -41t58.5 -83.5t19 -136q0 -120 -75.5 -209.5t-194.5 -89.5q-120 0 -175.5 71t-55.5 191v41zM179 223q0 -159 99 -159q50 0 82.5 45.5t34.5 113.5h-216z" />
    <glyph glyph-name="uni01E2" unicode="&#x1e2;" horiz-adv-x="999" 
d="M800 773h-298v87h298v-87zM971 171l-24 -171h-572q-6 29 -4 59l48 13q18 5 30 16t13 27l2 164v29h-198l-90 -156q-9 -17 -9 -31q0 -30 32 -39l82 -22q0 -41 -6 -60h-290q-6 20 -4 54l24 16q29 21 49 52l351 585h522v-164q-27 -8 -63 -4q-9 46 -28.5 64t-53.5 18l-179 5
v-236l292 5v-92l-292 5v-30l5 -197l159 4q109 3 144 99zM466 654l-153 -264h151v221q0 31 2 43z" />
    <glyph glyph-name="uni01E3" unicode="&#x1e3;" horiz-adv-x="867" 
d="M571 686h-303v81h303v-81zM834 259l-360 -15q3 -83 47 -113t125 -30q86 0 153 16l24 -75q-89 -50 -202 -50q-92 0 -151 19t-92 69q-102 -88 -204 -88q-68 0 -109.5 30.5t-41.5 95.5q0 148 213 176q52 6 101 8v74q0 43 -22.5 59t-90.5 16q-62 0 -142 -22l-24 95
q88 36 193 36q146 0 188 -67q69 67 164 67q119 0 175 -73t56 -193v-35zM688 328q2 152 -93 152q-58 0 -89 -44t-34 -124zM352 136q-14 45 -16 103q-70 -5 -93 -10q-48 -11 -68 -31t-20 -50q0 -21 15.5 -36.5t43.5 -15.5q51 0 138 40z" />
    <glyph glyph-name="uni01EF" unicode="&#x1ef;" horiz-adv-x="497" 
d="M458 491l-203 -261q213 -33 213 -210q0 -95 -78.5 -174.5t-190.5 -79.5q-115 0 -197 40l35 99q84 -51 150 -51q64 0 108 37t44 94q0 65 -53.5 104t-147.5 42l-29 38l200 273l-182 2q-8 0 -15 -1t-14 -5t-11.5 -7t-11.5 -11t-10 -12t-12 -15.5t-13 -16.5l-42 15l42 155
h393zM426 787q-93 -73 -194 -184q-107 123 -180 177l49 53q61 -37 144 -107q70 59 142 107z" />
    <glyph glyph-name="uni01F1" unicode="&#x1f1;" horiz-adv-x="1455" 
d="M1424 200l-24 -200h-541l-23 72l375 550l-200 -4q-41 -3 -58 -27.5t-27 -77.5q-13 -3 -34 -3q-29 3 -34 4v193h531l17 -54l-386 -565l229 9q72 6 111 115zM767 368q0 -179 -112.5 -273.5t-302.5 -94.5h-309q-6 34 -6 58l54 15q38 9 39 51l3 155v292q0 46 -40 64l-50 19
q-2 32 4 53h299q75 0 135 -9t115 -32t91.5 -60.5t58 -97.5t21.5 -140zM614 347q0 133 -69.5 205.5t-201.5 72.5h-69v-347l6 -197h83q251 0 251 266z" />
    <glyph glyph-name="uni01F2" unicode="&#x1f2;" horiz-adv-x="1362" 
d="M1339 175l-33 -175h-448l-22 58l330 384h-200q-16 0 -32 -12t-24 -21.5t-26 -34.5q-31 10 -40 18l41 154h410l6 -77l-309 -364h190q30 0 61.5 26.5t48.5 57.5q29 -5 47 -14zM767 368q0 -179 -112.5 -273.5t-302.5 -94.5h-309q-6 34 -6 58l54 15q38 9 39 51l3 155v292
q0 46 -40 64l-50 19q-2 32 4 53h299q75 0 135 -9t115 -32t91.5 -60.5t58 -97.5t21.5 -140zM614 347q0 133 -69.5 205.5t-201.5 72.5h-69v-347l6 -197h83q251 0 251 266z" />
    <glyph glyph-name="uni01F3" unicode="&#x1f3;" horiz-adv-x="1195" 
d="M1172 175l-33 -175h-448l-22 58l330 384h-200q-16 0 -32 -12t-24 -21.5t-26 -34.5q-31 10 -40 18l41 154h410l6 -77l-309 -364h190q30 0 61.5 26.5t48.5 57.5q29 -5 47 -14zM634 41q-88 -49 -168 -49q-35 0 -50 24.5t-15 57.5q-71 -81 -148 -81q-217 0 -217 259
q0 135 80 216.5t201 81.5q47 0 87 -5v133h-93v65q103 21 176 21q30 0 41 -10t11 -40v-435l4 -188h81zM404 280v184q-48 11 -90 11q-135 0 -135 -211q0 -160 124 -160q46 0 97 24z" />
    <glyph glyph-name="AEacute" unicode="&#x1fc;" horiz-adv-x="999" 
d="M554 742l-18 64q162 56 261 112l43 -96q-107 -45 -286 -80zM971 171l-24 -171h-572q-6 29 -4 59l48 13q18 5 30 16t13 27l2 164v29h-198l-90 -156q-9 -17 -9 -31q0 -30 32 -39l82 -22q0 -41 -6 -60h-290q-6 20 -4 54l24 16q29 21 49 52l351 585h522v-164q-27 -8 -63 -4
q-9 46 -28.5 64t-53.5 18l-179 5v-236l292 5v-92l-292 5v-30l5 -197l159 4q109 3 144 99zM466 654l-153 -264h151v221q0 31 2 43z" />
    <glyph glyph-name="aeacute" unicode="&#x1fd;" horiz-adv-x="867" 
d="M533 841l70 -81q-136 -101 -241 -148l-34 52q104 73 205 177zM834 259l-360 -15q3 -83 47 -113t125 -30q86 0 153 16l24 -75q-89 -50 -202 -50q-92 0 -151 19t-92 69q-102 -88 -204 -88q-68 0 -109.5 30.5t-41.5 95.5q0 148 213 176q52 6 101 8v74q0 43 -22.5 59
t-90.5 16q-62 0 -142 -22l-24 95q88 36 193 36q146 0 188 -67q69 67 164 67q119 0 175 -73t56 -193v-35zM688 328q2 152 -93 152q-58 0 -89 -44t-34 -124zM352 136q-14 45 -16 103q-70 -5 -93 -10q-48 -11 -68 -31t-20 -50q0 -21 15.5 -36.5t43.5 -15.5q51 0 138 40z" />
    <glyph glyph-name="Oslashacute" unicode="&#x1fe;" horiz-adv-x="821" 
d="M777 699q-40 -48 -72 -82q78 -85 78 -235q0 -167 -105.5 -280.5t-281.5 -113.5q-147 0 -237 64q-35 -34 -89 -84l-46 45q52 48 87 82q-73 87 -73 228q0 169 109.5 282t280.5 113q140 0 229 -59q49 54 74 84zM566 562q-54 65 -153 65q-59 0 -102 -21.5t-67 -60.5
t-35.5 -87t-11.5 -106q0 -87 24 -148q195 195 345 358zM624 358q0 87 -25 144q-165 -177 -345 -356q54 -65 152 -65q218 0 218 277zM316 742l-18 64q162 56 261 112l43 -96q-107 -45 -286 -80z" />
    <glyph glyph-name="oslashacute" unicode="&#x1ff;" horiz-adv-x="607" 
d="M572 549q-3 -4 -23.5 -30t-33.5 -41q60 -69 60 -201q0 -112 -81 -198.5t-197 -86.5q-102 0 -164 43q-39 -42 -72 -75l-45 40q3 3 30 32t41 45q-54 68 -54 189q0 112 80.5 201.5t192.5 89.5q101 0 166 -41q11 14 30 37.5t27 33.5zM394 424q-34 48 -99 48q-30 0 -52.5 -13
t-34.5 -32t-19 -47.5t-9 -52t-2 -53.5q0 -47 9 -86q112 123 207 236zM428 274q0 52 -9 88q-118 -139 -205 -237q33 -45 99 -45q35 0 58.5 15t35.5 44t16.5 61t4.5 74zM392 841l70 -81q-136 -101 -241 -148l-34 52q104 73 205 177z" />
    <glyph glyph-name="Scommaaccent" unicode="&#x218;" horiz-adv-x="606" 
d="M253 -63l111 -5q-10 -113 -70 -239l-67 11q27 114 26 233zM569 203q0 -54 -26.5 -96.5t-70 -67.5t-94.5 -37.5t-105 -12.5q-59 0 -125.5 13.5t-113.5 39.5l15 176h65q6 -69 56.5 -109t122.5 -40q131 0 131 89q0 25 -22 46.5t-43.5 32t-73.5 32.5q-6 3 -9 4
q-46 19 -75.5 35t-65 42.5t-53.5 62.5t-18 80q0 93 78 157.5t182 64.5q52 0 113.5 -11.5t102.5 -32.5v-156h-56q-12 55 -59.5 86t-105.5 31q-54 0 -89 -21.5t-35 -63.5q0 -20 9 -36t33 -31t45 -25t67 -29q34 -15 53 -23.5t49.5 -24.5t47.5 -32t35.5 -37.5t26.5 -48t8 -57.5z
" />
    <glyph glyph-name="scommaaccent" unicode="&#x219;" horiz-adv-x="500" 
d="M197 -63l111 -5q-10 -113 -70 -239l-67 11q27 114 26 233zM464 161q0 -62 -38 -102.5t-88.5 -55.5t-110.5 -15q-98 0 -194 43l9 149l54 -1q7 -54 44.5 -83.5t94.5 -29.5q93 0 93 56q0 19 -14.5 34t-30.5 23t-59 26q-10 5 -16 7q-70 29 -111 68t-41 109q0 83 60.5 126
t152.5 43t185 -41l-19 -140l-49 6q-8 39 -39 67t-87 28q-42 0 -62 -15t-20 -37q0 -9 2.5 -17t9 -15t12 -12t19 -11.5t21 -10t27 -12t29.5 -12.5q39 -16 63 -29t50.5 -33.5t39.5 -48.5t13 -64z" />
    <glyph glyph-name="uni021A" unicode="&#x21a;" horiz-adv-x="699" 
d="M298 -63l111 -5q-10 -113 -70 -239l-67 11q27 114 26 233zM686 707v-185q-27 -8 -57 -3q-19 98 -94 102l-116 4v-352l5 -159q0 -19 3.5 -26t17.5 -10l89 -18q0 -45 -4 -60h-359q-6 31 -4 60l68 19q16 5 28 26.5t13 42.5l3 125v352l-125 -4q-64 -3 -83 -102
q-7 -2 -27.5 -1t-30.5 4v185h673z" />
    <glyph glyph-name="uni021B" unicode="&#x21b;" horiz-adv-x="458" 
d="M206 -63l111 -5q-10 -113 -70 -239l-67 11q27 114 26 233zM424 114l18 -71q-77 -54 -186 -54q-87 0 -124 38t-36 134l3 298h-80v53l190 146h29v-112h183v-87h-183v-183l4 -113q1 -34 20 -49t61 -15q45 0 101 15z" />
    <glyph glyph-name="uni021D" unicode="&#x21d;" horiz-adv-x="497" 
d="M458 491l-203 -261q213 -33 213 -210q0 -95 -78.5 -174.5t-190.5 -79.5q-115 0 -197 40l35 99q84 -51 150 -51q64 0 108 37t44 94q0 65 -53.5 104t-147.5 42l-29 38l200 273l-182 2q-8 0 -15 -1t-14 -5t-11.5 -7t-11.5 -11t-10 -12t-12 -15.5t-13 -16.5l-42 15l42 155
h393z" />
    <glyph glyph-name="uni0259" unicode="&#x259;" horiz-adv-x="568" 
d="M33 290h360q-4 91 -47.5 124.5t-124.5 33.5q-76 0 -154 -18l-23 75q93 53 202 53q72 0 121.5 -11.5t89 -41t58.5 -83.5t19 -136q0 -120 -75.5 -209.5t-194.5 -89.5q-120 0 -175.5 71t-55.5 191v41zM179 223q0 -159 99 -159q50 0 82.5 45.5t34.5 113.5h-216z" />
    <glyph glyph-name="circumflex" unicode="&#x2c6;" horiz-adv-x="556" 
d="M127 613l-40 47q100 77 194 184q107 -123 180 -177l-48 -54q-69 41 -144 108q-60 -51 -142 -108z" />
    <glyph glyph-name="caron" unicode="&#x2c7;" horiz-adv-x="523" 
d="M449 787q-93 -73 -194 -184q-107 123 -180 177l49 53q61 -37 144 -107q70 59 142 107z" />
    <glyph glyph-name="breve" unicode="&#x2d8;" horiz-adv-x="623" 
d="M444 795l34 -30q-18 -39 -60 -75t-107 -36q-59 0 -103.5 28.5t-64.5 62.5l56 53q58 -56 127 -56q70 0 118 53z" />
    <glyph glyph-name="dotaccent" unicode="&#x2d9;" horiz-adv-x="366" 
d="M265 726q0 -11 -36 -48t-49 -37q-14 0 -49.5 36.5t-35.5 48.5q0 15 35.5 50t49.5 35q12 0 48.5 -36t36.5 -49z" />
    <glyph glyph-name="ring" unicode="&#x2da;" horiz-adv-x="536" 
d="M382 736q0 -50 -41.5 -82.5t-86.5 -32.5q-22 0 -42 4.5t-41 15t-33.5 32.5t-12.5 52q0 54 39 86.5t90 32.5q128 0 128 -108zM308 732q0 29 -14.5 46.5t-40.5 17.5q-54 0 -54 -62q0 -29 14.5 -47t40.5 -18q54 0 54 63z" />
    <glyph glyph-name="ogonek" unicode="&#x2db;" horiz-adv-x="487" 
d="M396 -178l19 -60q-43 -27 -118 -27q-62 0 -97 30.5t-35 79.5q0 70 61 127t145 86l40 -27q-63 -22 -102.5 -64.5t-39.5 -94.5q1 -32 18 -49.5t43 -17.5q36 0 66 17z" />
    <glyph glyph-name="tilde" unicode="&#x2dc;" horiz-adv-x="556" 
d="M470 731q-3 -3 -11 -13.5t-11.5 -14.5t-11.5 -13t-13.5 -13t-14 -10.5t-17 -9.5t-19 -5t-21.5 -2q-21 0 -89 20t-83 20q-41 0 -70 -25l-29 36q2 2 11.5 13t12.5 14.5t13 13t15 13.5t15 10.5t17.5 9t18 5t21.5 2.5q28 0 94 -19t76 -19q20 0 36.5 5t23.5 10l6 5z" />
    <glyph glyph-name="hungarumlaut" unicode="&#x2dd;" horiz-adv-x="612" 
d="M137 598l-42 44q99 103 170 205l77 -68q-85 -98 -205 -181zM370 595l-39 46q104 91 183 191l73 -75q-93 -90 -217 -162z" />
    <glyph glyph-name="gravecmb" unicode="&#x300;" horiz-adv-x="0" 
d="M-464 766l70 81q108 -110 214 -182l-34 -52q-112 49 -250 153z" />
    <glyph glyph-name="acutecmb" unicode="&#x301;" horiz-adv-x="0" 
d="M-180 847l69 -81q-139 -105 -249 -153l-34 52q108 75 214 182z" />
    <glyph glyph-name="uni0302" unicode="&#x302;" horiz-adv-x="0" 
d="M-447 613l-39 47q95 73 194 184q106 -122 179 -177l-48 -54q-63 37 -144 108q-57 -50 -142 -108z" />
    <glyph glyph-name="tildecmb" unicode="&#x303;" horiz-adv-x="0" 
d="M-99 732q-1 -2 -10 -13.5t-11.5 -14.5t-11.5 -13t-13.5 -13.5t-14 -10t-17 -9t-18.5 -5t-22 -2.5q-21 0 -89 20t-84 20q-39 0 -70 -24l-28 35q22 27 33.5 39t37 27t52.5 15q28 0 94 -19t77 -19q19 0 35.5 5t23.5 10l7 5z" />
    <glyph glyph-name="uni0304" unicode="&#x304;" horiz-adv-x="0" 
d="M-132 686h-303v81h303v-81z" />
    <glyph glyph-name="uni0306" unicode="&#x306;" horiz-adv-x="0" 
d="M-165 796l33 -30q-17 -38 -59 -74.5t-107 -36.5q-59 0 -103.5 28.5t-64.5 62.5l56 54q57 -57 127 -57q68 0 118 53z" />
    <glyph glyph-name="uni0307" unicode="&#x307;" horiz-adv-x="0" 
d="M-218 726q0 -11 -36.5 -48t-49.5 -37q-14 0 -49.5 36.5t-35.5 48.5q0 15 35.5 50t49.5 35q12 0 49 -36t37 -49z" />
    <glyph glyph-name="uni0308" unicode="&#x308;" horiz-adv-x="0" 
d="M-416 643q-12 0 -42.5 31t-30.5 42q0 12 31 42.5t42 30.5t42.5 -31t31.5 -42q0 -10 -30.5 -41.5t-43.5 -31.5zM-180 643q-12 0 -42.5 31t-30.5 42q0 12 31 42.5t42 30.5t42.5 -31t31.5 -42q0 -10 -30.5 -41.5t-43.5 -31.5z" />
    <glyph glyph-name="hookcmb" unicode="&#x309;" horiz-adv-x="0" 
d="M-219 751q0 -86 -103 -147l-42 44q60 44 60 90q0 16 -10 26.5t-27 10.5q-31 0 -56 -20v72q28 21 75 21q44 0 73.5 -23.5t29.5 -73.5z" />
    <glyph glyph-name="uni030A" unicode="&#x30a;" horiz-adv-x="0" 
d="M-176 737q0 -50 -41.5 -82.5t-86.5 -32.5q-22 0 -42 4.5t-41 15t-33.5 32.5t-12.5 52q0 54 39 87t90 33q128 0 128 -109zM-250 733q0 29 -14.5 46.5t-40.5 17.5q-54 0 -54 -62q0 -29 14.5 -47t40.5 -18q54 0 54 63z" />
    <glyph glyph-name="uni030B" unicode="&#x30b;" horiz-adv-x="0" 
d="M-428 599l-42 44q103 110 169 205l78 -68q-88 -100 -205 -181zM-195 597l-40 46q106 89 183 191l74 -76q-94 -92 -217 -161z" />
    <glyph glyph-name="uni030C" unicode="&#x30c;" horiz-adv-x="0" 
d="M-108 787q-93 -73 -194 -184q-106 122 -179 177l48 53q58 -35 144 -107q70 59 142 107z" />
    <glyph glyph-name="uni0310" unicode="&#x310;" horiz-adv-x="0" 
d="M-167 796l33 -30q-17 -38 -59 -74.5t-107 -36.5q-59 0 -103.5 28.5t-64.5 62.5l56 54q57 -57 127 -57q68 0 118 53zM-213 863q0 -10 -33.5 -44.5t-46.5 -34.5q-12 0 -45.5 33.5t-33.5 45.5q0 14 33.5 46.5t45.5 32.5q11 0 45.5 -33.5t34.5 -45.5z" />
    <glyph glyph-name="dotbelowcmb" unicode="&#x323;" horiz-adv-x="0" 
d="M-224 -156q0 -11 -36 -48t-50 -37q-13 0 -48.5 36.5t-35.5 48.5q0 15 35.5 50t48.5 35q12 0 49 -36t37 -49z" />
    <glyph glyph-name="uni0324" unicode="&#x324;" horiz-adv-x="0" 
d="M-424 -216q-11 0 -41.5 30.5t-30.5 41.5q0 12 30.5 42.5t41.5 30.5q12 0 43 -31t31 -42q0 -10 -30.5 -41t-43.5 -31zM-187 -216q-12 0 -42.5 30.5t-30.5 41.5q0 12 30.5 42.5t42.5 30.5q11 0 42.5 -31t31.5 -42q0 -10 -30.5 -41t-43.5 -31z" />
    <glyph glyph-name="uni0325" unicode="&#x325;" horiz-adv-x="0" 
d="M-175 -172q0 -50 -41.5 -82t-86.5 -32q-22 0 -42 4.5t-41 15t-33.5 32t-12.5 51.5q0 54 39 87t90 33q23 0 43 -4.5t40.5 -15.5t32.5 -33.5t12 -55.5zM-248 -176q0 29 -15 46.5t-41 17.5q-54 0 -54 -62q0 -29 14.5 -47t40.5 -18q55 0 55 63z" />
    <glyph glyph-name="uni0327" unicode="&#x327;" horiz-adv-x="0" 
d="M-184 -168q0 -47 -43.5 -86.5t-96.5 -39.5t-101 34l40 71q42 -29 91 -29q42 0 42 24q0 14 -10 24.5t-32.5 18t-42.5 12t-55 10.5l59 139h72l-42 -75q63 -15 91 -37.5t28 -65.5z" />
    <glyph glyph-name="uni0328" unicode="&#x328;" horiz-adv-x="0" 
d="M-191 -178l19 -60q-43 -27 -118 -27q-63 0 -98 30.5t-35 79.5q0 70 61 126.5t145 86.5l41 -27q-63 -22 -102.5 -64.5t-39.5 -94.5q1 -32 18 -49.5t43 -17.5q36 0 66 17z" />
    <glyph glyph-name="uni032E" unicode="&#x32e;" horiz-adv-x="0" 
d="M-172 -70l33 -30q-11 -23 -28 -45t-55 -44t-83 -22q-59 0 -103.5 28.5t-64.5 62.5l56 53q58 -56 127 -56q68 0 118 53z" />
    <glyph glyph-name="uni0331" unicode="&#x331;" horiz-adv-x="0" 
d="M-153 -188h-304v81h304v-81z" />
    <glyph glyph-name="Sigma" unicode="&#x3a3;" horiz-adv-x="645" 
d="M606 208l-25 -208h-528l-24 71l212 294l-203 274l22 68h525v-164q-27 -7 -61 -5q-9 46 -29.5 66t-54.5 21l-216 3l162 -228l-204 -281l256 6q42 1 64.5 25t39.5 70q5 0 32 -5t32 -7z" />
    <glyph glyph-name="alpha" unicode="&#x3b1;" horiz-adv-x="681" 
d="M535 -10q-37 0 -55 18t-27 57l-12 62q-52 -68 -100 -100t-102 -32q-95 0 -148.5 64.5t-53.5 202.5q0 128 73 212t175 84q84 0 129 -46t66 -132q8 29 42 166h135q-60 -168 -142 -308l29 -105q7 -30 18.5 -41.5t30.5 -11.5q17 0 53 9l8 -48q-64 -51 -119 -51zM291 95
q72 0 135 133l-5 27q-18 124 -48.5 173.5t-86.5 49.5q-51 0 -80 -50.5t-29 -132.5q0 -200 114 -200z" />
    <glyph glyph-name="beta" unicode="&#x3b2;" horiz-adv-x="633" 
d="M604 230q0 -99 -77.5 -171.5t-180.5 -72.5q-73 0 -134 13l7 -219h-148l4 495v242q0 114 73.5 183t184.5 69q98 0 158.5 -40.5t60.5 -126.5q0 -55 -36 -101.5t-87 -67.5q76 -16 125.5 -71t49.5 -132zM458 208q0 75 -47 113.5t-122 43.5l-14 71q71 20 110 53.5t39 96.5
q0 50 -27.5 77.5t-77.5 27.5q-52 0 -79.5 -34.5t-27.5 -95.5v-470q62 -14 96 -14q68 0 109 33.5t41 97.5z" />
    <glyph glyph-name="gamma" unicode="&#x3b3;" horiz-adv-x="563" 
d="M273 -231q-33 0 -68 10q-2 14 -2 39q0 10 2 40q1 42 12 87q-47 290 -114 443q-33 80 -79 80q-9 0 -21 -4l-17 51q51 45 108 45q78 0 123 -99q46 -103 90 -330q123 236 123 330q0 45 -19 68q24 30 69 30q29 0 49 -18.5t20 -51.5q0 -54 -37.5 -139.5t-100 -200.5
t-82.5 -158q13 -101 16 -212q-34 -10 -72 -10z" />
    <glyph glyph-name="delta" unicode="&#x3b4;" horiz-adv-x="601" 
d="M574 273q0 -119 -85 -200t-202 -81q-115 0 -184.5 68t-69.5 182q0 87 48 153.5t129 94.5q-51 30 -79 60.5t-28 75.5q0 44 38 78t85.5 49t92.5 15q34 0 66.5 -4t66 -14t54 -30.5t20.5 -48.5q0 -49 -56 -75q-22 40 -74 67t-103 27q-31 0 -52.5 -11t-21.5 -31
q0 -23 36.5 -49.5t88.5 -55t104.5 -63.5t89 -89t36.5 -118zM428 252q0 74 -37 117t-113 83q-54 -28 -77.5 -71t-23.5 -111q0 -189 135 -189q62 0 89 49t27 122z" />
    <glyph glyph-name="pi" unicode="&#x3c0;" horiz-adv-x="677" 
d="M527 -8q-59 0 -80.5 31t-20.5 93l4 156v172l-202 -8v-162l6 -274h-128l8 274v156l-101 -6l-5 11l53 111h582l-8 -96q-12 -1 -43.5 -1.5t-47.5 -0.5v-174l5 -133q1 -61 50 -61q23 0 43 5l8 -45q-56 -48 -123 -48z" />
    <glyph glyph-name="phi" unicode="&#x3c6;" horiz-adv-x="786" 
d="M317 -220l3 214q-144 9 -222.5 77t-78.5 195q0 101 91 186t221 101l3 154h108l3 -151q157 -7 239.5 -78.5t82.5 -200.5q0 -105 -88 -185t-224 -96l4 -216h-142zM453 85q79 6 125 56.5t46 132.5q0 80 -47 129.5t-130 60.5zM322 89l7 377q-81 -8 -125 -60t-44 -132
q0 -155 162 -185z" />
    <glyph glyph-name="omega" unicode="&#x3c9;" horiz-adv-x="834" 
d="M800 247q0 -119 -61.5 -187.5t-169.5 -68.5q-50 0 -90.5 27.5t-61.5 62.5q-19 -34 -60.5 -62t-91.5 -28q-108 0 -169.5 68t-61.5 188q0 124 64.5 209t156.5 101q3 1 10 1q35 0 38 -43q-123 -55 -123 -279q0 -62 27 -108.5t74 -46.5q14 0 25.5 4.5t20 12t15.5 15.5
t11.5 18t7.5 17t5.5 14t2.5 8q-23 51 -23 187q28 17 74 17q45 0 69 -17q0 -131 -24 -187l3 -8q2 -7 5 -14t8 -17t11.5 -18t15.5 -16t20.5 -12t25.5 -4q46 0 73 46.5t27 108.5q0 220 -123 279q2 22 11.5 32.5t31.5 10.5q8 0 10 -1q92 -16 154 -100.5t62 -209.5z" />
    <glyph glyph-name="Wgrave" unicode="&#x1e80;" horiz-adv-x="1083" 
d="M677 742q-180 36 -287 80l44 96q99 -56 261 -112zM860 707h235q6 -24 4 -52l-26 -14q-27 -15 -44 -57l-223 -579l-103 -26l-157 421l-186 -395l-101 -26l-185 612q-7 27 -30 42l-41 24q0 34 5 50h296q4 -36 3 -55l-48 -16q-29 -11 -29 -48q1 -14 6 -31l109 -395l161 345
l-26 81q-10 19 -13 21q-2 7 -19.5 25.5t-20.5 22.5q0 34 3 50h274q7 -24 5 -55l-37 -16q-30 -16 -30 -47q0 -15 6 -32l134 -396l137 389q7 18 7 35q0 38 -28 49l-44 18q0 36 6 55z" />
    <glyph glyph-name="wgrave" unicode="&#x1e81;" horiz-adv-x="860" 
d="M284 759l69 81q99 -100 208 -176l-34 -52q-117 53 -243 147zM560 -20l-135 360l-129 -338l-105 -22l-134 442q-8 26 -17.5 37.5t-29.5 23.5q0 37 6 63h243q0 -58 -3 -69h-69l83 -330l130 383l95 25l141 -408l85 283q3 13 -3.5 26.5t-19.5 19.5l-30 11q0 1 -0.5 9.5
t-0.5 14.5q0 22 4 35h190v-53q-36 -27 -57 -86l-144 -407z" />
    <glyph glyph-name="Wacute" unicode="&#x1e82;" horiz-adv-x="1083" 
d="M462 742l-18 64q162 56 261 112l43 -96q-107 -45 -286 -80zM860 707h235q6 -24 4 -52l-26 -14q-27 -15 -44 -57l-223 -579l-103 -26l-157 421l-186 -395l-101 -26l-185 612q-7 27 -30 42l-41 24q0 34 5 50h296q4 -36 3 -55l-48 -16q-29 -11 -29 -48q1 -14 6 -31l109 -395
l161 345l-26 81q-10 19 -13 21q-2 7 -19.5 25.5t-20.5 22.5q0 34 3 50h274q7 -24 5 -55l-37 -16q-30 -16 -30 -47q0 -15 6 -32l134 -396l137 389q7 18 7 35q0 38 -28 49l-44 18q0 36 6 55z" />
    <glyph glyph-name="wacute" unicode="&#x1e83;" horiz-adv-x="860" 
d="M536 841l70 -81q-136 -101 -241 -148l-34 52q104 73 205 177zM560 -20l-135 360l-129 -338l-105 -22l-134 442q-8 26 -17.5 37.5t-29.5 23.5q0 37 6 63h243q0 -58 -3 -69h-69l83 -330l130 383l95 25l141 -408l85 283q3 13 -3.5 26.5t-19.5 19.5l-30 11q0 1 -0.5 9.5
t-0.5 14.5q0 22 4 35h190v-53q-36 -27 -57 -86l-144 -407z" />
    <glyph glyph-name="Wdieresis" unicode="&#x1e84;" horiz-adv-x="1083" 
d="M447 756q-11 0 -41.5 31t-30.5 42q0 12 30.5 42.5t41.5 30.5q12 0 43 -31t31 -42q0 -10 -30.5 -41.5t-43.5 -31.5zM680 756q-12 0 -42.5 31t-30.5 42q0 12 31 42.5t42 30.5t42.5 -31t31.5 -42q0 -10 -30.5 -41.5t-43.5 -31.5zM860 707h235q6 -24 4 -52l-26 -14
q-27 -15 -44 -57l-223 -579l-103 -26l-157 421l-186 -395l-101 -26l-185 612q-7 27 -30 42l-41 24q0 34 5 50h296q4 -36 3 -55l-48 -16q-29 -11 -29 -48q1 -14 6 -31l109 -395l161 345l-26 81q-10 19 -13 21q-2 7 -19.5 25.5t-20.5 22.5q0 34 3 50h274q7 -24 5 -55l-37 -16
q-30 -16 -30 -47q0 -15 6 -32l134 -396l137 389q7 18 7 35q0 38 -28 49l-44 18q0 36 6 55z" />
    <glyph glyph-name="wdieresis" unicode="&#x1e85;" horiz-adv-x="860" 
d="M322 643q-11 0 -41.5 31t-30.5 42q0 12 30.5 42.5t41.5 30.5q12 0 43 -31t31 -42q0 -10 -30.5 -41.5t-43.5 -31.5zM550 643q-11 0 -41.5 31t-30.5 42q0 12 30.5 42.5t41.5 30.5t42.5 -31t31.5 -42q0 -10 -30.5 -41.5t-43.5 -31.5zM560 -20l-135 360l-129 -338l-105 -22
l-134 442q-8 26 -17.5 37.5t-29.5 23.5q0 37 6 63h243q0 -58 -3 -69h-69l83 -330l130 383l95 25l141 -408l85 283q3 13 -3.5 26.5t-19.5 19.5l-30 11q0 1 -0.5 9.5t-0.5 14.5q0 22 4 35h190v-53q-36 -27 -57 -86l-144 -407z" />
    <glyph glyph-name="Ygrave" unicode="&#x1ef2;" horiz-adv-x="679" 
d="M460 742q-180 36 -287 80l44 96q99 -56 261 -112zM430 707h251q5 -23 5 -52q-44 -23 -69 -60l-208 -313l3 -166q0 -34 29 -40l66 -17q0 -36 -7 -59h-321q-6 24 -6 57l50 13q18 5 30.5 20t12.5 36l3 148l-207 316q-21 32 -63 67q-2 32 2 50h288q5 -27 5 -55l-43 -17
q-28 -10 -28 -41q0 -20 11 -37l133 -208l131 205q10 16 9 31q0 27 -32 44l-48 23q-2 30 3 55z" />
    <glyph glyph-name="ygrave" unicode="&#x1ef3;" horiz-adv-x="559" 
d="M560 546q0 -53 -1 -58q-34 -19 -60 -82l-215 -513q-35 -85 -131 -130l-78 112q59 24 97 57q33 25 48 56l-157 440q-11 31 -67 57q0 39 5 61h260q0 -64 -1 -69h-68l114 -348l107 288q6 16 0.5 32.5t-18.5 22.5q-3 3 -10 5.5t-14.5 4t-8.5 2.5v9q-1 9 -1 16q0 24 4 37h195z
M143 759l69 81q99 -100 208 -176l-34 -52q-117 53 -243 147z" />
    <glyph glyph-name="uni2012" unicode="&#x2012;" horiz-adv-x="547" 
d="M74 241v122h400v-122h-400z" />
    <glyph glyph-name="endash" unicode="&#x2013;" horiz-adv-x="603" 
d="M521 243h-440v79h440v-79z" />
    <glyph glyph-name="emdash" unicode="&#x2014;" horiz-adv-x="1049" 
d="M967 243h-886v79h886v-79z" />
    <glyph glyph-name="quoteleft" unicode="&#x2018;" horiz-adv-x="242" 
d="M218 711q-66 -68 -72 -110q20 -16 43 -43.5t23 -37.5q0 -19 -37.5 -55.5t-54.5 -36.5q-22 0 -58 38.5t-36 63.5q0 58 46 119.5t106 97.5z" />
    <glyph glyph-name="quoteright" unicode="&#x2019;" horiz-adv-x="246" 
d="M228 633q0 -58 -46.5 -120t-106.5 -97l-39 36q66 68 72 110q-20 15 -43.5 43t-23.5 38q0 19 37.5 55.5t54.5 36.5q23 0 59 -38.5t36 -63.5z" />
    <glyph glyph-name="quotesinglbase" unicode="&#x201a;" horiz-adv-x="250" 
d="M218 32q0 -58 -46 -119.5t-107 -97.5l-39 35q66 74 72 110q-20 16 -43.5 44t-23.5 38q0 18 37.5 55t54.5 37q23 0 59 -38.5t36 -63.5z" />
    <glyph glyph-name="quotedblleft" unicode="&#x201c;" horiz-adv-x="487" 
d="M462 711q-66 -71 -72 -111q20 -16 43.5 -43.5t23.5 -37.5q0 -18 -37.5 -55t-54.5 -37q-23 0 -59 38.5t-36 63.5q0 58 46.5 120t106.5 97zM218 711q-65 -68 -72 -111q20 -16 43 -43.5t23 -37.5q0 -18 -37.5 -55t-54.5 -37q-22 0 -58 38.5t-36 63.5q0 58 46 119.5t106 97.5
z" />
    <glyph glyph-name="quotedblright" unicode="&#x201d;" horiz-adv-x="491" 
d="M472 633q0 -58 -46 -119.5t-106 -97.5l-40 36q67 69 73 110q-20 15 -43.5 43t-23.5 38q0 19 37.5 55.5t54.5 36.5q22 0 58 -38.5t36 -63.5zM228 633q0 -58 -46.5 -120t-106.5 -97l-39 36q66 68 72 110q-20 15 -43.5 43t-23.5 38q0 19 37.5 55.5t54.5 36.5q23 0 59 -38.5
t36 -63.5z" />
    <glyph glyph-name="quotedblbase" unicode="&#x201e;" horiz-adv-x="495" 
d="M463 32q0 -58 -46.5 -120t-106.5 -97l-39 36q66 71 72 110q-20 15 -43.5 43t-23.5 38q0 19 37.5 55.5t54.5 36.5q23 0 59 -38.5t36 -63.5zM218 32q0 -58 -46 -119.5t-106 -97.5l-40 36q67 69 73 110q-20 15 -43.5 43t-23.5 38q0 19 37.5 55.5t54.5 36.5q22 0 58 -38.5
t36 -63.5z" />
    <glyph glyph-name="dagger" unicode="&#x2020;" horiz-adv-x="549" 
d="M515 391l-22 -55l-176 27l27 -391l-69 -22l-70 22l27 391l-176 -27l-22 55l22 57l176 -27l-27 182l69 22l70 -22l-27 -182l176 27z" />
    <glyph glyph-name="daggerdbl" unicode="&#x2021;" horiz-adv-x="549" 
d="M317 213l176 28l22 -56l-22 -57l-176 27l27 -182l-70 -22l-69 22l27 182l-176 -27l-22 57l22 56l176 -28v150l-176 -27l-22 55l22 57l176 -27l-27 182l69 22l70 -22l-27 -182l176 27l22 -57l-22 -55l-176 27v-150z" />
    <glyph glyph-name="bullet" unicode="&#x2022;" horiz-adv-x="363" 
d="M327 352q0 -63 -42 -103.5t-103 -40.5t-103 41t-42 103t42 103.5t103 41.5t103 -41.5t42 -103.5z" />
    <glyph glyph-name="ellipsis" unicode="&#x2026;" horiz-adv-x="891" 
d="M862 35q0 -15 -41 -56.5t-57 -41.5q-15 0 -55.5 41t-40.5 57t40.5 56t55.5 40t56.5 -40t41.5 -56zM545 35q0 -15 -41.5 -56.5t-56.5 -41.5t-55.5 41t-40.5 57t40.5 56t55.5 40t56.5 -40t41.5 -56zM223 35q0 -15 -41 -56.5t-56 -41.5t-56 41t-41 57t41 56t56 40t56 -40
t41 -56z" />
    <glyph glyph-name="perthousand" unicode="&#x2030;" horiz-adv-x="913" 
d="M188 368q-55 0 -91 28.5t-36 89.5q0 57 38 91t91 34q57 0 94.5 -28.5t37.5 -91.5q0 -58 -39 -90.5t-95 -32.5zM189 427q25 0 38.5 18t13.5 47q0 60 -51 60q-49 0 -49 -67q0 -58 48 -58zM464 -19q-56 0 -92 28.5t-36 89.5q0 58 38 91.5t92 33.5q56 0 93.5 -28.5
t37.5 -91.5q0 -58 -39 -90.5t-94 -32.5zM464 40q25 0 39 18t14 46q0 60 -52 60q-49 0 -49 -66q0 -58 48 -58zM760 -19q-56 0 -92 28.5t-36 89.5q0 57 38.5 91t91.5 34q56 0 93.5 -28.5t37.5 -91.5q0 -58 -39 -90.5t-94 -32.5zM761 40q25 0 38.5 18t13.5 46q0 60 -52 60
q-49 0 -49 -66q0 -58 49 -58zM93 57l-45 62l501 405l45 -60z" />
    <glyph glyph-name="guilsinglleft" unicode="&#x2039;" horiz-adv-x="271" 
d="M230 483q-45 -140 -94 -212q57 -108 87 -213q-44 -8 -74 -15q-30 87 -122 229q94 128 134 227q38 -8 69 -16z" />
    <glyph glyph-name="guilsinglright" unicode="&#x203a;" horiz-adv-x="271" 
d="M244 272q-92 -142 -122 -229l-73 15q27 99 85 213q-49 73 -93 212l69 16q38 -94 134 -227z" />
    <glyph glyph-name="uni203D" unicode="&#x203d;" horiz-adv-x="388" 
d="M218 514l-6 -118q61 70 61 154q0 25 -23.5 49t-73.5 24q-24 0 -44.5 -4.5t-49 -15t-43.5 -14.5q-20 29 -20 54q0 77 132 77q96 0 165.5 -53.5t69.5 -119.5q0 -49 -21.5 -90t-48 -63.5t-60.5 -50t-49 -46.5l-2 -36l-2 -50h-98l-16 303l64 41zM243 35q0 -14 -38 -52.5
t-53 -38.5q-14 0 -52 38t-38 53t38 52.5t52 37.5t52.5 -37.5t38.5 -52.5z" />
    <glyph glyph-name="fraction" unicode="&#x2044;" horiz-adv-x="141" 
d="M366 603l-539 -541l-50 54l539 538z" />
    <glyph glyph-name="zerosuperior" unicode="&#x2070;" horiz-adv-x="375" 
d="M350 606q0 -87 -38.5 -140.5t-126.5 -53.5q-160 0 -160 183q0 38 8 69.5t25.5 61t52 46t82.5 16.5q157 0 157 -182zM247 602q0 22 -2 37.5t-7 32t-17 25t-31 8.5q-27 0 -41.5 -17.5t-17.5 -38t-3 -53.5q0 -54 13.5 -81t45.5 -27q37 0 48.5 29.5t11.5 84.5z" />
    <glyph glyph-name="foursuperior" unicode="&#x2074;" horiz-adv-x="336" 
d="M322 498h-56v-84h-94v84h-155v79l108 206h141v-210h56v-75zM172 573v148l-82 -148h82z" />
    <glyph glyph-name="fivesuperior" unicode="&#x2075;" horiz-adv-x="329" 
d="M300 536q0 -59 -43 -93t-109 -34q-48 0 -114 15q16 62 19 72q64 -16 93 -16q26 0 39.5 13.5t13.5 34.5q0 24 -16.5 36t-41.5 12q-49 0 -91 -4v211h234v-81h-142v-52q3 0 9.5 0.5t8.5 0.5q140 0 140 -115z" />
    <glyph glyph-name="sixsuperior" unicode="&#x2076;" horiz-adv-x="353" 
d="M326 542q0 -67 -41.5 -100t-105.5 -33q-77 0 -115 37.5t-38 130.5q0 101 50.5 155.5t131.5 54.5q46 0 96 -15l-24 -76q-27 8 -68 8q-66 0 -82 -73q36 17 67 17q129 0 129 -106zM224 537q0 46 -45 46q-20 0 -51 -7v-15q1 -43 14 -59.5t42 -16.5q17 0 28.5 15t11.5 37z" />
    <glyph glyph-name="sevensuperior" unicode="&#x2077;" horiz-adv-x="277" 
d="M270 705l-161 -300l-96 26l157 262h-164v90h264v-78z" />
    <glyph glyph-name="eightsuperior" unicode="&#x2078;" horiz-adv-x="346" 
d="M321 518q0 -51 -40.5 -79.5t-109.5 -28.5q-146 0 -146 101q0 60 65 95q-51 36 -51 83q0 51 38.5 74.5t99.5 23.5q58 0 96 -25.5t38 -66.5q0 -49 -57 -85q67 -37 67 -92zM210 686q0 12 -8.5 21.5t-26.5 9.5q-40 0 -40 -32q0 -20 49 -43q10 9 14 13t8 12.5t4 18.5zM218 521
q0 24 -63 52q-29 -18 -29 -54q0 -16 11.5 -27.5t36.5 -11.5q23 0 33.5 12t10.5 29z" />
    <glyph glyph-name="ninesuperior" unicode="&#x2079;" horiz-adv-x="349" 
d="M139 410q-43 0 -93 15l23 77q27 -9 67 -9q70 0 85 71q-36 -17 -68 -17q-59 0 -93 27t-34 82q0 67 41 99.5t106 32.5q153 0 153 -168q0 -107 -51 -158.5t-136 -51.5zM172 612q18 0 50 7v17q-2 76 -54 76q-18 0 -28.5 -14.5t-10.5 -36.5q0 -49 43 -49z" />
    <glyph glyph-name="uni207A" unicode="&#x207a;" horiz-adv-x="373" 
d="M327 549l-96 2l2 -104h-93l2 104l-96 -2v87l96 -2l-2 104h93l-2 -104l96 2v-87z" />
    <glyph glyph-name="minussuperior" unicode="&#x207b;" horiz-adv-x="363" 
d="M317 549h-271v87h271v-87z" />
    <glyph glyph-name="uni207C" unicode="&#x207c;" horiz-adv-x="363" 
d="M317 627h-271v84h271v-84zM317 472h-271v83h271v-83z" />
    <glyph glyph-name="parenleftsuperior" unicode="&#x207d;" horiz-adv-x="233" 
d="M191 268q-18 14 -38 34.5t-50.5 62t-50 104.5t-19.5 134q0 58 14 110t33 86.5t43.5 63t40.5 41.5t29 20l46 -49q-121 -91 -121 -271q0 -159 122 -286z" />
    <glyph glyph-name="parenrightsuperior" unicode="&#x207e;" horiz-adv-x="233" 
d="M59 268l-48 50q121 126 121 286q0 180 -121 271l47 49q13 -8 28.5 -20.5t40.5 -41t44 -62.5t33 -86.5t14 -110.5q0 -71 -19.5 -133.5t-50.5 -104.5t-51 -62.5t-38 -34.5z" />
    <glyph glyph-name="n.superior" unicode="&#x207f;" horiz-adv-x="485" 
d="M472 455q0 -27 -5 -40h-186q-5 18 -4 39l24 12q12 7 14 26l2 109v39q0 20 -1.5 32t-6.5 24.5t-17 18t-31 5.5q-52 0 -88 -15v-105l1 -105q0 -24 10 -27l38 -12q0 -25 -5 -41h-196q-4 18 -2 37l32 13q18 6 18 29l2 107v131h-56v46q62 14 129 14q26 0 26 -24v-21
q60 46 125 46q43 0 69 -8t37.5 -27.5t14 -36.5t2.5 -50v-71l1 -115q1 -17 10 -19z" />
    <glyph glyph-name="zeroinferior" unicode="&#x2080;" horiz-adv-x="375" 
d="M350 190q0 -87 -38.5 -140.5t-126.5 -53.5q-160 0 -160 183q0 38 8 69.5t25.5 61t52 46t82.5 16.5q157 0 157 -182zM247 186q0 22 -2 37.5t-7 32t-17 25t-31 8.5q-27 0 -41.5 -17.5t-17.5 -38t-3 -53.5q0 -54 13.5 -81t45.5 -27q37 0 48.5 29.5t11.5 84.5z" />
    <glyph glyph-name="oneinferior" unicode="&#x2081;" horiz-adv-x="238" 
d="M193 0h-102v285h-73v79l175 4v-368z" />
    <glyph glyph-name="twoinferior" unicode="&#x2082;" horiz-adv-x="306" 
d="M287 0h-274v66q164 124 164 177q0 42 -45 42q-42 0 -76 -23l-35 69q53 40 126 40q67 0 100 -34t33 -83q0 -88 -137 -172h144v-82z" />
    <glyph glyph-name="threeinferior" unicode="&#x2083;" horiz-adv-x="303" 
d="M282 110q0 -61 -41.5 -88.5t-109.5 -27.5q-63 0 -117 18l18 76q48 -12 90 -12q57 0 57 41q0 27 -19.5 36.5t-68.5 11.5v51q41 4 56.5 15.5t15.5 34.5q-2 28 -37 28q-45 0 -75 -15l-25 67q51 27 108 27q61 0 95.5 -24.5t34.5 -73.5q0 -52 -44 -76q62 -27 62 -89z" />
    <glyph glyph-name="fourinferior" unicode="&#x2084;" horiz-adv-x="336" 
d="M322 84h-56v-84h-94v84h-155v79l108 206h141v-210h56v-75zM172 159v148l-82 -148h82z" />
    <glyph glyph-name="fiveinferior" unicode="&#x2085;" horiz-adv-x="329" 
d="M300 122q0 -59 -43 -93t-109 -34q-48 0 -114 15q16 62 19 72q64 -16 93 -16q26 0 39.5 13.5t13.5 34.5q0 24 -16.5 36t-41.5 12q-49 0 -91 -4v211h234v-81h-142v-52q3 0 9.5 0.5t8.5 0.5q140 0 140 -115z" />
    <glyph glyph-name="sixinferior" unicode="&#x2086;" horiz-adv-x="353" 
d="M326 127q0 -67 -41.5 -100t-105.5 -33q-77 0 -115 37.5t-38 130.5q0 102 50.5 156t131.5 54q46 0 96 -15l-24 -76q-27 8 -68 8q-66 0 -82 -73q36 17 67 17q129 0 129 -106zM224 122q0 46 -45 46q-20 0 -51 -7v-15q1 -43 14 -59.5t42 -16.5q17 0 28.5 15t11.5 37z" />
    <glyph glyph-name="seveninferior" unicode="&#x2087;" horiz-adv-x="277" 
d="M270 291l-161 -300l-96 26l157 262h-164v90h264v-78z" />
    <glyph glyph-name="eightinferior" unicode="&#x2088;" horiz-adv-x="347" 
d="M321 104q0 -51 -40.5 -79.5t-109.5 -28.5q-146 0 -146 101q0 60 65 95q-51 36 -51 83q0 51 38.5 74.5t99.5 23.5q58 0 96 -25.5t38 -66.5q0 -49 -57 -85q67 -37 67 -92zM210 272q0 12 -8.5 21.5t-26.5 9.5q-40 0 -40 -32q0 -20 49 -43q10 9 14 13t8 12.5t4 18.5zM218 107
q0 24 -63 52q-29 -18 -29 -54q0 -16 11.5 -27.5t36.5 -11.5q23 0 33.5 12t10.5 29z" />
    <glyph glyph-name="nineinferior" unicode="&#x2089;" horiz-adv-x="349" 
d="M139 -6q-43 0 -93 15l23 77q27 -9 67 -9q70 0 85 71q-36 -17 -68 -17q-59 0 -93 27t-34 82q0 67 41 99.5t106 32.5q153 0 153 -168q0 -107 -51 -158.5t-136 -51.5zM172 196q18 0 50 7v17q-2 76 -54 76q-18 0 -28.5 -14.5t-10.5 -36.5q0 -49 43 -49z" />
    <glyph glyph-name="parenleft.inferior" unicode="&#x208d;" horiz-adv-x="236" 
d="M191 -147q-18 14 -38 34.5t-50.5 62t-50 104.5t-19.5 134q0 58 14 110t33 86.5t43.5 63t40.5 41.5t29 20l46 -49q-121 -91 -121 -271q0 -159 122 -286z" />
    <glyph glyph-name="parenright.inferior" unicode="&#x208e;" horiz-adv-x="236" 
d="M59 -147l-48 50q121 126 121 286q0 180 -121 271l47 49q13 -8 28.5 -20.5t40.5 -41t44 -62.5t33 -86.5t14 -110.5q0 -71 -19.5 -133.5t-50.5 -104.5t-51 -62.5t-38 -34.5z" />
    <glyph glyph-name="colonsign" unicode="&#x20a1;" horiz-adv-x="693" 
d="M77 -75l62 154q-103 91 -103 270q0 153 103 257.5t264 111.5l34 82h62l-34 -82q56 -3 95 -13l39 95h62l-47 -113q5 -2 15 -5.5t14 -5.5v-164q-24 -5 -57 -1q-10 25 -25 47l-185 -451q35 -5 66 -5q75 0 180 21l27 -92q-97 -38 -223 -38q-52 0 -95 6l-30 -74h-62l34 85
q-52 15 -85 35l-49 -120h-62zM321 124l197 479q-37 25 -90 26l-184 -451q31 -34 77 -54zM206 239l158 386q-181 -31 -181 -266q0 -71 23 -120z" />
    <glyph glyph-name="uni20A2" unicode="&#x20a2;" horiz-adv-x="746" 
d="M437 -7q-188 0 -288.5 87.5t-100.5 268.5q0 158 108.5 264t276.5 106q55 0 95.5 -6t63.5 -13.5t62 -23.5v-164q-24 -5 -57 -1q-44 119 -168 119q-108 0 -171.5 -65t-63.5 -206q0 -95 41.5 -156t114.5 -85v234h-74v65q103 21 162 21q45 0 45 -38v-40q22 32 61 55t84 23
q59 0 96 -22l-39 -120q-40 22 -88 22q-78 0 -111 -28v-187q61 2 147 20l27 -92q-95 -38 -223 -38z" />
    <glyph glyph-name="franc" unicode="&#x20a3;" horiz-adv-x="878" 
d="M56 0q-5 31 -4 56l55 16q15 5 25 20t10 34l4 153v302q0 36 -29 48l-61 22q0 39 4 56h552v-166q-28 -6 -61 -4q-17 81 -89 82l-177 7v-219l128 3q98 18 163 18q46 0 46 -38v-41q22 32 60.5 55.5t83.5 23.5q60 0 97 -22l-39 -120q-40 22 -88 22q-77 0 -112 -28v-65l4 -102
q0 -13 3 -18t11 -7l119 -25q0 -48 -6 -63h-328q-8 31 -5 55l31 15q32 13 34 58l2 87v106l-204 4v-49l3 -150q2 -36 25 -41l73 -20q0 -45 -7 -65h-323z" />
    <glyph glyph-name="lira" unicode="&#x20a4;" horiz-adv-x="596" 
d="M41 0q-3 17 -3 56l46 14q24 8 32 22.5t11 44.5l16 157h-90v60h97l6 62h-103v60h110l9 88q9 81 79.5 143t152.5 62q154 0 154 -72q0 -24 -14.5 -44.5t-36.5 -31.5q-5 4 -22 20t-26 24t-22 16t-22 8q-94 0 -104 -106l-11 -107h177v-60h-183l-7 -62h190v-60h-196l-19 -194
l197 9q29 1 53 24l52 -51q-39 -82 -115 -82h-408z" />
    <glyph glyph-name="mill" unicode="&#x20a5;" horiz-adv-x="1088" 
d="M793 741l-92 -203q55 20 106 20q42 0 72.5 -5.5t49.5 -18.5t30.5 -26.5t16.5 -37.5t6.5 -42.5t1.5 -50.5v-103l3 -172q0 -25 16 -29l65 -16q0 -37 -7 -57h-270q-6 25 -4 57l36 17q22 12 22 43l3 156v65q0 33 -2 50.5t-10 36t-26.5 26t-48.5 7.5q-51 0 -103 -14l-31 -72
v-98l3 -172q0 -25 14 -29l70 -16q0 -40 -6 -57h-251l-60 -133h-81l175 390l1 81q0 33 -2 50.5t-10 36t-26 26t-48 7.5q-75 0 -135 -29v-155l2 -159q0 -35 15 -38l63 -18q0 -39 -5 -59h-287q-4 15 -4 53l47 17q30 11 30 48l2 156v196h-85v65q95 21 179 21q21 0 30 -8.5
t9 -27.5v-31q28 20 46.5 32t57 24.5t80.5 12.5q120 0 154 -56l108 239h80z" />
    <glyph glyph-name="uni20A6" unicode="&#x20a6;" horiz-adv-x="863" 
d="M625 -26l-219 305h-178v-19l3 -142q0 -19 4 -26t20 -12l85 -25q0 -41 -5 -55h-293q-6 29 -4 53l52 15q22 6 34.5 31t13.5 56l2 105v19h-88v57h88v71h-88v57h88v117q0 36 -29 51l-61 27q0 41 2 48h220l179 -243h195v104q0 46 -37 64l-63 27q0 37 4 48h275q4 -30 4 -46
l-53 -23q-18 -8 -29.5 -27t-11.5 -42v-105h91v-57h-91v-71h91v-57h-91v-273zM227 464h48l-46 65h-7l5 -51v-14zM647 195h7l-6 75v9h-62zM228 336h137l-49 71h-88v-71zM544 336h102v71h-153z" />
    <glyph glyph-name="uni20A7" unicode="&#x20a7;" horiz-adv-x="1627" 
d="M676 497q0 -105 -76.5 -172t-209.5 -67h-56v72l31 1q157 4 157 150q0 141 -155 145l-95 2v-355l3 -152q0 -34 22 -38l102 -24q0 -45 -5 -59h-352q-5 34 -3 55l51 14q17 4 27.5 21t11.5 41l3 142v315q0 30 -24 40l-68 26q-1 8 0.5 26t4.5 27h389q111 0 176.5 -52
t65.5 -158zM1598 161q0 -62 -38 -102.5t-88.5 -55.5t-110.5 -15q-98 0 -194 43l9 149l54 -1q7 -54 44.5 -83.5t94.5 -29.5q93 0 93 56q0 19 -14.5 34t-30.5 23t-59 26q-10 5 -16 7q-70 29 -111 68t-41 109q0 83 60.5 126t152.5 43t185 -41l-19 -140l-49 6q-8 39 -39 67
t-87 28q-42 0 -62 -15t-20 -37q0 -9 2.5 -17t9 -15t12 -12t19 -11.5t21 -10t27 -12t29.5 -12.5q39 -16 63 -29t50.5 -33.5t39.5 -48.5t13 -64zM1109 114l18 -71q-77 -54 -186 -54q-87 0 -124 38t-36 134l3 298h-80v53l190 146h29v-112h183v-87h-183v-183l4 -113
q1 -34 20 -49t61 -15q46 0 101 15z" />
    <glyph glyph-name="uni20A8" unicode="&#x20a8;" horiz-adv-x="1151" 
d="M46 0q-5 34 -3 55l48 14q37 10 39 62l3 142v319q0 26 -23 36l-69 26q-1 8 0.5 26t4.5 27h357q55 0 100.5 -11t81.5 -33.5t56.5 -62.5t20.5 -93q0 -58 -33 -109.5t-93 -77.5q13 -29 38 -71.5t44 -61.5q49 -66 116.5 -101t126.5 -35q60 -1 93 18.5t33 54.5q0 14 -7 25
t-27 23t-35 18.5t-50 21.5q-70 29 -111 68t-41 109q0 83 60.5 126t150.5 43q93 0 186 -41l-18 -140l-50 6q-21 95 -131 95q-38 0 -57.5 -16t-19.5 -39q0 -9 3 -16.5t10.5 -14.5t13.5 -12t20 -12t22 -10t26 -11t26 -11q37 -15 60.5 -28t51 -33.5t41 -48t13.5 -61.5
q0 -90 -80 -140.5t-209 -50.5q-94 0 -181 32t-144 98q-26 21 -66.5 81t-60.5 105q-8 -2 -33 -2h-77l3 -175q0 -27 19 -32l70 -20q0 -50 -4 -61h-315zM272 364h81q80 1 116.5 32t36.5 99q0 132 -171 132l-63 1v-264z" />
    <glyph glyph-name="uni20A9" unicode="&#x20a9;" horiz-adv-x="1164" 
d="M734 -25l-114 308h-98l-131 -277l-101 -29l-92 306h-145v57h127l-26 89h-101v57h84l-32 105q-7 28 -30 42l-40 24q0 37 4 50h297q2 -46 2 -55l-48 -16q-32 -11 -27 -56q0 -6 23 -94h242l9 21l-24 75q-9 22 -16 26q-2 8 -19 26.5t-19 22.5q0 45 1 50h275q5 -12 5 -55
l-37 -16q-29 -14 -29 -50q0 -12 5 -29l24 -71h224l23 64q7 18 7 35q0 37 -27 49l-44 18q0 39 5 55h235q5 -25 4 -52l-26 -14q-26 -15 -43 -57l-39 -98h89v-57h-110l-35 -89h145v-57h-167l-106 -279zM327 340h132l42 89h-199zM753 340h122l32 89h-185zM376 162l56 121h-90z
M549 340h50l-22 60zM813 161l41 122h-82z" />
    <glyph glyph-name="uni20AA" unicode="&#x20aa;" horiz-adv-x="818" 
d="M264 0v465h93v-326h154q47 0 78 7t49 19t27 36t11.5 48t2.5 65v393h93v-413q0 -44 -1 -73t-5 -61t-12 -51.5t-21 -40t-32.5 -31.5t-47 -20.5t-63 -13t-82.5 -3.5h-244zM56 0v707h243q47 0 82.5 -3.5t63 -13t47 -20.5t32.5 -31.5t21 -40t12 -51.5t5 -61t1 -73v-172h-93
v152q0 41 -2.5 65t-11.5 48t-27 36t-49 19t-78 7h-154v-568h-92z" />
    <glyph glyph-name="dong" unicode="&#x20ab;" horiz-adv-x="625" 
d="M221 104q-193 0 -193 232q0 100 69.5 161.5t186.5 61.5q53 0 83 -5v68h-148v73h148v69h136v-69h71v-73h-71v-259l3 -161h69l10 -50q-31 -17 -45 -24t-45.5 -15.5t-65.5 -8.5q-64 0 -64 79q-72 -79 -144 -79zM271 215q31 0 92 21l4 128v110q-55 10 -86 10q-56 0 -83 -39
t-27 -106q0 -66 23.5 -95t76.5 -29zM79 0v73h484v-73h-484z" />
    <glyph glyph-name="Euro" unicode="&#x20ac;" horiz-adv-x="604" 
d="M567 42q-75 -51 -200 -51q-119 0 -180.5 44.5t-78.5 141.5h-75v53h69q-2 32 -2 49q0 18 3 36h-70v53h82q27 84 97 138t170 54q32 0 61.5 -3.5t57.5 -12t45 -25.5t17 -40q0 -28 -12.5 -45t-40.5 -36q-30 31 -66.5 54t-65.5 23q-53 0 -85 -24.5t-45 -82.5h177v-53h-184
q-1 -12 -1 -39q0 -24 3 -46h182v-53h-166q40 -94 146 -94q40 0 116 53q19 -17 32.5 -43t13.5 -51z" />
    <glyph glyph-name="uni20AD" unicode="&#x20ad;" horiz-adv-x="791" 
d="M755 -16q-153 3 -224 83l-234 284h-16v-70l2 -171q1 -16 5 -22.5t17 -9.5l63 -17q0 -37 -6 -61h-312q-4 28 -3 54l47 15q18 6 31 22.5t14 38.5l2 148v73h-86v57h86v168q0 21 -13 37t-30 23l-45 18q-2 31 3 53h308q3 -34 -1 -57l-46 -14q-36 -11 -36 -60v-168h42l176 160
q17 14 17 33q0 29 -19 35l-35 15q0 40 4 56h264v-47l-298 -252h297v-57h-262l131 -151q71 -86 172 -145z" />
    <glyph glyph-name="uni20AE" unicode="&#x20ae;" horiz-adv-x="741" 
d="M193 0q-6 31 -4 60l68 19q16 5 28 26.5t13 42.5l2 60l-159 -63v62l160 63v65l-160 -64v62l160 64v228l-124 -4q-64 -3 -83 -102q-8 -2 -28.5 -1t-30.5 4v185h673v-185q-27 -8 -57 -3q-19 98 -94 102l-116 4v-174l164 66v-62l-164 -66v-64l164 66v-62l-164 -66l5 -149
q0 -19 3.5 -26t17.5 -10l89 -18q0 -45 -4 -60h-359z" />
    <glyph glyph-name="uni20B1" unicode="&#x20b1;" horiz-adv-x="794" 
d="M62 0q-5 34 -3 55l52 14q17 4 27.5 21t11.5 41l3 142v122h-102v57h102v61h-102v57h102v18q0 30 -24 40l-69 26q-1 8 0.5 26t4.5 27h390q89 0 150 -34t82 -103h87v-57h-78v-16q0 -25 -4 -45h82v-57h-100q-31 -64 -99 -100.5t-165 -36.5h-56v72l31 1q105 3 139 64h-232
v-122l3 -152q0 -34 22 -38l102 -24q0 -48 -4 -59h-353zM292 452h249q2 18 2 29q0 17 -3 32h-248v-61zM292 570h226q-37 53 -130 56l-96 2v-58z" />
    <glyph glyph-name="uni2113" unicode="&#x2113;" horiz-adv-x="507" 
d="M68 194l-36 51q84 61 92 67v196q0 122 65.5 190.5t144.5 68.5q55 0 96 -28.5t41 -96.5q0 -80 -55 -154.5t-156 -156.5v-130q0 -74 11 -101.5t44 -27.5q42 0 75 26l30 -38q-61 -72 -160 -72q-74 0 -105 43t-31 135v66zM260 570v-149q111 109 111 200q0 42 -10 62.5
t-39 20.5q-62 0 -62 -134z" />
    <glyph glyph-name="uni2116" unicode="&#x2116;" horiz-adv-x="1028" 
d="M676 82v69h312v-69h-312zM988 372q0 -60 -47.5 -102t-111.5 -42q-153 0 -153 120q0 60 47 101.5t109 41.5q67 0 111.5 -30t44.5 -89zM895 360q0 32 -18.5 50t-48.5 18q-28 0 -44 -18.5t-16 -49.5q0 -70 66 -70q61 0 61 70zM672 501l-49 -22q-23 -10 -23 -41v-432
l-101 -29l-309 412h-3l8 -60v-116l3 -120q0 -12 1.5 -15t10.5 -5l72 -21q0 -34 -6 -52h-240q-6 25 -4 50l46 13q28 9 28 48l4 101v234q0 27 -27 37l-42 17q0 35 4 46h186l289 -379h3l-8 85v185q0 30 -28 43l-50 20q0 28 6 46h225q5 -30 4 -45z" />
    <glyph glyph-name="uni2117" unicode="&#x2117;" horiz-adv-x="672" 
d="M489 322q0 -55 -39.5 -84.5t-96.5 -29.5h-39l3 -108h-82l2 137v200l126 1q55 0 90.5 -30t35.5 -86zM408 321q0 64 -56 64h-38v-131h31q63 0 63 67zM637 269q0 -135 -84 -212t-214 -77q-54 0 -104.5 15t-96.5 47t-74 90.5t-28 136.5q0 136 85.5 215t215.5 79
q57 0 108.5 -16.5t95.5 -50t70 -92t26 -135.5zM578 269q0 118 -70 180.5t-169 62.5q-106 0 -174.5 -59.5t-68.5 -178.5q0 -60 18.5 -106t45 -71t62.5 -41t65 -21t58 -5q103 0 168 63t65 176z" />
    <glyph glyph-name="uni2120" unicode="&#x2120;" horiz-adv-x="882" 
d="M165 341q-81 0 -132 42l33 62q52 -50 105 -50q28 0 47 10t19 29q0 13 -19 24.5t-46 22.5t-54 25t-46 39t-19 57q0 50 41 82.5t92 32.5q80 0 128 -34l-34 -58q-47 38 -95 38q-61 0 -61 -38q0 -16 29.5 -31.5t65.5 -28.5t65.5 -42t29.5 -68q0 -56 -45 -85t-104 -29z
M843 348h-86l-34 202l-8 56l-79 -258h-97l-59 248l-7 -40l-42 -208h-79l83 359h92l51 -210l17 -73l22 75l64 208h93z" />
    <glyph glyph-name="trademark" unicode="&#x2122;" horiz-adv-x="897" 
d="M847 348h-87l-32 193l-10 71l-18 -66l-61 -198h-97l-45 188l-13 66l-12 -66l-38 -188h-79l83 359h92l50 -206l19 -83l22 86l63 203h94zM380 707v-75l-121 11v-152l5 -143h-89l4 143v152l-121 -11v75h322z" />
    <glyph glyph-name="Omega" unicode="&#x2126;" horiz-adv-x="820" 
d="M36 0v116l181 -38l2 7q-80 32 -126 103.5t-46 164.5q0 152 105 258.5t268 106.5q177 0 264.5 -91.5t87.5 -251.5q0 -101 -61.5 -177.5t-150.5 -118.5l2 -5l221 42v-116h-292l-9 97q58 44 94.5 115t36.5 146q0 122 -50.5 195.5t-157.5 73.5q-211 0 -211 -267
q0 -86 36.5 -147t105.5 -112l-9 -101h-291z" />
    <glyph glyph-name="estimated" unicode="&#x212e;" horiz-adv-x="646" 
d="M332 -11q-138 0 -216 72.5t-78 201.5t84 213t214 84q125 0 200 -63.5t76 -181.5l1 -54h-422v-59q0 -62 37.5 -100t107.5 -38q134 0 202 96l55 -40q-38 -65 -112 -98t-149 -33zM191 327h267v19q0 69 -27 107t-95 38q-145 0 -145 -145v-19z" />
    <glyph glyph-name="uni2139" unicode="&#x2139;" horiz-adv-x="800" 
d="M400 -9q-150 0 -256.5 106t-106.5 257q0 150 106.5 256.5t256.5 106.5t256.5 -106.5t106.5 -256.5q0 -151 -106.5 -257t-256.5 -106zM400 62q121 0 206.5 85.5t85.5 206.5t-85.5 206.5t-206.5 85.5t-206.5 -85.5t-85.5 -206.5t85.5 -206.5t206.5 -85.5zM400 452
q-30 0 -51.5 21t-21.5 52q0 30 21.5 51t51.5 21t51.5 -21t21.5 -51q0 -31 -21.5 -52t-51.5 -21zM330 144v274h139v-274h-139z" />
    <glyph glyph-name="uni213B" unicode="&#x213b;" horiz-adv-x="804" 
d="M754 0h-704v309h111v344h309l175 -175v-169h109v-309zM585 483l-109 110v-110h109zM606 309v135h-170v170h-236v-305h406zM715 39l-1 231h-625v-231h626zM390 529h-144v39h144v-39zM560 360h-314v38h314v-38zM390 444h-144v39h144v-39zM390 80h-144v39h144v-39z" />
    <glyph glyph-name="onethird" unicode="&#x2153;" horiz-adv-x="791" 
d="M753 110q0 -61 -41.5 -88.5t-109.5 -27.5q-63 0 -117 18l18 76q48 -12 90 -12q57 0 57 41q0 27 -19.5 36.5t-68.5 11.5v51q41 4 56.5 15.5t15.5 34.5q-2 28 -37 28q-45 0 -75 -15l-25 67q51 27 108 27q61 0 95.5 -24.5t34.5 -73.5q0 -52 -44 -76q62 -27 62 -89zM647 603
l-539 -541l-50 54l539 538zM206 415h-102v285h-73v79l175 4v-368z" />
    <glyph glyph-name="twothirds" unicode="&#x2154;" horiz-adv-x="803" 
d="M308 415h-274v66q164 124 164 177q0 42 -45 42q-42 0 -76 -23l-35 69q53 40 126 40q67 0 100 -34t33 -83q0 -88 -137 -172h144v-82zM769 110q0 -61 -41.5 -88.5t-109.5 -27.5q-63 0 -117 18l18 76q48 -12 90 -12q57 0 57 41q0 27 -19.5 36.5t-68.5 11.5v51
q41 4 56.5 15.5t15.5 34.5q-2 28 -37 28q-45 0 -75 -15l-25 67q51 27 108 27q61 0 95.5 -24.5t34.5 -73.5q0 -52 -44 -76q62 -27 62 -89zM682 603l-539 -541l-50 54l539 538z" />
    <glyph glyph-name="oneeighth" unicode="&#x215b;" horiz-adv-x="786" 
d="M749 104q0 -51 -40.5 -79.5t-109.5 -28.5q-146 0 -146 101q0 60 65 95q-51 36 -51 83q0 51 38.5 74.5t99.5 23.5q58 0 96 -25.5t38 -66.5q0 -49 -57 -85q67 -37 67 -92zM638 272q0 12 -8.5 21.5t-26.5 9.5q-40 0 -40 -32q0 -20 49 -43q10 9 14 13t8 12.5t4 18.5zM646 107
q0 24 -63 52q-29 -18 -29 -54q0 -16 11.5 -27.5t36.5 -11.5q23 0 33.5 12t10.5 29zM207 415h-102v285h-73v79l175 4v-368zM637 603l-539 -541l-50 54l539 538z" />
    <glyph glyph-name="threeeighths" unicode="&#x215c;" horiz-adv-x="804" 
d="M771 104q0 -51 -40.5 -79.5t-109.5 -28.5q-146 0 -146 101q0 60 65 95q-51 36 -51 83q0 51 38.5 74.5t99.5 23.5q58 0 96 -25.5t38 -66.5q0 -49 -57 -85q67 -37 67 -92zM660 272q0 12 -8.5 21.5t-26.5 9.5q-40 0 -40 -32q0 -20 49 -43q10 9 14 13t8 12.5t4 18.5zM668 107
q0 24 -63 52q-29 -18 -29 -54q0 -16 11.5 -27.5t36.5 -11.5q23 0 33.5 12t10.5 29zM303 526q0 -61 -41.5 -88.5t-109.5 -27.5q-63 0 -117 18l18 76q48 -12 90 -12q57 0 57 41q0 27 -19.5 36.5t-68.5 11.5v51q41 4 56.5 15.5t15.5 34.5q-2 28 -37 28q-45 0 -75 -15l-25 67
q51 27 108 27q61 0 95.5 -24.5t34.5 -73.5q0 -52 -44 -76q62 -27 62 -89zM666 603l-539 -541l-50 54l539 538z" />
    <glyph glyph-name="fiveeighths" unicode="&#x215d;" horiz-adv-x="808" 
d="M781 104q0 -51 -40.5 -79.5t-109.5 -28.5q-146 0 -146 101q0 60 65 95q-51 36 -51 83q0 51 38.5 74.5t99.5 23.5q58 0 96 -25.5t38 -66.5q0 -49 -57 -85q67 -37 67 -92zM670 272q0 12 -8.5 21.5t-26.5 9.5q-40 0 -40 -32q0 -20 49 -43q10 9 14 13t8 12.5t4 18.5zM678 107
q0 24 -63 52q-29 -18 -29 -54q0 -16 11.5 -27.5t36.5 -11.5q23 0 33.5 12t10.5 29zM307 536q0 -59 -43 -93t-109 -34q-48 0 -114 15q16 62 19 72q64 -16 93 -16q26 0 39.5 13.5t13.5 34.5q0 24 -16.5 36t-41.5 12q-49 0 -91 -4v211h234v-81h-142v-52q3 0 9.5 0.5t8.5 0.5
q140 0 140 -115zM665 603l-539 -541l-50 54l539 538z" />
    <glyph glyph-name="seveneighths" unicode="&#x215e;" horiz-adv-x="775" 
d="M746 104q0 -51 -40.5 -79.5t-109.5 -28.5q-146 0 -146 101q0 60 65 95q-51 36 -51 83q0 51 38.5 74.5t99.5 23.5q58 0 96 -25.5t38 -66.5q0 -49 -57 -85q67 -37 67 -92zM635 272q0 12 -8.5 21.5t-26.5 9.5q-40 0 -40 -32q0 -20 49 -43q10 9 14 13t8 12.5t4 18.5zM643 107
q0 24 -63 52q-29 -18 -29 -54q0 -16 11.5 -27.5t36.5 -11.5q23 0 33.5 12t10.5 29zM634 603l-539 -541l-50 54l539 538zM308 705l-161 -300l-96 26l157 262h-164v90h264v-78z" />
    <glyph glyph-name="uni2190" unicode="&#x2190;" horiz-adv-x="765" 
d="M316 32l-271 270l267 267l80 -80l-126 -126h453v-122h-457l132 -131z" />
    <glyph glyph-name="uni2191" unicode="&#x2191;" horiz-adv-x="690" 
d="M613 395l-80 -80l-127 127v-466l-122 1v469l-130 -131l-78 77l270 270z" />
    <glyph glyph-name="uni2192" unicode="&#x2192;" horiz-adv-x="765" 
d="M719 301l-267 -267l-80 80l127 127h-454v122h458l-132 131l78 77z" />
    <glyph glyph-name="uni2193" unicode="&#x2193;" horiz-adv-x="690" 
d="M536 300l77 -78l-270 -271l-267 267l80 80l126 -126v465h123v-470z" />
    <glyph glyph-name="uni2196" unicode="&#x2196;" horiz-adv-x="745" 
d="M633 99l-86 -87l-323 323v-185h-110v382h378v-113h-179z" />
    <glyph glyph-name="uni2197" unicode="&#x2197;" horiz-adv-x="745" 
d="M629 522v-378h-112v179l-320 -320l-87 86l323 323h-185v110h381z" />
    <glyph glyph-name="uni2198" unicode="&#x2198;" horiz-adv-x="745" 
d="M627 405v-381h-378v113h179l-320 321l87 85l323 -323l-1 185h110z" />
    <glyph glyph-name="uni2199" unicode="&#x2199;" horiz-adv-x="745" 
d="M633 466l-323 -323h185v-109h-382v378h113v-179l320 320z" />
    <glyph glyph-name="partialdiff" unicode="&#x2202;" horiz-adv-x="588" 
d="M276 -14q-106 0 -170 51.5t-64 155.5q0 109 67 182.5t163 73.5q20 0 41.5 -2.5t33.5 -5.5t29 -7t20 -5q-36 148 -204 199l47 106q58 -12 111.5 -40t100 -73.5t74 -114.5t27.5 -152q0 -184 -76 -276t-200 -92zM288 78q121 0 121 231q0 20 -1 28q-44 21 -123 21
q-42 0 -72 -35t-30 -103q0 -64 28.5 -103t76.5 -39z" />
    <glyph glyph-name="Delta" unicode="&#x2206;" horiz-adv-x="756" 
d="M707 70l-41 -70h-606l-25 63l282 630l132 31zM535 97l-149 426l-26 86h-6l-29 -84l-178 -437z" />
    <glyph glyph-name="product" unicode="&#x220f;" horiz-adv-x="852" 
d="M819 55q0 -40 -6 -55h-320q-5 25 -4 53l56 20q18 6 28 24t10 38l1 143v342h-324v-342l4 -164q1 -20 8 -28.5t28 -13.5l71 -18q0 -36 -6 -54h-327q-5 27 -5 52l51 19q37 15 37 62l1 145v312q0 40 -33 51q-40 15 -52 18q0 35 4 48h757q3 -25 1 -49l-47 -15q-29 -11 -29 -42
v-323l4 -154q1 -43 21 -48z" />
    <glyph glyph-name="summation" unicode="&#x2211;" horiz-adv-x="604" 
d="M581 202l-25 -202h-488l-33 80l172 266l-165 274l26 87h494v-191q-22 -4 -36 -4l-33 3q-10 50 -24.5 75t-38.5 26l-238 12l154 -255l-191 -274l250 11q76 6 113 104z" />
    <glyph glyph-name="minus" unicode="&#x2212;" 
d="M540 259h-480v86h480v-86z" />
    <glyph glyph-name="radical" unicode="&#x221a;" horiz-adv-x="632" 
d="M639 805l-282 -889l-113 -30l-172 585h-86v66q96 21 183 21q21 0 31.5 -7t14.5 -26l84 -332l27 -120h4l32 124l194 630z" />
    <glyph glyph-name="infinity" unicode="&#x221e;" horiz-adv-x="897" 
d="M237 77q-47 0 -83 19.5t-55.5 53t-29 71t-9.5 79.5q0 85 49.5 154t127.5 69q63 0 113 -41t98 -109q50 68 99.5 109t111.5 41q89 0 133.5 -66.5t44.5 -156.5q0 -86 -48.5 -154.5t-129.5 -68.5q-63 0 -112 40.5t-99 109.5q-48 -68 -98 -109t-113 -41zM237 163q28 0 60.5 25
t51.5 48.5t48 63.5q-3 4 -16 22t-18.5 25.5t-18.5 23.5t-20.5 24t-20 19.5t-22.5 17t-21.5 10t-22.5 4.5q-42 0 -62 -42.5t-20 -103.5q0 -56 21.5 -96.5t60.5 -40.5zM659 154q42 0 62.5 42.5t20.5 103.5q0 56 -21.5 96.5t-61.5 40.5q-28 0 -60.5 -25t-51.5 -48.5t-48 -63.5
q3 -4 16 -22t18.5 -25.5t18.5 -23.5t20.5 -24t20 -19.5t22.5 -17t21.5 -10t22.5 -4.5z" />
    <glyph glyph-name="integral" unicode="&#x222b;" horiz-adv-x="331" 
d="M-75 -231l-12 104h37q41 0 63 8q67 13 67 96v546q0 109 60.5 176.5t164.5 67.5q19 0 60 -5l-24 -103q-60 6 -70 6q-45 0 -60.5 -21.5t-15.5 -71.5v-556q0 -117 -77 -182t-193 -65z" />
    <glyph glyph-name="approxequal" unicode="&#x2248;" 
d="M202 497q34 0 65.5 -16.5t51 -35.5t44 -35.5t45.5 -16.5q24 0 45 13t30 26l9 13l48 -55q-66 -91 -142 -91q-43 0 -80.5 26.5t-68.5 52.5t-57 26q-24 0 -45 -13t-30 -26l-9 -13l-48 54q66 91 142 91zM202 293q34 0 65.5 -16.5t51 -35.5t44 -35.5t45.5 -16.5q24 0 45 13
t30 26l9 13l48 -55q-66 -91 -142 -91q-43 0 -80.5 26.5t-68.5 52.5t-57 26q-24 0 -45 -13t-30 -26l-9 -13l-48 54q66 91 142 91z" />
    <glyph glyph-name="notequal" unicode="&#x2260;" 
d="M159 158h-99v86h156l71 111h-227v87h282l107 165l74 -48l-77 -117h94v-87h-152l-71 -111h223v-86h-278l-107 -166l-72 49z" />
    <glyph glyph-name="lessequal" unicode="&#x2264;" 
d="M501 134l-441 203v39l441 202l39 -82l-317 -140l317 -140zM60 0v87h480v-87h-480z" />
    <glyph glyph-name="greaterequal" unicode="&#x2265;" 
d="M99 134l-39 82l317 140l-317 140l39 82l441 -202v-39zM60 0v87h480v-87h-480z" />
    <glyph glyph-name="uni231A" unicode="&#x231a;" horiz-adv-x="786" 
d="M756 354q0 -151 -106.5 -257t-256.5 -106t-256.5 106t-106.5 257q0 150 106.5 256.5t256.5 106.5t256.5 -106.5t106.5 -256.5zM713 354q0 134 -93.5 227t-226.5 93t-226.5 -93t-93.5 -227t93.5 -227t226.5 -93t226.5 93t93.5 227zM558 602l-20 -25l-26 15l15 31zM661 489
l-32 -15l-15 27l26 20zM691 341h-30v31h30v-31zM276 592l-26 -16l-20 26l31 21zM660 224l-21 -31l-26 20l15 26zM410 340h-201v33h168v264h33v-297zM174 501l-15 -27l-31 15l20 32zM558 111l-32 -19l-15 30l27 15zM409 60h-30v32h30v-32zM128 341h-31v31h31v-31zM175 213
l-27 -20l-20 31l32 15zM276 122l-15 -30l-31 19l20 26z" />
    <glyph glyph-name="uni235F" unicode="&#x235f;" horiz-adv-x="666" 
d="M616 333q0 -115 -81.5 -196.5t-196.5 -81.5t-196.5 81.5t-81.5 196.5t81.5 196.5t196.5 81.5q116 0 197 -81.5t81 -196.5zM495 385l-119 7l-43 111l-43 -111l-118 -7l91 -75l-29 -115l99 65l100 -65l-30 115z" />
    <glyph glyph-name="uni24CA" unicode="&#x24ca;" horiz-adv-x="918" 
d="M460 123q-75 0 -127 36t-52 121v280h105v-267q0 -52 19 -73.5t55 -21.5q42 0 61.5 23t19.5 80v259h101v-265q0 -49 -17 -84.5t-45 -53.5t-57.5 -26t-62.5 -8zM462 -12q-69 0 -134 19t-124 59.5t-95 114t-36 171.5q0 172 109.5 271t277.5 99q57 0 111 -12.5t104.5 -40.5
t87.5 -70t59.5 -105.5t22.5 -141.5q0 -170 -108.5 -267t-274.5 -97zM470 38q139 0 226.5 82.5t87.5 231.5q0 80 -27 143t-73 100.5t-102.5 57t-119.5 19.5q-143 0 -234 -78t-91 -236q0 -57 13 -104.5t34 -80t50 -57.5t59 -39.5t63.5 -23.5t60.5 -12t53 -3z" />
    <glyph glyph-name="uni25A0" unicode="&#x25a0;" horiz-adv-x="926" 
d="M816 707v-707h-706v707h706z" />
    <glyph glyph-name="uni25A1" unicode="&#x25a1;" horiz-adv-x="800" 
d="M740 694v-681h-680v681h680zM625 129v450h-450v-450h450z" />
    <glyph glyph-name="uni25AA" unicode="&#x25aa;" horiz-adv-x="766" 
d="M656 547v-547h-546v547h546z" />
    <glyph glyph-name="uni25AB" unicode="&#x25ab;" horiz-adv-x="766" 
d="M656 547v-547h-546v547h546zM525 132v284h-284v-284h284z" />
    <glyph glyph-name="uni25B6" unicode="&#x25b6;" horiz-adv-x="665" 
d="M110 -52v670l535 -335z" />
    <glyph glyph-name="uni25B7" unicode="&#x25b7;" horiz-adv-x="665" 
d="M645 283l-535 -335v670zM433 283l-193 117v-229z" />
    <glyph glyph-name="uni25B8" unicode="&#x25b8;" horiz-adv-x="465" 
d="M444 273l-334 -335v670z" />
    <glyph glyph-name="uni25B9" unicode="&#x25b9;" horiz-adv-x="465" 
d="M444 273l-334 -335v670zM307 273l-94 94v-188z" />
    <glyph glyph-name="uni25BA" unicode="&#x25ba;" horiz-adv-x="1013" 
d="M1013 273l-903 -335v670z" />
    <glyph glyph-name="uni25BB" unicode="&#x25bb;" horiz-adv-x="1013" 
d="M1013 273l-903 -335v670zM694 273l-452 149v-297z" />
    <glyph glyph-name="uni25C0" unicode="&#x25c0;" horiz-adv-x="665" 
d="M555 -52l-535 335l535 335v-670z" />
    <glyph glyph-name="uni25C1" unicode="&#x25c1;" horiz-adv-x="665" 
d="M555 -52l-535 335l535 335v-670zM425 171v229l-193 -117z" />
    <glyph glyph-name="uni25C2" unicode="&#x25c2;" horiz-adv-x="464" 
d="M354 -62l-334 336l334 334v-670z" />
    <glyph glyph-name="uni25C3" unicode="&#x25c3;" horiz-adv-x="464" 
d="M354 -62l-334 335l334 335v-670zM252 179v188l-94 -94z" />
    <glyph glyph-name="uni25C4" unicode="&#x25c4;" horiz-adv-x="1013" 
d="M903 -62l-903 334l903 336v-670z" />
    <glyph glyph-name="uni25C5" unicode="&#x25c5;" horiz-adv-x="1013" 
d="M903 -62l-903 335l903 335v-670zM771 125v297l-452 -149z" />
    <glyph glyph-name="uni25C6" unicode="&#x25c6;" horiz-adv-x="510" 
d="M255 172l-175 175l175 175l175 -175z" />
    <glyph glyph-name="uni25C9" unicode="&#x25c9;" horiz-adv-x="891" 
d="M798 358q0 -146 -103 -249t-249 -103q-147 0 -250 103t-103 249q0 147 103 250t250 103q146 0 249 -103t103 -250zM746 358q0 125 -88 213q-87 87 -212 87q-126 0 -213 -87t-87 -213q0 -125 87 -212q90 -88 213 -88q124 0 212 88q88 87 88 212zM601 358q0 -64 -46 -110
q-45 -45 -109 -45q-65 0 -110 45q-46 46 -46 110t46 110t110 46q63 0 109 -46t46 -110z" />
    <glyph glyph-name="lozenge" unicode="&#x25ca;" horiz-adv-x="542" 
d="M530 352q-31 -33 -99 -150.5t-101 -201.5h-131q-23 68 -81.5 173.5t-110.5 181.5q9 12 46 71t87.5 147.5t66.5 133.5h131q19 -64 80 -172.5t112 -182.5zM408 337q-21 32 -67 116.5t-77 159.5q-46 -121 -135 -241q69 -106 144 -277q52 125 135 242z" />
    <glyph glyph-name="uni25CB" unicode="&#x25cb;" horiz-adv-x="795" 
d="M397 -5q-129 0 -220 91t-91 219t91 218.5t220 90.5q128 0 219 -90.5t91 -218.5t-91 -219t-219 -91zM397 129q73 0 124.5 51.5t51.5 124.5t-51.5 124t-124.5 51q-74 0 -125.5 -51t-51.5 -124t51.5 -124.5t125.5 -51.5z" />
    <glyph glyph-name="uni25CE" unicode="&#x25ce;" horiz-adv-x="891" 
d="M804 361q0 -148 -105 -253t-253 -105t-254 105q-105 107 -105 253q0 147 105 254q106 105 254 105q146 0 253 -105q105 -107 105 -254zM738 361q0 122 -86 207q-84 85 -206 85t-207 -85t-85 -207t85 -206q86 -86 207 -86q122 0 206 86q86 83 86 206zM660 361
q0 -86 -63 -151q-64 -62 -151 -62t-152 62q-62 64 -62 151t62 152q65 62 152 62t151 -62q63 -66 63 -152zM593 361q0 62 -43 105q-42 43 -104 43t-104 -43q-44 -43 -44 -105q0 -63 44 -104q42 -43 104 -43t104 43q43 42 43 104zM515 361q0 -29 -20 -49t-49 -20q-27 0 -49 20
q-20 22 -20 49t20 49q21 21 49 21t49 -21q20 -22 20 -49z" />
    <glyph glyph-name="uni25CF" unicode="&#x25cf;" horiz-adv-x="766" 
d="M489 103q-50 -31 -108 -31q-51 0 -96.5 24.5t-73.5 68.5q-32 49 -32 109q0 50 24.5 95.5t68.5 73.5q52 32 108 32q51 0 96.5 -24.5t74.5 -69.5q31 -49 31 -107q0 -51 -24.5 -96.5t-68.5 -74.5z" />
    <glyph glyph-name="uni25EF" unicode="&#x25ef;" horiz-adv-x="926" 
d="M821 354q0 -149 -105 -254t-253 -105q-149 0 -254 105t-105 254t105 254t254 105q148 0 253 -105t105 -254zM690 354q0 94 -66.5 160.5t-160.5 66.5t-161 -66.5t-67 -160.5t66.5 -160.5t161.5 -66.5q94 0 160.5 66.5t66.5 160.5z" />
    <glyph glyph-name="uni260F" unicode="&#x260f;" horiz-adv-x="658" 
d="M608 125q-89 -85 -126 -97q-16 -6 -42 4q-117 45 -250 231q-78 112 -107 182q-30 74 -33 129q5 32 10 40q12 19 57 51t72 45l102 -178l-64 -47l186 -259l58 50zM542 129l-73 80l-50 -44q-13 -13 -29 11l-219 305q-8 9 -6.5 17.5t8.5 11.5l51 43l-56 90
q-22 -12 -45.5 -41.5t-20.5 -52.5q19 -113 125 -258q125 -166 211 -207q20 -9 51 7.5t53 37.5z" />
    <glyph glyph-name="uni2610" unicode="&#x2610;" horiz-adv-x="800" 
d="M740 694v-681h-680v681h680zM625 129v450h-450v-450h450z" />
    <glyph glyph-name="uni2611" unicode="&#x2611;" horiz-adv-x="800" 
d="M482 492q9 14 40.5 27.5t55.5 15.5l8 -9q-5 -7 -32.5 -48t-35 -51.5t-31.5 -45t-38 -52t-37.5 -47t-47 -56t-50.5 -54.5h-21q-27 21 -52.5 88t-21.5 89q8 11 25 25t27 17l22 -7q2 -74 29 -125q18 21 39.5 51t38 55t42.5 65.5t40 61.5zM740 694v-681h-680v681h680z
M625 129v450h-450v-450h450z" />
    <glyph glyph-name="uni2612" unicode="&#x2612;" horiz-adv-x="766" 
d="M110 0v547h546v-547h-546zM383 322l94 93h-187zM291 132h187l-95 92zM242 180l92 93l-92 93v-186zM524 184v181l-92 -92z" />
    <glyph glyph-name="uni261A" unicode="&#x261a;" horiz-adv-x="765" 
d="M715 97h-67q-11 0 -38.5 -21t-54.5 -21h-188q-39 0 -60.5 20.5t-21.5 51.5q0 9 3 18q-21 7 -34 26t-13 41q0 14 8 32q-15 16 -15 42q0 11 6 27h-116q-35 0 -54.5 21t-19.5 50q0 30 21.5 52.5t60.5 22.5h263l-45 42q-30 29 -30 59q0 43 59 100l237 -190h98z" />
    <glyph glyph-name="uni261B" unicode="&#x261b;" horiz-adv-x="765" 
d="M117 97h-67l1 373h98l237 190q59 -57 59 -100q0 -30 -30 -59l-45 -42h263q39 0 60.5 -22.5t21.5 -52.5q0 -29 -19.5 -50t-54.5 -21h-116q6 -16 6 -27q0 -26 -15 -42q8 -18 8 -32q0 -22 -13 -41t-34 -26q3 -9 3 -18q0 -31 -21.5 -51.5t-60.5 -20.5h-188q-27 0 -54.5 21
t-38.5 21z" />
    <glyph glyph-name="uni261C" unicode="&#x261c;" horiz-adv-x="765" 
d="M715 97h-67q-11 0 -38.5 -21t-54.5 -21h-188q-39 0 -60.5 20.5t-21.5 51.5q0 9 3 18q-21 7 -34 26t-13 41q0 14 8 32q-15 16 -15 42q0 11 6 27h-116q-35 0 -54.5 21t-19.5 50q0 30 21.5 52.5t60.5 22.5h263l-45 42q-30 29 -30 59q0 43 59 100l237 -190h98v-38h-112
l-222 178q-20 -20 -20 -43q0 -29 29 -53l108 -93h-365q-21 0 -32.5 -10.5t-11.5 -25.5q0 -14 9.5 -24t26.5 -10h334v-38h-178q-8 -14 -8 -22q0 -9 7 -17.5t22 -8.5h157v-38h-175q-5 -6 -5 -22q0 -26 47 -26h133v-38h-131q-4 -4 -4 -16q0 -14 14 -23t30 -9h188q18 0 44 21
t49 21h67v-38z" />
    <glyph glyph-name="uni261D" unicode="&#x261d;" horiz-adv-x="705" 
d="M655 361l-190 -237v-124h-38v138l178 222q-20 20 -43 20q-29 0 -53 -29l-93 -108v365q0 21 -10.5 32.5t-25.5 11.5q-14 0 -24 -9.5t-10 -26.5v-334h-38v178q-14 8 -22 8q-9 0 -17.5 -7t-8.5 -22v-157h-38v175q-6 5 -22 5q-26 0 -26 -47v-133h-38v130q-4 5 -16 5
q-14 0 -23 -14t-9 -30v-188q0 -18 21 -44t21 -49v-93h-38v93q0 11 -21 38.5t-21 54.5v188q0 39 20.5 60.5t51.5 21.5q9 0 18 -3q7 21 26 34t41 13q14 0 32 -8q18 15 42 15q11 0 27 -6v116q0 35 21 54.5t50 19.5q30 0 52.5 -21.5t22.5 -60.5v-263l42 45q28 30 59 30
q43 0 100 -59z" />
    <glyph glyph-name="uni261E" unicode="&#x261e;" horiz-adv-x="765" 
d="M715 384q0 -29 -19.5 -50t-54.5 -21h-116q6 -16 6 -27q0 -24 -15 -42q8 -18 8 -32q0 -22 -13 -41t-34 -26q3 -9 3 -18q0 -31 -21.5 -51.5t-60.5 -20.5h-188q-27 0 -54.5 21t-38.5 21h-67v38h67q23 0 49 -21t44 -21h188q16 0 30 9t14 23q0 12 -5 16h-130v38h133
q47 0 47 26q0 16 -5 22h-175v38h157q15 0 22 8.5t7 17.5q0 8 -8 22h-178v38h334q17 0 26.5 10t9.5 24q0 15 -11.5 25.5t-32.5 10.5h-365l108 93q29 24 29 53q0 23 -20 43l-222 -178h-112v38h98l237 190q59 -57 59 -100q0 -30 -30 -59l-45 -42h263q39 0 60.5 -22.5
t21.5 -52.5z" />
    <glyph glyph-name="uni261F" unicode="&#x261f;" horiz-adv-x="705" 
d="M655 361l-190 -237v-124h-38v138l178 222q-20 20 -43 20q-29 0 -53 -29l-93 -108v160q0 44 -26 44q-14 0 -24 -9.5t-10 -26.5v-129h-38v337q0 17 -9.5 27.5t-21.5 10.5t-19.5 -10.5t-7.5 -27.5v-337h-38v161q-6 5 -22 5q-15 0 -20.5 -6t-5.5 -27v-133h-38v130q-4 5 -16 5
q-14 0 -23 -14t-9 -30v-188q0 -18 21 -44t21 -49v-93h-38v93q0 11 -21 38.5t-21 54.5v188q0 39 20.5 60.5t51.5 21.5q9 0 18 -3q20 33 58 33q10 0 24 -7v153q0 28 22.5 47.5t47.5 19.5q26 0 45.5 -19t19.5 -44v-156q14 6 32 6q29 0 47 -21t18 -61v-58l42 45q27 28 67 28
q22 0 42 -13t50 -44z" />
    <glyph glyph-name="uni263A" unicode="&#x263a;" horiz-adv-x="814" 
d="M407 182q-51 0 -93 28.5t-62 75.5l52 33q17 -33 45 -52.5t61 -19.5q76 0 103 72l48 -32q-15 -46 -58.5 -75.5t-95.5 -29.5zM313 382q-22 0 -37 14.5t-15 35.5t15 35.5t37 14.5q21 0 37.5 -14.5t16.5 -35.5t-16.5 -35.5t-37.5 -14.5zM407 -9q-150 0 -255.5 106t-105.5 256
q0 149 105.5 255t255.5 106t255.5 -106t105.5 -255q0 -150 -105.5 -256t-255.5 -106zM407 105q102 0 175 72.5t73 175.5q0 101 -73 174t-175 73t-175 -73t-73 -174q0 -103 73 -175.5t175 -72.5zM501 382q-22 0 -37.5 14.5t-15.5 35.5t15.5 35.5t37.5 14.5q21 0 37 -14.5
t16 -35.5t-16 -35.5t-37 -14.5z" />
    <glyph glyph-name="uni2641" unicode="&#x2641;" horiz-adv-x="786" 
d="M754 354q0 -150 -106 -255.5t-255 -105.5t-255 105.5t-106 255.5q0 149 106 255t255 106t255 -106t106 -255zM202 561l-29 -21l-16 25q-83 -88 -83 -211q0 -133 93 -226t226 -93t226 93t93 226q0 33 -7 69l-5 -49l-49 -32l17 -20l-29 -14l-10 18l-5 -1l5 -26l22 -12
l-9 -7l-13 4l3 -10l12 -1l10 -19l30 -11l2 -10l-36 6l-49 51l19 -2l-27 64v16h-8l-3 -15l-27 -20v-19l-25 -6l-13 36l-9 3l1 21l-81 14l13 -21l18 5l14 -14l-14 -18l-39 -12l-34 67h-10l-1 -13l23 -48l18 -13l32 2l-54 -76l6 -6l2 -24l-15 -15l-1 -18l-38 -46l-35 2l-27 77
l8 11v19l-22 27l9 6l-22 14l-49 2l-26 27l-1 49l62 54l32 3l8 -9l-2 -13l25 -8l13 16l9 -14h40l6 6v24l-14 -24l-24 30l8 -30l-22 18l-3 19l-21 24l-4 -4l17 -20l-11 -19l-2 16l-22 17l-11 -10l-6 4l-41 -34l-14 35l26 -1l9 11l-14 9l21 13l10 1l17 16l-5 18l10 4l6 -14
l32 4l1 12l40 13l-6 7l-27 -7l-7 14l16 12l-9 10l-21 -27l8 -6l-2 -16l-20 -6l-5 12l-22 -3l2 19l36 49l44 9l60 -14l-11 -16l-23 2l15 -16l46 30h35l-20 28l23 26l33 14q-52 19 -111 19q-147 0 -235 -107l30 8zM564 626q-38 19 -58 27l3 -10l-31 -11l-18 -23l36 -24l-6 11
l22 25l45 -15zM438 219l-14 -51l-21 14l6 26l21 16zM701 277l-11 -25l-23 6l1 19l21 21zM251 496l-1 -13h-27l6 13l-15 21l12 11l6 -18zM218 491l-10 -11l-11 10l9 18zM296 419l-9 4l6 9z" />
    <glyph glyph-name="uni2661" unicode="&#x2661;" horiz-adv-x="673" 
d="M623 375q0 -74 -98 -188l-189 -223l-154 175q-58 65 -95 130t-37 106q0 82 49.5 132t112.5 50t125 -56q58 56 124 56q63 0 112.5 -50t49.5 -132zM564 375q0 59 -32.5 91t-70.5 32q-24 0 -43.5 -8.5t-35.5 -27.5t-24 -32t-22 -39q-22 42 -37 61q-39 46 -87 46
q-38 0 -70.5 -33t-32.5 -90q0 -29 31.5 -81.5t73.5 -101.5l123 -142l143 169q37 44 60.5 88t23.5 68z" />
    <glyph glyph-name="uni2665" unicode="&#x2665;" horiz-adv-x="673" 
d="M623 375q0 -74 -98 -188l-189 -223l-154 175q-58 65 -95 130t-37 106q0 82 49.5 132t112.5 50t125 -56q58 56 124 56q63 0 112.5 -50t49.5 -132z" />
    <glyph glyph-name="uni267E" unicode="&#x267e;" horiz-adv-x="746" 
d="M271 155q-44 0 -68.5 35.5t-24.5 82.5q0 44 26 80.5t67 36.5q22 0 43 -14t33 -28.5t29 -39.5q58 82 105 82q41 0 67 -36.5t26 -80.5q0 -47 -24.5 -82.5t-68.5 -35.5q-22 0 -43.5 14.5t-33 29t-28.5 38.5q-62 -82 -105 -82zM271 212q34 0 79 61q-47 61 -79 61
q-17 0 -27 -18t-10 -43q0 -26 10 -43.5t27 -17.5zM376 -20q-54 0 -104.5 15t-96.5 47t-74 90.5t-28 136.5q0 136 85.5 215t215.5 79q57 0 108.5 -16.5t95.5 -50t70 -92t26 -135.5q0 -135 -84 -212t-214 -77zM382 30q103 0 168.5 63t65.5 176q0 118 -70.5 180.5t-169.5 62.5
q-106 0 -174.5 -59.5t-68.5 -178.5q0 -60 18.5 -106t45.5 -71t63 -41t65 -21t57 -5zM481 212q17 0 26.5 17.5t9.5 43.5q0 25 -9.5 43t-26.5 18q-34 0 -79 -61q46 -61 79 -61z" />
    <glyph glyph-name="uni2708" unicode="&#x2708;" horiz-adv-x="786" 
d="M756 354q0 -150 -106.5 -256.5t-256.5 -106.5t-256.5 106.5t-106.5 256.5t106.5 256.5t256.5 106.5t256.5 -106.5t106.5 -256.5zM713 354q0 134 -93.5 227t-226.5 93t-226.5 -93t-93.5 -227t93.5 -227t226.5 -93t226.5 93t93.5 227zM573 513q0 -15 -8 -25l-79 -88
l85 -188l-43 -45l-116 162l-75 -77l15 -103l-37 -12l-44 96l-97 41l5 38l109 -14l75 78l-164 109l43 45l189 -78l87 81q10 10 23 10q15 0 23.5 -8.5t8.5 -21.5z" />
    <glyph glyph-name="uni2709" unicode="&#x2709;" horiz-adv-x="756" 
d="M706 51h-656v484h656v-484zM665 116v351l-186 -168zM642 495h-524l263 -227zM637 89l-190 182l-32 -31q-13 -13 -38 -13q-19 0 -37 17l-33 29l-190 -184h520zM278 300l-189 163v-351z" />
    <glyph glyph-name="uni270E" unicode="&#x270e;" horiz-adv-x="764" 
d="M714 498l-377 -380l-287 -108l111 278l383 380zM586 571l-45 41l-316 -320l45 -42zM657 496l-45 45l-316 -320l45 -46zM316 148l-121 118l-53 -123l43 -46z" />
    <glyph glyph-name="uni2713" unicode="&#x2713;" horiz-adv-x="800" 
d="M481 480q9 14 40.5 27.5t55.5 15.5l8 -9q-5 -7 -32.5 -48t-35 -51.5t-31.5 -45t-38 -52t-37.5 -47t-47 -56t-50.5 -54.5h-21q-27 21 -52.5 88t-21.5 89q8 11 25 25t27 17l22 -7q2 -74 29 -125q18 21 39.5 51t38 55t42.5 65.5t40 61.5z" />
    </font>
</defs>
</svg>
